<?xml version="1.0" encoding="UTF-8"?>
<svg version="1.1" xmlns="http://www.w3.org/2000/svg" width="3840" height="2160">
<path d="M0 0 C0.89384399 -0.00067474 1.78768799 -0.00134949 2.70861816 -0.00204468 C97.66614594 0.11073399 186.96213869 35.74088633 254.625 102.25 C263.18157482 110.85863863 271.01639311 119.90803277 278.34570312 129.57666016 C279.59170139 131.20644491 280.86102849 132.81448061 282.140625 134.41796875 C328.05006963 192.25054102 350.8167274 267.85560545 350.875 341.125 C350.87601212 342.28769409 350.87601212 342.28769409 350.87704468 343.47387695 C350.80697634 394.87129742 339.95405314 445.86410653 317.625 492.25 C317.24263184 493.06098145 316.86026367 493.87196289 316.46630859 494.70751953 C305.17144328 518.61803965 290.7633506 541.0992772 273.625 561.25 C272.82835938 562.23097656 272.03171875 563.21195313 271.2109375 564.22265625 C264.60752933 572.26723101 257.39797048 579.69132734 250.0625 587.0625 C249.57980652 587.55036987 249.09711304 588.03823975 248.59979248 588.54089355 C241.95630467 595.24048857 235.02116019 601.38915859 227.625 607.25 C226.52535421 608.15514041 225.42732395 609.06225308 224.33203125 609.97265625 C208.0099842 623.16686163 190.22677127 634.5585849 171.625 644.25 C170.99851562 644.58370605 170.37203125 644.91741211 169.7265625 645.26123047 C120.36949549 671.51471258 65.23027494 683.59288916 9.625 685.25 C8.86993164 685.27336426 8.11486328 685.29672852 7.33691406 685.32080078 C-81.11619945 687.65263962 -167.66749978 657.06613065 -234.375 599.25 C-235.18066406 598.55777344 -235.98632812 597.86554687 -236.81640625 597.15234375 C-248.07581686 587.26463799 -259.11472356 576.64459836 -268.35546875 564.82421875 C-270.52869768 562.05408748 -272.82200199 559.41295623 -275.125 556.75 C-332.43473094 487.90735107 -354.40963247 394.81560599 -346.734375 306.93847656 C-339.59615235 233.67470764 -308.59605351 157.4024553 -254.8125 105.6875 C-253.13311554 104.05742138 -253.13311554 104.05742138 -250.9375 101.25 C-248.39514807 98.27358798 -245.75124894 95.86907731 -242.77734375 93.34375 C-240.47148795 91.33409356 -238.25402814 89.2483977 -236.0390625 87.13964844 C-173.65922281 28.14505614 -84.62551652 0.05801117 0 0 Z M-110.375 208.25 C-111.35082031 209.10464844 -112.32664062 209.95929688 -113.33203125 210.83984375 C-137.85842871 232.61476864 -154.9987337 259.77253455 -164.375 291.25 C-164.58060547 291.92514648 -164.78621094 292.60029297 -164.99804688 293.29589844 C-179.05989211 340.47646672 -170.57806714 389.8728753 -147.625 432.5 C-141.74751565 442.94886107 -134.56662781 452.22404001 -126.41796875 460.99609375 C-124.99824156 462.56240845 -123.63657259 464.18252833 -122.32421875 465.83984375 C-99.05338352 494.61360194 -56.12445855 511.48834571 -20.359375 515.74609375 C26.90729317 520.33202819 73.05878566 508.73404355 110.25 478.8125 C112.05067377 477.30234191 113.84231281 475.78134903 115.625 474.25 C116.553125 473.45722656 117.48125 472.66445312 118.4375 471.84765625 C124.91857692 466.14970946 130.34385403 460.05844602 135.625 453.25 C136.42679688 452.27546875 137.22859375 451.3009375 138.0546875 450.296875 C148.7136318 437.08111229 156.41953215 422.00706142 162.625 406.25 C163.07488281 405.11046875 163.52476562 403.9709375 163.98828125 402.796875 C179.72095 359.34938112 177.09622366 309.09759571 157.81640625 267.26171875 C151.09717667 253.15374003 142.96668684 239.99364087 132.625 228.25 C131.8721875 227.38761719 131.119375 226.52523438 130.34375 225.63671875 C128.13494737 223.1442514 125.8898187 220.69156499 123.625 218.25 C123.04878906 217.60804688 122.47257812 216.96609375 121.87890625 216.3046875 C92.78963021 185.33659408 48.29152526 169.77206485 6.625 168.25 C5.68140625 168.20875 4.7378125 168.1675 3.765625 168.125 C-36.83762454 167.20741244 -79.77891495 181.13784872 -110.375 208.25 Z " fill="#00A0DC" transform="translate(3129.375,1397.75)"/>
<path d="M0 0 C1.72757538 -0.00101212 1.72757538 -0.00101212 3.49005127 -0.00204468 C23.96931565 0.01691006 44.15618462 0.92792926 64.5 3.25 C65.65671204 3.3808197 65.65671204 3.3808197 66.83679199 3.51428223 C154.78996222 13.53996222 154.78996222 13.53996222 162.5 21.25 C162.59643778 23.07227687 162.62187371 24.8983336 162.62025452 26.72315979 C162.62231651 28.50481537 162.62231651 28.50481537 162.62442017 30.32246399 C162.62082489 31.63732285 162.61722961 32.9521817 162.61352539 34.30688477 C162.61324352 35.69617714 162.61340125 37.08546967 162.6139679 38.47476196 C162.61425588 42.25765289 162.60835901 46.04051238 162.60139394 49.82339597 C162.59516055 53.77255677 162.59455661 57.72171822 162.59336853 61.67088318 C162.59025517 69.15425075 162.58204172 76.63760379 162.57201904 84.12096494 C162.56085805 92.63835733 162.55534749 101.1557504 162.55032361 109.67314827 C162.53985911 127.19877394 162.52225958 144.72438543 162.5 162.25 C159.65379596 161.61939958 156.807703 160.98830479 153.96166992 160.35693359 C153.16504692 160.18048813 152.36842392 160.00404266 151.54766083 159.82225037 C146.73006586 158.7530414 141.91926765 157.65928946 137.11328125 156.5390625 C80.87654669 143.61604207 3.86066184 128.16235055 -48.69140625 160.1953125 C-58.34411901 166.89311319 -65.27114873 174.81023738 -69.11328125 186.04296875 C-71.31554291 198.61143174 -69.47656691 210.11250572 -62.75 220.9375 C-42.73559635 248.82885954 -2.4324821 256.3256157 28.44140625 266.00390625 C70.37891839 279.16677198 70.37891839 279.16677198 87.5 287.25 C88.24008301 287.59579102 88.98016602 287.94158203 89.74267578 288.29785156 C94.39622173 290.49305887 98.96420246 292.82187565 103.5 295.25 C104.1590332 295.59885254 104.81806641 295.94770508 105.49707031 296.30712891 C132.75944274 310.82489633 157.14298606 331.39475035 175.5 356.25 C175.91749512 356.80719727 176.33499023 357.36439453 176.76513672 357.93847656 C196.69596647 384.86604742 208.55013673 419.756995 209.5 453.25 C209.52046387 453.9620459 209.54092773 454.6740918 209.56201172 455.40771484 C210.4937779 493.51772176 204.31216402 532.65954281 185.5 566.25 C184.88769531 567.40886719 184.27539062 568.56773437 183.64453125 569.76171875 C175.87309834 584.07076945 165.78034051 596.570214 154.5 608.25 C153.58039807 609.2327632 152.66113063 610.2158395 151.7421875 611.19921875 C135.19555145 628.62153438 114.1821176 642.22913897 92.47167969 652.32763672 C90.52402704 653.23876001 88.59462695 654.18221537 86.6640625 655.12890625 C45.76166 674.69957658 -0.58119422 682.86577467 -45.5625 684.875 C-46.458479 684.91520264 -47.35445801 684.95540527 -48.27758789 684.99682617 C-65.0243933 685.63289342 -81.76489016 685.25361023 -98.5 684.5 C-99.93882034 684.43564758 -99.93882034 684.43564758 -101.40670776 684.36999512 C-149.38241568 682.16927908 -197.38736735 676.67252653 -244.5 667.25 C-244.5 616.76 -244.5 566.27 -244.5 514.25 C-228.33 518.21 -212.16 522.17 -195.5 526.25 C-159.68176346 533.28180104 -123.98943864 538.48860769 -87.4375 538.4375 C-86.63118134 538.43689575 -85.82486267 538.4362915 -84.99411011 538.43566895 C-50.81998947 538.36650337 -6.79363611 536.41603378 19.5 511.25 C20.06847656 510.70988281 20.63695312 510.16976563 21.22265625 509.61328125 C29.42098156 500.9536691 33.43311524 489.60104055 33.52734375 477.8359375 C32.85597931 462.03305141 26.651364 450.56713597 15.37109375 439.72265625 C7.52900978 432.96886148 -1.3522194 428.12373312 -10.625 423.625 C-11.30876709 423.28911865 -11.99253418 422.9532373 -12.69702148 422.60717773 C-27.24374396 415.81069163 -43.00296629 411.39765883 -58.25976562 406.50488281 C-107.77500607 390.62097561 -156.64124072 372.27555412 -194.5 335.25 C-195.34433594 334.46753906 -196.18867187 333.68507813 -197.05859375 332.87890625 C-229.75793013 301.85377589 -245.47439848 256.92939629 -246.6875 212.61328125 C-247.35436292 171.75151518 -238.87722175 127.96905956 -214.5 94.25 C-213.83871094 93.31929687 -213.17742187 92.38859375 -212.49609375 91.4296875 C-176.61503868 42.26173011 -122.16427661 14.43766092 -62.76367188 4.63330078 C-54.36369432 3.3360274 -45.94898558 2.17786505 -37.5 1.25 C-36.54883301 1.1454248 -35.59766602 1.04084961 -34.61767578 0.93310547 C-23.11688966 -0.13393842 -11.53967806 0.00608883 0 0 Z " fill="#00A0DC" transform="translate(1730.5,1397.75)"/>
<path d="M0 0 C1.40037506 -0.00101212 1.40037506 -0.00101212 2.82904053 -0.00204468 C128.70329704 0.14079704 128.70329704 0.14079704 152.8125 24.25 C152.90959071 26.52823745 152.93436604 28.80955423 152.93275452 31.08985901 C152.93403615 32.1753238 152.93403615 32.1753238 152.93534368 33.28271717 C152.93700062 35.72569346 152.93147365 38.16860222 152.92602539 40.61157227 C152.92574354 42.35553994 152.92590121 44.09950774 152.9264679 45.84347534 C152.92675595 50.59327495 152.92085797 55.34304953 152.91389394 60.09284329 C152.90766169 65.05098422 152.9070567 70.00912566 152.90586853 74.9672699 C152.90275483 84.36309828 152.89454093 93.75891509 152.88451904 103.15473837 C152.87335909 113.84863149 152.86784775 124.54252516 152.86282361 135.23642266 C152.85235834 157.24095491 152.83475816 179.24547673 152.8125 201.25 C149.85058093 200.0762054 146.95948183 198.87741197 144.1171875 197.4375 C115.00159711 182.98005725 83.97629232 173.77321759 51.8125 169.25 C50.99813477 169.13285645 50.18376953 169.01571289 49.34472656 168.89501953 C24.43986891 165.48415889 -2.48131413 165.5201178 -27.1875 170.25 C-28.49533447 170.49943359 -28.49533447 170.49943359 -29.82958984 170.75390625 C-74.65648487 179.67139504 -114.53448008 203.87581987 -140.3359375 241.90234375 C-155.22744208 264.36909197 -164.42376155 289.59127127 -168.1875 316.25 C-168.28321289 316.88647461 -168.37892578 317.52294922 -168.47753906 318.17871094 C-171.13141218 338.20166047 -170.41864682 360.54680636 -166.1875 380.25 C-165.89746094 381.61825928 -165.89746094 381.61825928 -165.6015625 383.01416016 C-158.69400296 414.45528186 -143.91413894 442.7588657 -121.52587891 465.86474609 C-120.37178424 467.05926144 -119.23673142 468.27212082 -118.10546875 469.48828125 C-86.04369207 503.17002138 -37.02465204 516.69269202 8.01171875 518.43359375 C56.52618238 519.2413762 105.79931817 507.90931916 148.73046875 485.24609375 C150.8125 484.25 150.8125 484.25 152.8125 484.25 C152.8125 542.66 152.8125 601.07 152.8125 661.25 C143.01777528 664.31085147 133.37377167 667.2913836 123.4375 669.75 C122.24125 670.04624268 121.045 670.34248535 119.8125 670.64770508 C83.72136536 679.43067265 46.92666464 684.22832544 9.8125 685.25 C9.00200195 685.27336426 8.19150391 685.29672852 7.35644531 685.32080078 C-89.24467157 687.71072446 -184.14723729 652.90228921 -254.1875 586.25 C-261.24732914 579.49456432 -267.95838932 572.64190588 -274.02734375 564.96484375 C-276.25966068 562.15930981 -278.59355484 559.46265564 -280.9375 556.75 C-337.75554096 488.62136924 -357.70019026 395.17884944 -350.66015625 308.421875 C-344.92497912 245.07036407 -322.92741505 182.35750939 -283.1875 132.25 C-282.49398437 131.35667969 -281.80046875 130.46335937 -281.0859375 129.54296875 C-279.1537528 127.08201745 -277.1805709 124.66187754 -275.1875 122.25 C-274.36636719 121.24324219 -273.54523437 120.23648437 -272.69921875 119.19921875 C-261.63439949 105.83618566 -249.4034939 92.8492559 -235.6796875 82.19140625 C-232.98878266 80.09519981 -230.44684955 77.86535053 -227.875 75.625 C-174.48659657 31.23773022 -103.8101334 6.95776842 -35.1875 1.25 C-34.14698486 1.16314941 -33.10646973 1.07629883 -32.03442383 0.98681641 C-21.35497608 0.18280851 -10.70608943 0.00703987 0 0 Z " fill="#00A0DC" transform="translate(2453.1875,1397.75)"/>
<path d="M0 0 C1.1643457 0.24717773 2.32869141 0.49435547 3.52832031 0.74902344 C17.115663 3.78776175 30.24398532 7.84649581 43.6875 11.6875 C43.6875 70.4275 43.6875 129.1675 43.6875 189.6875 C37.4175 186.7175 31.1475 183.7475 24.6875 180.6875 C21.41891235 179.26027132 18.18808009 177.86418807 14.875 176.5625 C14.06281006 176.24176514 13.25062012 175.92103027 12.41381836 175.59057617 C-21.82087806 162.32401968 -57.7213714 155.44278082 -94.4375 155.5 C-95.21484497 155.50093658 -95.99218994 155.50187317 -96.79309082 155.50283813 C-108.07028908 155.53229199 -119.19126085 155.65739343 -130.3125 157.6875 C-131.61622559 157.92146484 -131.61622559 157.92146484 -132.94628906 158.16015625 C-168.19670294 164.69922306 -199.87079607 179.31088196 -226.3125 203.6875 C-227.18003906 204.47253906 -228.04757812 205.25757813 -228.94140625 206.06640625 C-260.85585651 236.34159101 -276.98131788 281.35522675 -278.3125 324.6875 C-279.15537479 374.3245427 -263.04172958 419.0486531 -229.41015625 455.52734375 C-226.2149694 458.8177317 -222.87721577 461.80382287 -219.3125 464.6875 C-218.36761719 465.45835937 -217.42273438 466.22921875 -216.44921875 467.0234375 C-171.89826776 502.70866587 -115.67886198 510.53477255 -60.3125 504.6875 C-27.07995464 500.5751974 4.44746423 490.92290838 34.6875 476.6875 C37.6575 475.3675 40.6275 474.0475 43.6875 472.6875 C43.6875 531.0975 43.6875 589.5075 43.6875 649.6875 C-1.37338314 666.58533118 -51.55873567 671.91153356 -99.3125 673.6875 C-100.27929688 673.72359375 -101.24609375 673.7596875 -102.2421875 673.796875 C-193.65634275 676.68060229 -288.78955394 643.70706809 -355.80078125 581.0390625 C-366.91276805 570.5022303 -378.04869383 559.91639422 -387.3125 547.6875 C-388.33333209 546.38179248 -389.35558814 545.07719757 -390.37890625 543.7734375 C-431.09173529 491.62093572 -453.41756382 429.4125155 -459.3125 363.6875 C-459.38307617 362.94419434 -459.45365234 362.20088867 -459.52636719 361.43505859 C-459.97624698 356.51851517 -460.1937074 351.62061587 -460.3125 346.6875 C-460.33973145 345.60388184 -460.36696289 344.52026367 -460.39501953 343.40380859 C-462.15827535 259.97630239 -439.19447807 169.08630638 -380.47265625 106.98828125 C-378.66597788 105.0639891 -376.9479265 103.10424726 -375.23046875 101.1015625 C-371.01362511 96.26553676 -366.52547899 91.71439898 -361.98925781 87.17895508 C-360.57330053 85.76081716 -359.16551711 84.33453335 -357.7578125 82.90820312 C-351.58936231 76.7268662 -345.17220418 71.0872307 -338.3125 65.6875 C-337.60786621 65.12361572 -336.90323242 64.55973145 -336.17724609 63.97875977 C-260.80428039 3.94211196 -163.64535554 -17.76664226 0 0 Z " fill="#00A0DC" transform="translate(820.3125,1409.3125)"/>
<path d="M0 0 C3.5081122 2.83463507 6.76464012 5.86079592 10 9 C10.92039062 9.81017578 10.92039062 9.81017578 11.859375 10.63671875 C25.85572973 23.38110597 33.49000048 43.49664753 35 62 C35.14644748 66.94273733 35.13618453 71.88468453 35.12863445 76.82911873 C35.12998191 78.3503319 35.13176626 79.87154473 35.13394669 81.39275694 C35.13867397 85.57926673 35.13717589 89.76575477 35.13466892 93.95226563 C35.13303589 98.50462217 35.13717663 103.05697405 35.14057809 107.6093291 C35.14573358 115.59021077 35.14714903 123.57108636 35.14612198 131.55196953 C35.14459841 143.42002373 35.1487558 155.2880712 35.1539966 167.15612409 C35.1636742 189.58534849 35.166481 212.0145706 35.16705366 234.44379683 C35.16751299 251.76375918 35.16957018 269.08372064 35.17275429 286.40368271 C35.17365182 291.38699527 35.17454163 296.37030784 35.17542917 301.35362041 C35.17576074 303.21185939 35.17576074 303.21185939 35.17609901 305.10763855 C35.1822544 339.9601924 35.18619945 374.81274595 35.18575573 409.66530037 C35.18573236 411.63687275 35.18573236 411.63687275 35.18570852 413.64827487 C35.18563374 419.64247764 35.18554697 425.63668041 35.18545464 431.63088319 C35.18541351 434.30382287 35.18537337 436.97676255 35.18533332 439.64970223 C35.18531293 440.9875567 35.18529191 442.32541117 35.18527026 443.66326564 C35.1845901 485.96268848 35.191906 528.26210295 35.20581055 570.56152344 C35.22117261 617.32029197 35.22977695 664.07905537 35.22884732 710.83782661 C35.22877269 715.82302531 35.22872399 720.808224 35.22869301 725.7934227 C35.22868135 727.02092755 35.2286697 728.2484324 35.22865769 729.51313437 C35.22862691 749.27446587 35.23501521 769.03579031 35.24362527 788.79711971 C35.25209868 808.65542655 35.25309416 828.51372304 35.24651595 848.37203069 C35.24281818 860.17126121 35.24465945 871.97046031 35.25445829 883.7696875 C35.26045171 891.65230903 35.25916992 899.53490778 35.25198779 907.41752826 C35.24810091 911.90811598 35.24734617 916.39864286 35.25544515 920.88922633 C35.26275872 924.98020446 35.26074687 929.07107143 35.25152128 933.16204472 C35.24981001 934.62723391 35.2513952 936.09243195 35.25682249 937.55761209 C35.34119698 961.98589154 29.81813549 983.6051643 13 1002 C12.01 1003.09441406 12.01 1003.09441406 11 1004.2109375 C-2.84083717 1018.77730242 -22.86132396 1028.11801419 -43 1029 C-43.78890625 1029.0515625 -44.5778125 1029.103125 -45.390625 1029.15625 C-67.89988706 1029.964966 -89.53195558 1021.08377402 -106 1006 C-119.87628522 992.65900175 -130.10373569 974.15656361 -131.18580119 954.65064339 C-131.25879018 950.66936093 -131.26928507 946.690612 -131.25726891 942.70893574 C-131.25996522 941.16181693 -131.26353471 939.61469944 -131.26789337 938.06758443 C-131.27732928 933.81844716 -131.2743579 929.56939587 -131.26933783 925.32025445 C-131.26606697 920.69653327 -131.27435727 916.07283031 -131.28115618 911.44911498 C-131.29145935 903.34601132 -131.29429942 895.24293156 -131.29224396 887.13982201 C-131.28919482 875.09000316 -131.29751602 863.04021077 -131.30799321 850.99039707 C-131.32734077 828.21736235 -131.33296171 805.44433663 -131.33410732 782.67129467 C-131.3350262 765.08584596 -131.33914176 747.50040079 -131.34550858 729.91495323 C-131.34730365 724.85410601 -131.34908327 719.79325879 -131.35085833 714.73241156 C-131.35130043 713.47429228 -131.35174252 712.216173 -131.35219802 710.91992889 C-131.36450737 675.5286627 -131.37241083 640.13739737 -131.37151146 604.74612904 C-131.3714799 603.39816502 -131.37144843 602.050201 -131.37141704 600.70223698 C-131.37127028 594.61643114 -131.37109394 588.5306253 -131.37090927 582.44481946 C-131.37082703 579.73106136 -131.37074673 577.01730326 -131.37066665 574.30354516 C-131.37062586 572.94526113 -131.37058382 571.58697709 -131.37054053 570.22869306 C-131.36918012 527.28094731 -131.3838139 484.33323455 -131.41162109 441.38549805 C-131.41862329 430.56486171 -131.42556228 419.74422535 -131.43214989 408.92358875 C-131.43255564 408.25729476 -131.43296138 407.59100076 -131.43337943 406.90451604 C-131.45516204 370.91680762 -131.45910377 334.92909704 -131.45769465 298.94138259 C-131.45754539 293.87896359 -131.45744797 288.81654459 -131.45738602 283.7541256 C-131.45736271 282.50761706 -131.4573394 281.26110852 -131.45731538 279.976827 C-131.45725383 259.91266833 -131.47002841 239.8485375 -131.48725055 219.7843871 C-131.50419947 199.62160128 -131.50618664 179.45885622 -131.4930319 159.29606722 C-131.48563793 147.3170381 -131.48931416 135.33813276 -131.50891658 123.35911674 C-131.52090741 115.35544037 -131.51833545 107.35185375 -131.50397559 99.34818152 C-131.49620511 94.78925779 -131.4946824 90.23057376 -131.51089029 85.67166684 C-131.52552974 81.51748045 -131.52148041 77.36373164 -131.50304256 73.2095642 C-131.49962317 71.72266078 -131.50278009 70.23572241 -131.51364497 68.74885476 C-131.6025074 55.70577611 -129.45598937 43.37716851 -123.25 31.75 C-122.90565918 31.08726074 -122.56131836 30.42452148 -122.20654297 29.74169922 C-111.15757326 9.00541091 -94.16602989 -4.84818891 -72 -12 C-47.22346491 -18.93637886 -21.29057966 -14.5825888 0 0 Z " fill="#00A0DC" transform="translate(2878,92)"/>
<path d="M0 0 C2.54073673 2.22024866 4.97711667 4.50555979 7.3828125 6.87109375 C8.08277344 7.55816406 8.78273438 8.24523437 9.50390625 8.953125 C24.67299775 24.89102036 30.70494701 45.50568963 30.64008141 67.03631687 C30.64277698 68.58196756 30.64634605 70.12761693 30.65070587 71.67326382 C30.66015174 75.92299369 30.65716715 80.1726377 30.65215033 84.42237175 C30.64888203 89.04501184 30.65716765 93.66763364 30.66396868 98.29026788 C30.67427604 106.39305393 30.67711119 114.49581607 30.67505646 122.59860802 C30.67200838 134.6480241 30.68032621 146.69741371 30.69080571 158.74682465 C30.7101576 181.51938606 30.71577438 204.29193847 30.71691982 227.06450713 C30.7178386 244.6504479 30.72195368 262.23638513 30.72832108 279.82232475 C30.73011614 284.88285762 30.73189577 289.94339049 30.73367083 295.00392336 C30.73433398 296.89097944 30.73433398 296.89097944 30.73501052 298.81615786 C30.74732078 334.20777853 30.75522324 369.59939834 30.75432396 404.99102116 C30.7542924 406.33912739 30.75426093 407.68723363 30.75422954 409.03533987 C30.75408278 415.12181238 30.75390644 421.20828489 30.75372177 427.2947574 C30.75363953 430.00882084 30.75355923 432.72288427 30.75347915 435.43694771 C30.75343836 436.7953852 30.75339632 438.15382269 30.75335303 439.51226018 C30.75199278 482.45992907 30.7666233 525.40756497 30.79443359 568.35522461 C30.80143581 579.17467012 30.80837481 589.99411567 30.81496239 600.81356144 C30.81536814 601.47978499 30.81577388 602.14600853 30.81619193 602.83242067 C30.8379767 638.81992849 30.84191617 674.80743848 30.84050715 710.79495233 C30.84035789 715.85768569 30.84026047 720.92041904 30.84019852 725.98315239 C30.84017521 727.22974 30.8401519 728.47632761 30.84012788 729.76069061 C30.84006633 749.82377692 30.85283953 769.88683538 30.87006305 789.94991341 C30.88701521 810.11395879 30.88899663 830.2779634 30.8758444 850.44201196 C30.86845237 862.42082569 30.87212084 874.39951564 30.89172908 886.37831626 C30.90372503 894.38316086 30.90114224 902.38791577 30.88678809 910.39275625 C30.87902189 914.95154464 30.87748257 919.51009341 30.89370279 924.06886495 C30.90835744 928.22411137 30.90427539 932.37892066 30.88585506 936.53414825 C30.88243966 938.02031636 30.88557919 939.50651953 30.89645747 940.99265175 C30.98666364 954.21175615 29.00351032 967.41334106 22.6328125 979.18359375 C22.28992187 979.84037109 21.94703125 980.49714844 21.59375 981.17382812 C11.01114009 1000.92932072 -5.92774987 1015.54630534 -27.48828125 1022.08984375 C-50.81282382 1028.75605917 -72.69451886 1025.96370281 -94.22265625 1014.85546875 C-99.53747133 1011.74853428 -104.08367586 1008.01601868 -108.6171875 1003.87109375 C-109.34679687 1003.21109375 -110.07640625 1002.55109375 -110.828125 1001.87109375 C-126.50359132 986.97639778 -135.0919025 966.12815547 -135.70970193 944.65561724 C-135.74804047 940.74599887 -135.75380134 936.83704124 -135.74861526 932.92730713 C-135.75026683 931.40583624 -135.75235398 929.88436578 -135.75483537 928.36289603 C-135.76038698 924.18031334 -135.75973237 919.99775119 -135.75805778 915.81516601 C-135.75732554 911.26528214 -135.76235228 906.71540399 -135.7666328 902.16552258 C-135.77420742 893.14064461 -135.77640558 884.11577256 -135.77696185 875.09089175 C-135.77787602 864.28112386 -135.7845451 853.47136144 -135.79130867 842.6615959 C-135.80736523 816.53586669 -135.81327145 790.41013806 -135.81805742 764.2844048 C-135.82039359 751.9249653 -135.82399626 739.56552627 -135.8277528 727.20608713 C-135.84058766 684.89709148 -135.85130717 642.58809607 -135.8547554 600.27909851 C-135.85497703 597.62342805 -135.85519882 594.96775758 -135.85542075 592.31208712 C-135.85564139 589.65001333 -135.85586188 586.98793954 -135.8560822 584.32586575 C-135.85646936 579.6538173 -135.8568587 574.98176885 -135.85725327 570.3097204 C-135.85736568 568.97254914 -135.8574771 567.63537788 -135.85758752 566.29820662 C-135.86113653 523.35788809 -135.87621375 480.4175863 -135.89952526 437.47727415 C-135.92452433 391.40980255 -135.93891058 345.34234095 -135.94012332 299.27486229 C-135.94029477 294.29102961 -135.9405102 289.30719693 -135.94075775 284.32336426 C-135.94081352 283.09620817 -135.94086929 281.86905209 -135.94092675 280.60470946 C-135.94207729 260.85796823 -135.95309955 241.11124432 -135.96764481 221.36450893 C-135.98201196 201.51635114 -135.98524553 181.66821556 -135.97720483 161.82005399 C-135.97274972 150.03032085 -135.9766045 138.24065939 -135.99244334 126.45093567 C-136.00220002 118.57085249 -136.00100848 110.6908195 -135.99100711 102.81073677 C-135.98562012 98.32405423 -135.98488871 93.83750927 -135.99751583 89.35083818 C-136.00893281 85.25988249 -136.00624572 81.16917512 -135.99284875 77.07822763 C-135.99043612 75.61642953 -135.99292209 74.15461179 -136.00124523 72.6928354 C-136.13224441 48.04232281 -129.86088974 25.61837897 -112.36328125 7.62109375 C-111.00396484 6.25984375 -111.00396484 6.25984375 -109.6171875 4.87109375 C-108.88628906 4.12859375 -108.15539062 3.38609375 -107.40234375 2.62109375 C-78.35847857 -25.07063618 -30.54347107 -24.84506229 0 0 Z " fill="#00A0DC" transform="translate(1062.6171875,95.12890625)"/>
<path d="M0 0 C55.11 0 110.22 0 167 0 C167.02013078 76.83609674 167.02013078 76.83609674 167.02565002 100.60179138 C167.02584736 101.44938459 167.02604469 102.29697781 167.02624801 103.17025566 C167.03286964 131.68841917 167.03812177 160.20658275 167.04234314 188.7247467 C167.04255023 190.12017979 167.04255023 190.12017979 167.04276149 191.54380343 C167.04575404 211.75894661 167.04852427 231.97408982 167.05106533 252.18923306 C167.05231272 262.10198546 167.05360927 272.01473785 167.05493164 281.92749023 C167.0550624 282.91395565 167.05519316 283.90042107 167.05532788 284.91677938 C167.05959319 316.92098477 167.06710745 348.9251884 167.07629722 380.92939273 C167.0857197 413.80356546 167.09188309 446.67773721 167.09391499 479.55191127 C167.09420317 484.18960693 167.0945288 488.82730259 167.09487724 493.46499825 C167.09497838 494.83421609 167.09497838 494.83421609 167.09508156 496.23109489 C167.09626567 510.95573628 167.10091017 525.68037465 167.10683203 540.40501481 C167.11270473 555.18953077 167.11497164 569.97404374 167.11350138 584.75856083 C167.11273779 593.55440154 167.11479528 602.35023134 167.12079754 611.14607009 C167.12452782 617.01040612 167.12467759 622.87473494 167.12183181 628.73907146 C167.12031183 632.08770412 167.12097044 635.43629906 167.12488318 638.78493237 C167.12884247 642.37980284 167.12676633 645.97461812 167.12304783 649.56948757 C167.12698835 651.15384904 167.12698835 651.15384904 167.13100848 652.77021781 C167.12876118 653.71852045 167.12651389 654.6668231 167.1241985 655.64386219 C167.12435448 656.4672839 167.12451046 657.29070562 167.12467116 658.13907951 C167 660 167 660 166 661 C111.22 661 56.44 661 0 661 C0 442.87 0 224.74 0 0 Z " fill="#00A0DC" transform="translate(1094,1410)"/>
<path d="M0 0 C15.86819781 13.7524381 26.03234331 33.25518303 28.22902255 54.18177579 C28.57288335 59.44201223 28.5343478 64.70208364 28.50120544 69.97087097 C28.50510875 71.71623556 28.51075737 73.46159694 28.51797634 75.20695096 C28.53260077 79.95309334 28.52262812 84.69889952 28.50823963 89.44503057 C28.49705918 94.58275936 28.50909556 99.72044369 28.51808167 104.85816956 C28.53196736 114.90240034 28.52449298 124.94650484 28.50940608 134.99072953 C28.49249156 146.70009834 28.49576302 158.40943617 28.49950016 170.11881343 C28.50536999 191.01632748 28.4912406 211.91378116 28.46655273 232.8112793 C28.44262534 253.0674872 28.43555322 273.32361448 28.44604492 293.57983398 C28.45746472 315.66731844 28.45937177 337.75476567 28.44494683 359.84224969 C28.44342107 362.19912199 28.44190071 364.55599429 28.44038582 366.91286659 C28.439628 368.07233636 28.43887019 369.23180614 28.43808941 370.42641136 C28.43335553 378.57984962 28.4351916 386.73327121 28.43945122 394.88670921 C28.44438738 404.82662295 28.43835091 414.76646061 28.41855692 424.70635697 C28.40871361 429.77343775 28.40354779 434.8404029 28.41144943 439.90748978 C28.41854499 444.55281006 28.4116117 449.19789781 28.3938458 453.84318761 C28.38982638 455.51653352 28.39075864 457.18990089 28.39736467 458.8632386 C28.48789906 483.95896067 21.09251403 504.98551627 3.61328125 523.47265625 C-12.70528765 539.2545906 -34.39916109 546.96029327 -56.87792969 547.0390625 C-77.01881706 546.66831446 -96.06771939 538.25883537 -111 525 C-112.02867188 524.11248047 -112.02867188 524.11248047 -113.078125 523.20703125 C-129.54589796 508.00351645 -136.82620858 485.8014714 -138 464 C-138.13544813 458.40178196 -138.13973469 452.80653169 -138.13371277 447.20695496 C-138.13558462 445.54071845 -138.13788681 443.87448239 -138.14057809 442.20824701 C-138.14665607 437.66226749 -138.14656726 433.11630647 -138.14538372 428.57032382 C-138.1451787 423.65472375 -138.15070804 418.73912945 -138.15544128 413.8235321 C-138.16372598 404.20592005 -138.16649512 394.58831412 -138.16705366 384.9706988 C-138.16752978 377.14982546 -138.16958929 369.32895414 -138.17275429 361.50808144 C-138.18155424 339.30957548 -138.1861746 317.11107434 -138.18542381 294.91256662 C-138.18538386 293.71737423 -138.1853439 292.52218183 -138.18530273 291.29077148 C-138.18526185 290.0941116 -138.18522097 288.89745172 -138.18517885 287.66452942 C-138.18477238 268.2701107 -138.19434399 248.87571139 -138.2084411 229.48129829 C-138.22281874 209.54286929 -138.22971055 189.60444976 -138.22884732 169.66601545 C-138.22851588 158.48183039 -138.23124019 147.29766571 -138.24202538 136.11348534 C-138.25114856 126.59223279 -138.25329064 117.07100985 -138.24651595 107.54975482 C-138.24326017 102.69714807 -138.24315994 97.84459805 -138.2518692 92.99199677 C-138.25977672 88.54014292 -138.25825976 84.0883904 -138.24958507 79.6365389 C-138.24805941 78.03571082 -138.24983051 76.43487501 -138.25544515 74.83405604 C-138.34722805 46.78236735 -132.069675 22.46263766 -112 2 C-80.42858293 -27.55202846 -32.54882361 -27.29249185 0 0 Z " fill="#00A0DC" transform="translate(1520,409)"/>
<path d="M0 0 C16.21997279 13.83468268 26.98386355 34.27525425 28.74579334 55.53954601 C29.33540473 63.57332371 29.35330647 71.58379387 29.34465027 79.63288879 C29.34652212 81.2991253 29.34882431 82.96536136 29.35151559 84.63159674 C29.35759357 89.17757626 29.35750476 93.72353728 29.35632122 98.26951993 C29.3561162 103.18512 29.36164554 108.1007143 29.36637878 113.01631165 C29.37466348 122.6339237 29.37743262 132.25152963 29.37799116 141.86914495 C29.37846728 149.69001829 29.38052679 157.51088961 29.38369179 165.33176231 C29.39249174 187.53026827 29.3971121 209.72876941 29.39636131 231.92727713 C29.39632136 233.12246952 29.3962814 234.31766192 29.39624023 235.54907227 C29.39619935 236.74573215 29.39615847 237.94239203 29.39611635 239.17531433 C29.39570988 258.56973305 29.40528149 277.96413236 29.4193786 297.35854546 C29.43375624 317.29697446 29.44064805 337.23539399 29.43978482 357.1738283 C29.43945338 368.35801336 29.44217769 379.54217804 29.45296288 390.72635841 C29.46208606 400.24761096 29.46422814 409.7688339 29.45745345 419.29008893 C29.45419767 424.14269568 29.45409744 428.9952457 29.4628067 433.84784698 C29.47071422 438.29970083 29.46919726 442.75145335 29.46052257 447.20330485 C29.45899691 448.80413293 29.46076801 450.40496874 29.46638265 452.00578771 C29.55069608 477.77457314 24.88333063 500.9369544 7.2109375 520.83984375 C6.32341797 521.86851562 6.32341797 521.86851562 5.41796875 522.91796875 C-8.88946466 538.41514609 -30.69473456 546.84402341 -51.44726562 547.81591797 C-73.48805209 548.3824805 -93.58208173 540.55590226 -110.1953125 526.3125 C-125.55652911 511.66844862 -135.90914674 492.49511507 -136.9765327 471.07830501 C-137.07731024 466.58932999 -137.06568949 462.10052443 -137.05648804 457.61068726 C-137.06022938 455.87264167 -137.06483283 454.13459776 -137.07021868 452.3965565 C-137.08240431 447.64274616 -137.08219347 442.88900643 -137.07982993 438.13518405 C-137.07942064 432.99934232 -137.09047166 427.8635229 -137.09994507 422.72769165 C-137.11653186 412.67365105 -137.12205357 402.61963391 -137.12316982 392.56558077 C-137.12412143 384.38949782 -137.12823736 376.21342258 -137.13457108 368.03734207 C-137.15217742 344.83600707 -137.16141094 321.63469055 -137.15991013 298.43334882 C-137.15983022 297.18352242 -137.1597503 295.93369602 -137.15966797 294.64599609 C-137.15958621 293.39463645 -137.15950445 292.14327681 -137.15942021 290.85399719 C-137.15860756 270.58065568 -137.17774154 250.30738852 -137.2059447 230.03406851 C-137.23470198 209.19733423 -137.24848342 188.36063617 -137.24675715 167.52388155 C-137.24609422 155.83379451 -137.25154413 144.1437854 -137.27311325 132.45371628 C-137.29136251 122.49946631 -137.29564168 112.54532959 -137.2820944 102.5910701 C-137.27558358 97.51754072 -137.27537916 92.44422838 -137.2928009 87.37071991 C-137.30862042 82.71570661 -137.30557817 78.06108086 -137.28823264 73.40607651 C-137.28518216 71.73249169 -137.28872042 70.05887729 -137.29995279 68.38532738 C-137.38775103 54.36219062 -135.91490793 39.98384115 -129.0390625 27.46484375 C-128.52255127 26.48427002 -128.52255127 26.48427002 -127.99560547 25.48388672 C-116.40573967 4.02761402 -98.62114076 -9.87483973 -75.53515625 -17.19140625 C-48.53087142 -24.07797712 -21.65071699 -16.76869257 0 0 Z " fill="#00A0DC" transform="translate(2428.7890625,408.16015625)"/>
<path d="M0 0 C8.72130192 7.27941733 15.92241137 15.01630567 21.43359375 25.03125 C21.8925 25.84078125 22.35140625 26.6503125 22.82421875 27.484375 C28.47535654 38.03770461 31.55106102 49.38648242 31.56781483 61.3438158 C31.57016706 62.06151617 31.57251929 62.77921654 31.5749428 63.5186654 C31.58160097 65.92414615 31.58117554 68.32957248 31.58076477 70.73506165 C31.58406539 72.47704039 31.58779138 74.21901837 31.59190625 75.96099538 C31.60191205 80.7488873 31.60564077 85.53676668 31.60829556 90.32466757 C31.61220289 95.48854009 31.62178102 100.65240272 31.63050842 105.81626892 C31.65026199 118.28855988 31.66033821 130.76085164 31.66923621 143.23315433 C31.67362143 149.11001325 31.67898768 154.98687127 31.68422508 160.86372948 C31.7012372 180.40629673 31.71573024 199.94886343 31.72297382 219.49143696 C31.72488365 224.56175551 31.72680399 229.63207405 31.72875977 234.70239258 C31.72924351 235.96256095 31.72972725 237.22272933 31.73022565 238.52108463 C31.7385217 258.9240707 31.76385154 279.32699806 31.79634044 299.72995851 C31.82944135 320.68857172 31.84742538 341.64715513 31.85061806 362.60579461 C31.85278048 374.36861988 31.86148976 386.13135957 31.88707924 397.89415932 C31.90882774 407.91440044 31.91681629 417.93453519 31.90711246 427.95479725 C31.90257964 433.06272529 31.90439455 438.17043404 31.9238739 443.27833176 C31.94159157 447.96499404 31.94043862 452.65127846 31.92497661 457.33794525 C31.92261351 459.02312242 31.92685576 460.70832635 31.93880526 462.39346281 C32.10386988 487.23271314 24.3515811 508.594786 6.9609375 526.58984375 C-10.2833661 542.79566314 -32.10288917 550.46316012 -55.56640625 550.03125 C-75.0392474 548.88819014 -93.04746923 540.89972171 -107.56640625 528.03125 C-108.48486328 527.23654297 -108.48486328 527.23654297 -109.421875 526.42578125 C-123.98715478 512.92706658 -133.20660114 492.38406719 -134.023047 472.64042991 C-134.10569004 468.77348255 -134.09676187 464.90978471 -134.07434082 461.04223633 C-134.07896092 459.28266035 -134.08532121 457.52308824 -134.0932498 455.76352406 C-134.10981406 450.97338584 -134.10175607 446.18356994 -134.08930492 441.39343119 C-134.08020344 436.20996926 -134.0942493 431.02656031 -134.10522461 425.84310913 C-134.12296027 415.7065013 -134.11919197 405.5700123 -134.10757405 395.43339992 C-134.09852045 387.19115525 -134.09732404 378.94894377 -134.10166931 370.70669556 C-134.10228224 369.53117907 -134.10289518 368.35566259 -134.10352668 367.1445244 C-134.10480565 364.75607863 -134.10610251 362.36763288 -134.10741705 359.97918713 C-134.11880834 337.61137046 -134.10573192 315.24361949 -134.08421558 292.8758136 C-134.06634594 273.70591316 -134.06945046 254.53610963 -134.08789062 235.36621094 C-134.10932298 213.0754509 -134.11770984 190.78474836 -134.10544157 168.49397945 C-134.10416745 166.11458779 -134.10290996 163.73519612 -134.10166931 161.35580444 C-134.10074366 159.59999478 -134.10074366 159.59999478 -134.09979931 157.80871421 C-134.09635351 149.58157865 -134.10215812 141.35447974 -134.11158752 133.12734985 C-134.12283518 123.0937634 -134.11970938 113.06030204 -134.09846455 103.02672982 C-134.08799135 97.91279359 -134.08376836 92.79906551 -134.09706116 87.68513107 C-134.10906855 82.994582 -134.10228637 78.30443204 -134.08115095 73.61391866 C-134.07671999 71.92637502 -134.07887116 70.23879695 -134.0886541 68.55127585 C-134.16325247 54.60224493 -132.50633272 41.08768956 -125.75390625 28.59375 C-125.41061279 27.9332666 -125.06731934 27.2727832 -124.71362305 26.59228516 C-121.87353938 21.27537675 -118.53001404 16.57381173 -114.56640625 12.03125 C-113.80199219 11.0721875 -113.03757812 10.113125 -112.25 9.125 C-84.4889346 -24.11748333 -33.10055983 -24.56028048 0 0 Z " fill="#00A0DC" transform="translate(606.56640625,405.96875)"/>
<path d="M0 0 C2.38421171 1.8880958 4.66003629 3.84723508 6.921875 5.87890625 C7.953125 6.66265625 8.984375 7.44640625 10.046875 8.25390625 C23.58999496 20.61936361 31.95320591 37.90947502 34.921875 55.87890625 C35.01484026 58.28537553 35.05274018 60.69419031 35.05609608 63.10245228 C35.05844831 63.82267515 35.06080054 64.54289801 35.06322405 65.28494582 C35.06989568 67.70501913 35.06945638 70.12503852 35.06904602 72.54512024 C35.07234581 74.29519822 35.07607162 76.04527544 35.0801875 77.79535168 C35.0902029 82.61023671 35.09392357 87.42510926 35.09657681 92.24000323 C35.10048132 97.43114096 35.11005968 102.62226883 35.11878967 107.81340027 C35.13855178 120.35432814 35.14862079 132.89525681 35.15751746 145.43619636 C35.16190151 151.34406845 35.16726808 157.25193964 35.17250633 163.15981102 C35.18951972 182.8035644 35.20401281 202.44731723 35.21125507 222.09107685 C35.21316493 227.18872898 35.21508527 232.2863811 35.21704102 237.3840332 C35.21752476 238.65101062 35.2180085 239.91798804 35.2185069 241.22335871 C35.22680309 261.73701472 35.25213261 282.25061234 35.28462169 302.76424287 C35.31771653 323.83243079 35.3357061 344.90058906 35.33889931 365.96880311 C35.34106235 377.7947684 35.34978071 389.62064859 35.37536049 401.44658852 C35.39710073 411.52068109 35.4051016 421.59466789 35.39539371 431.66878126 C35.39085843 436.80493171 35.39269023 441.94086407 35.41215515 447.07698441 C35.42985516 451.78830601 35.42873394 456.49925153 35.41325786 461.21057751 C35.41089211 462.9058609 35.41515111 464.6011708 35.42708651 466.29641382 C35.51887276 480.20620889 33.91598286 493.73125575 27.171875 506.19140625 C26.82898437 506.84818359 26.48609375 507.50496094 26.1328125 508.18164062 C15.38061399 528.25371923 -1.19620142 541.74796102 -22.6328125 549.09765625 C-44.79744067 555.65801131 -67.00193105 553.12938447 -87.703125 542.75390625 C-107.9358317 531.27047812 -121.80576012 512.66950624 -128.16796875 490.47265625 C-129.61693356 484.75142182 -130.20407612 479.4683911 -130.21234608 473.56354713 C-130.21469831 472.84554717 -130.21705054 472.12754721 -130.21947405 471.38778967 C-130.22613223 468.98129961 -130.22570679 466.57486395 -130.22529602 464.16836548 C-130.22859664 462.42567404 -130.23232262 460.68298337 -130.2364375 458.94029367 C-130.24644328 454.15047114 -130.25017201 449.36066113 -130.25282681 444.57082963 C-130.25673412 439.40493123 -130.26631221 434.23904271 -130.27503967 429.07315063 C-130.29479274 416.59641558 -130.30486915 404.11967973 -130.31376746 391.64293295 C-130.31815254 385.76445085 -130.32351881 379.88596964 -130.32875633 374.00748825 C-130.34576799 354.46062978 -130.36026133 334.91377186 -130.36750507 315.36690712 C-130.36941491 310.29554875 -130.37133525 305.22419038 -130.37329102 300.15283203 C-130.37377476 298.89240134 -130.3742585 297.63197066 -130.3747569 296.3333451 C-130.38305408 275.92321696 -130.40838605 255.51314748 -130.44087169 235.10304494 C-130.47396674 214.1387865 -130.49195608 193.17455785 -130.49514931 172.21027315 C-130.49731222 160.44356738 -130.50602867 148.67694715 -130.53161049 136.91026688 C-130.55335092 126.88743532 -130.56135147 116.86471009 -130.55164371 106.84185763 C-130.54710863 101.73202826 -130.54893907 96.62241811 -130.56840515 91.51261902 C-130.58610643 86.82539218 -130.58498294 82.13854335 -130.56950786 77.45131211 C-130.56714231 75.76480685 -130.57140003 74.07827493 -130.58333651 72.39181025 C-130.68394647 57.22505202 -128.30182147 43.46030048 -121.078125 29.87890625 C-120.41683594 28.62013672 -120.41683594 28.62013672 -119.7421875 27.3359375 C-116.02275984 20.70878048 -111.311651 15.35326707 -106.078125 9.87890625 C-105.52511719 9.25113281 -104.97210937 8.62335938 -104.40234375 7.9765625 C-78.38285125 -20.49638091 -30.36971199 -20.9273523 0 0 Z " fill="#00A0DC" transform="translate(3332.078125,403.12109375)"/>
<path d="M0 0 C5.95929543 5.85607438 10.87029168 11.87256779 14.81640625 19.28710938 C15.61304688 20.76050781 15.61304688 20.76050781 16.42578125 22.26367188 C23.96632259 37.30742515 25.41410576 52.27096673 25.31811523 68.8034668 C25.32190922 70.69456889 25.32741807 72.58566818 25.33448792 74.47676086 C25.34831628 79.55929761 25.33736375 84.64149105 25.3207767 89.72400832 C25.30680736 95.0718923 25.31339946 100.41975872 25.31690979 105.76765442 C25.31960189 114.7405849 25.30622033 123.71338084 25.28295898 132.6862793 C25.25633128 143.02867662 25.2546137 153.37084953 25.26634735 163.71326941 C25.27716098 173.70803303 25.27091155 183.70271627 25.25679207 193.69747353 C25.25106576 197.93116491 25.25108827 202.16479682 25.25585747 206.398489 C25.26066273 211.38999209 25.25038 216.38125229 25.22890282 221.37270927 C25.2233837 223.19386221 25.22282422 225.01503873 25.22785568 226.83619308 C25.28945704 252.34995618 18.47085746 273.69670403 0.640625 292.61914062 C-13.13765853 305.63514014 -31.99566805 315.45285174 -51.18359375 316.28710938 C-52.6840625 316.36445312 -52.6840625 316.36445312 -54.21484375 316.44335938 C-77.88017279 317.08296286 -99.89536547 308.5881621 -117.18359375 292.28710938 C-125.6071531 283.26622092 -131.98748118 273.8575134 -136.43359375 262.34960938 C-136.80339355 261.40166504 -136.80339355 261.40166504 -137.18066406 260.43457031 C-141.49991859 248.65967312 -141.48199817 236.86291752 -141.47412109 224.49951172 C-141.48011471 222.61416358 -141.48692216 220.72881788 -141.49447632 218.84347534 C-141.51206065 213.74809319 -141.51682855 208.65277832 -141.51810789 203.55736876 C-141.51953458 200.36560725 -141.52381398 197.17386256 -141.52910233 193.98210526 C-141.54757899 182.82318293 -141.55577608 171.66430821 -141.55419922 160.50537109 C-141.55299912 150.14268945 -141.57408183 139.78021652 -141.60568655 129.41758764 C-141.63193664 120.48892637 -141.64256284 111.5603329 -141.6412884 102.6316334 C-141.64078125 97.31311796 -141.64632682 91.99478811 -141.6676445 86.67631149 C-141.68717417 81.66762317 -141.68705183 76.65929468 -141.67261124 71.6505928 C-141.67054003 69.82585365 -141.67512155 68.00109108 -141.68733215 66.1763916 C-141.78018014 51.32422149 -140.22778272 36.82069744 -133.43359375 23.34960938 C-133.08852783 22.64562012 -132.74346191 21.94163086 -132.38793945 21.21630859 C-129.36234222 15.25028418 -125.76150176 10.17733427 -121.18359375 5.28710938 C-120.37277344 4.38605469 -119.56195312 3.485 -118.7265625 2.55664062 C-103.74311339 -13.34819188 -84.14001457 -22.29751756 -62.26953125 -23.64648438 C-38.7317844 -24.15299285 -17.07213414 -16.16032697 0 0 Z " fill="#00A0DC" transform="translate(1978.18359375,639.712890625)"/>
<path d="M0 0 C10.04935441 7.90962403 17.41803144 17.45435293 23.3125 28.75 C23.62590332 29.33209229 23.93930664 29.91418457 24.26220703 30.51391602 C30.92497203 43.97298619 31.58798706 58.06079083 31.51757812 72.73828125 C31.52301243 74.66540044 31.53014236 76.59251548 31.53881836 78.5196228 C31.55689917 83.70564026 31.55004778 88.89133588 31.53730202 94.07735825 C31.52709467 99.53375799 31.53658899 104.99013225 31.54284668 110.4465332 C31.55010073 119.60535573 31.54059448 128.76404875 31.52148438 137.92285156 C31.49972004 148.47483227 31.506773 159.02650369 31.52879 169.57847691 C31.54700814 178.67793942 31.54947109 187.77730944 31.53903532 196.87678432 C31.53283553 202.29409788 31.53186709 207.71126661 31.54518127 213.12857056 C31.55683301 218.22435431 31.54854572 223.31974372 31.52560425 228.41548538 C31.52036654 230.27288792 31.52174489 232.13032431 31.53065491 233.98771286 C31.59347378 248.42678893 30.26608682 262.34985178 23.25 275.3125 C22.90710937 275.96927734 22.56421875 276.62605469 22.2109375 277.30273438 C11.44782076 297.39519501 -5.10023421 310.80163493 -26.51953125 318.21875 C-48.7253484 324.84029292 -71.12490687 322.27001791 -91.75 311.75 C-111.38575844 300.60863216 -125.17304261 282.73740815 -131.85566807 261.24847794 C-134.41403791 251.37157064 -134.4315219 241.83427362 -134.40405273 231.70996094 C-134.40976617 229.79476018 -134.41673417 227.87956281 -134.42485046 225.96437073 C-134.44269224 220.79675883 -134.44163013 215.62931759 -134.43590808 210.46168423 C-134.43280229 206.13069495 -134.43892426 201.79973779 -134.44494683 197.4687531 C-134.45896182 187.24102269 -134.45745682 177.01337586 -134.44604492 166.78564453 C-134.43457467 156.27408618 -134.44862802 145.7627833 -134.4754414 135.25125861 C-134.49767805 126.19091501 -134.50421766 117.13065114 -134.49836498 108.07028222 C-134.49501225 102.674679 -134.49729726 97.27923935 -134.51461601 91.88365936 C-134.53020993 86.80434356 -134.52599313 81.72540265 -134.50731087 76.646101 C-134.50365875 74.79556532 -134.50663316 72.94500109 -134.51719666 71.09449196 C-134.59441681 56.43310449 -133.38384819 41.62434679 -126.1875 28.5 C-125.84275635 27.84257813 -125.4980127 27.18515625 -125.14282227 26.5078125 C-122.29028299 21.21220187 -118.9621064 16.5281216 -115 12 C-114.48179687 11.34 -113.96359375 10.68 -113.4296875 10 C-85.79909753 -24.17116441 -33.40359952 -25.01870683 0 0 Z " fill="#00A0DC" transform="translate(3791,634)"/>
<path d="M0 0 C10.02878856 7.8934371 17.3979425 17.43143619 23.3125 28.6875 C23.62590332 29.26121338 23.93930664 29.83492676 24.26220703 30.42602539 C31.01304545 43.99084476 31.58917733 58.94445626 31.51757812 73.76000977 C31.52301375 75.67742439 31.5301444 77.59483484 31.53881836 79.51223755 C31.55688227 84.66720583 31.55005528 89.82184995 31.53730202 94.97682309 C31.52708719 100.40252047 31.53659088 105.82819238 31.54284668 111.25389099 C31.55009798 120.35965902 31.54060115 129.46529673 31.52148438 138.57104492 C31.49971402 149.06113103 31.50677849 159.55090609 31.52879 170.04098469 C31.54700823 179.08951252 31.54947124 188.13794735 31.53903532 197.18648762 C31.53283641 202.57248743 31.53186472 207.95834159 31.54518127 213.34433174 C31.55683342 218.40976091 31.54854502 223.47479338 31.52560425 228.54018021 C31.52036703 230.38629565 31.52174401 232.23244516 31.53065491 234.07854652 C31.59353413 248.4422511 30.25938353 262.3409854 23.3125 275.25 C22.9729126 275.90347412 22.6333252 276.55694824 22.28344727 277.23022461 C11.52154236 297.301312 -5.11640165 310.80723343 -26.51953125 318.21875 C-48.7253484 324.84029292 -71.12490687 322.27001791 -91.75 311.75 C-112.13381062 300.17339275 -125.49107871 282.27665698 -132 260 C-133.54721097 254.10210595 -134.29314787 248.59841895 -134.26742554 242.50852966 C-134.27195665 241.70358553 -134.27648776 240.89864139 -134.28115618 240.069305 C-134.29371759 237.3982755 -134.29218518 234.72745207 -134.29052734 232.05639648 C-134.29651791 230.13031251 -134.30332467 228.20423093 -134.31088257 226.27815247 C-134.32849971 221.06288848 -134.33323625 215.84769019 -134.33451414 210.63239932 C-134.33593916 207.36728728 -134.34021549 204.10219175 -134.34550858 200.83708382 C-134.36399737 189.42645337 -134.37218096 178.01586954 -134.37060547 166.60522461 C-134.36940562 156.00171896 -134.39048025 145.39841736 -134.4220928 134.7949633 C-134.44833073 125.66593523 -134.45896956 116.53697347 -134.45769465 107.40790802 C-134.45718706 101.96699438 -134.4627568 96.52626206 -134.48405075 91.08538628 C-134.50355919 85.9610007 -134.50347219 80.836967 -134.48901749 75.71256828 C-134.48694357 73.84387186 -134.4915445 71.97515269 -134.5037384 70.1064949 C-134.59244643 55.55659893 -133.25012748 41.62738559 -126.1875 28.5625 C-125.84275635 27.90056641 -125.4980127 27.23863281 -125.14282227 26.55664062 C-122.29577379 21.2346642 -118.97611254 16.54412862 -115 12 C-114.48179688 11.34 -113.96359375 10.68 -113.4296875 10 C-85.79909753 -24.17116441 -33.40359952 -25.01870683 0 0 Z " fill="#00A0DC" transform="translate(152,634)"/>
</svg>
