<?xml version="1.0" encoding="UTF-8"?>
<svg version="1.1" xmlns="http://www.w3.org/2000/svg" width="148" height="88">
<path d="M0 0 C4.38846842 2.67204843 7.83100993 5.63302095 9.09375 10.80859375 C9.68982021 15.36717619 10.08488085 19.38018414 7.5 23.375 C5.87373596 24.75732443 4.2074998 26.09437515 2.5 27.375 C0.20986347 30.8102048 0.32157027 32.360331 0.5 36.375 C1.0878125 34.51875 1.0878125 34.51875 1.6875 32.625 C3.17536974 28.6267908 4.92318 26.7893535 8.5 24.375 C8.90992187 23.89289062 9.31984375 23.41078125 9.7421875 22.9140625 C16.80197156 16.73282935 31.53091714 15.29428328 40.4375 13.125 C41.4908252 12.86678467 42.54415039 12.60856934 43.62939453 12.3425293 C49.5918493 10.9257504 55.39388787 9.90984194 61.5 9.375 C57.25479287 15.50582097 52.32895487 16.77702804 45.5 19.375 C50.12 19.375 54.74 19.375 59.5 19.375 C55.10546875 24.84375 55.10546875 24.84375 53.5 26.375 C52.51 26.375 51.52 26.375 50.5 26.375 C50.45875 27.2825 50.4175 28.19 50.375 29.125 C49.5 32.375 49.5 32.375 46.875 34.625 C43.36318749 36.44593982 40.32766722 37.45635987 36.5 38.375 C36.5 39.365 36.5 40.355 36.5 41.375 C25.6977864 47.71091375 13.58539603 51.5692124 1.05078125 49.63671875 C-1.70436783 49.35403117 -3.81323049 49.77592301 -6.5 50.375 C-8.17004829 50.05904492 -9.83637583 49.72320041 -11.5 49.375 C-12.85394734 49.35062895 -14.20852137 49.35243369 -15.5625 49.375 C-18.61466537 49.375 -20.64651028 49.17397712 -23.5 48.375 C-23.83 48.705 -24.16 49.035 -24.5 49.375 C-35.43936054 49.89592193 -47.85472362 47.83927675 -57.5 42.375 C-60.5 38.94642857 -60.5 38.94642857 -60.5 36.375 C-61.345625 36.33375 -62.19125 36.2925 -63.0625 36.25 C-67.55987472 35.10521371 -70.40843359 32.79871818 -73.5 29.375 C-73.83 28.385 -74.16 27.395 -74.5 26.375 C-75.49 25.735625 -76.48 25.09625 -77.5 24.4375 C-80.5 22.375 -80.5 22.375 -81.1875 20.24609375 C-81.290625 19.62863281 -81.39375 19.01117187 -81.5 18.375 C-78.16666667 18.375 -74.83333333 18.375 -71.5 18.375 C-72.19867188 17.97667969 -72.89734375 17.57835938 -73.6171875 17.16796875 C-74.98230469 16.37326172 -74.98230469 16.37326172 -76.375 15.5625 C-77.27992187 15.04042969 -78.18484375 14.51835937 -79.1171875 13.98046875 C-81.5 12.375 -81.5 12.375 -83.5 9.375 C-66.93882837 10.75509764 -50.18914654 14.9933516 -34.5 20.375 C-34.5 21.035 -34.5 21.695 -34.5 22.375 C-33.63375 22.4678125 -33.63375 22.4678125 -32.75 22.5625 C-29.61742429 23.6937079 -28.46539149 25.75447801 -26.5 28.375 C-25.84 28.705 -25.18 29.035 -24.5 29.375 C-23.77306096 31.35388961 -23.10183749 33.35454558 -22.5 35.375 C-23.04488575 31.14456756 -24.44751135 28.69663966 -27 25.3125 C-29.80888463 21.57691368 -31.61689571 19.01002411 -31.40625 14.26171875 C-30.24608216 7.98119479 -27.69549402 4.13366401 -22.5 0.375 C-15.80618768 -2.97190616 -6.82826168 -3.12149105 0 0 Z M-65.5 20.375 C-65.5 20.705 -65.5 21.035 -65.5 21.375 C-63.85 21.375 -62.2 21.375 -60.5 21.375 C-60.5 21.045 -60.5 20.715 -60.5 20.375 C-62.15 20.375 -63.8 20.375 -65.5 20.375 Z M40.5 20.375 C39.84 21.035 39.18 21.695 38.5 22.375 C40.48 22.045 42.46 21.715 44.5 21.375 C42.60820797 20.6935177 42.60820797 20.6935177 40.5 20.375 Z M31.5 22.375 C31.17 23.035 30.84 23.695 30.5 24.375 C33.965 23.88 33.965 23.88 37.5 23.375 C37.5 23.045 37.5 22.715 37.5 22.375 C35.52 22.375 33.54 22.375 31.5 22.375 Z M-8.5 25.375 C-8.17 26.695 -7.84 28.015 -7.5 29.375 C-7.17 28.715 -6.84 28.055 -6.5 27.375 C-7.16 26.715 -7.82 26.055 -8.5 25.375 Z M-33.5 39.375 C-32.015 40.365 -32.015 40.365 -30.5 41.375 C-30.5 40.715 -30.5 40.055 -30.5 39.375 C-31.49 39.375 -32.48 39.375 -33.5 39.375 Z " fill="#DBEDE8" transform="translate(84.5,11.625)"/>
<path d="M0 0 C4.38846842 2.67204843 7.83100993 5.63302095 9.09375 10.80859375 C9.68660439 15.34258247 10.19654794 19.49197096 7.5 23.375 C6.16290694 24.3570144 4.80641643 25.31285649 3.4375 26.25 C0.05355654 28.60165746 -0.39678586 28.95526251 -1.4375 33.1875 C-1.458125 34.239375 -1.47875 35.29125 -1.5 36.375 C-3.3855253 38.2605253 -6.07768831 37.50746689 -8.58203125 37.51171875 C-9.37996094 37.50785156 -10.17789063 37.50398438 -11 37.5 C-12.19689453 37.50580078 -12.19689453 37.50580078 -13.41796875 37.51171875 C-19.37339233 37.50160767 -19.37339233 37.50160767 -20.5 36.375 C-20.54080783 34.37541636 -20.54254356 32.37454746 -20.5 30.375 C-21.49 30.375 -22.48 30.375 -23.5 30.375 C-25.2890625 28.328125 -25.2890625 28.328125 -27.125 25.625 C-27.73601563 24.74328125 -28.34703125 23.8615625 -28.9765625 22.953125 C-31.77531911 18.21676767 -31.69928741 14.94527668 -30.42578125 9.6953125 C-28.50081866 4.87072272 -24.75353644 1.50176822 -20.1640625 -0.79296875 C-13.82136101 -2.77390045 -6.09628886 -2.78687491 0 0 Z M-8.5 25.375 C-8.17 26.695 -7.84 28.015 -7.5 29.375 C-7.17 28.715 -6.84 28.055 -6.5 27.375 C-7.16 26.715 -7.82 26.055 -8.5 25.375 Z " fill="#24A683" transform="translate(84.5,11.625)"/>
<path d="M0 0 C6.45852547 1.20046942 12.71289706 3.1200786 19 5 C19.66547852 5.1964209 20.33095703 5.3928418 21.01660156 5.59521484 C23.01666397 6.19252947 25.00868625 6.81170118 27 7.4375 C28.19625 7.80746094 29.3925 8.17742188 30.625 8.55859375 C36.68700625 11.14757559 40.2628976 14.85093895 43.5 20.5 C46.22847138 25.0028893 48.71648855 27.97019922 53 31 C51.42739851 32.86838861 50.53070393 33.89906858 48.08984375 34.36328125 C37.75253276 34.11938825 26.10030108 32.15553537 17 27 C14 23.57142857 14 23.57142857 14 21 C12.7315625 20.938125 12.7315625 20.938125 11.4375 20.875 C6.94012528 19.73021371 4.09156641 17.42371818 1 14 C0.67 13.01 0.34 12.02 0 11 C-0.99 10.360625 -1.98 9.72125 -3 9.0625 C-6 7 -6 7 -6.6875 4.87109375 C-6.790625 4.25363281 -6.89375 3.63617187 -7 3 C-3.66666667 3 -0.33333333 3 3 3 C2.01 2.01 1.02 1.02 0 0 Z M9 5 C9 5.33 9 5.66 9 6 C10.65 6 12.3 6 14 6 C14 5.67 14 5.34 14 5 C12.35 5 10.7 5 9 5 Z M41 24 C42.485 24.99 42.485 24.99 44 26 C44 25.34 44 24.68 44 24 C43.01 24 42.02 24 41 24 Z " fill="#B8DFD4" transform="translate(10,27)"/>
<path d="M0 0 C16.56117163 1.38009764 33.31085346 5.6183516 49 11 C49 11.66 49 12.32 49 13 C49.5775 13.061875 50.155 13.12375 50.75 13.1875 C53.88257571 14.3187079 55.03460851 16.37947801 57 19 C57.66 19.33 58.32 19.66 59 20 C59.4921875 21.85546875 59.4921875 21.85546875 59.875 24.1875 C61.1897215 30.66866613 64.86020647 34.97310785 69 40 C66.69 39.67 64.38 39.34 62 39 C62 38.34 62 37.68 62 37 C61.40960938 36.75507812 60.81921875 36.51015625 60.2109375 36.2578125 C57.62122294 34.78451199 56.39579811 33.26100497 54.625 30.875 C53.70460938 29.67230469 53.70460938 29.67230469 52.765625 28.4453125 C51 26 51 26 49.671875 23.8046875 C43.52483626 14.06570443 31.11001173 12.66255474 20.66015625 9.9609375 C17.20906214 9.05488718 13.78613743 8.10886117 10.375 7.0625 C9.45460938 6.78535156 8.53421875 6.50820313 7.5859375 6.22265625 C4.36363378 4.6991199 2.38659288 2.61491314 0 0 Z " fill="#38AA8A" transform="translate(1,21)"/>
<path d="M0 0 C-3.97300946 4.25679585 -7.30875709 5.96059634 -12.9375 7.25 C-18.91813029 8.71193185 -24.87297497 10.25367438 -30.8125 11.875 C-31.70767334 12.10735352 -32.60284668 12.33970703 -33.52514648 12.57910156 C-40.38528485 14.47940273 -45.68248261 16.84100309 -49.96875 22.68359375 C-50.4740625 23.59238281 -50.979375 24.50117187 -51.5 25.4375 C-54.32392587 30.12926922 -57.17970998 34.21824673 -62 37 C-64.7109375 37.6484375 -64.7109375 37.6484375 -67 38 C-66.59007813 37.45472656 -66.18015625 36.90945312 -65.7578125 36.34765625 C-62.92111028 32.37763041 -60.76243019 29.10973726 -59.9375 24.25 C-59.17481908 19.82028759 -57.49562694 17.91302245 -54 15 C-53.42378906 14.34386719 -52.84757812 13.68773437 -52.25390625 13.01171875 C-49.40511526 10.46903702 -46.97011526 9.72111849 -43.3125 8.625 C-42.63840088 8.42293945 -41.96430176 8.22087891 -41.26977539 8.01269531 C-5.0718058 -2.5359029 -5.0718058 -2.5359029 0 0 Z " fill="#6CBDA5" transform="translate(146,22)"/>
<path d="M0 0 C3.69623382 2.25056097 6.21945161 4.64319355 8.5 8.375 C9.1692152 11.71108773 9.42612475 14.97673831 9.5 18.375 C8.51 18.87 8.51 18.87 7.5 19.375 C7.005 16.405 7.005 16.405 6.5 13.375 C6.17 13.375 5.84 13.375 5.5 13.375 C5.438125 12.59125 5.37625 11.8075 5.3125 11 C5.044375 10.13375 4.77625 9.2675 4.5 8.375 C2.05711372 7.06431667 2.05711372 7.06431667 -0.5 6.375 C-0.83 6.045 -1.16 5.715 -1.5 5.375 C-2.098125 5.87 -2.69625 6.365 -3.3125 6.875 C-5.5 8.375 -5.5 8.375 -8.5 8.375 C-8.83 9.365 -9.16 10.355 -9.5 11.375 C-8.84 11.375 -8.18 11.375 -7.5 11.375 C-7.17 10.715 -6.84 10.055 -6.5 9.375 C-3.5 9.375 -3.5 9.375 -1.5 10.375 C-0.875 12.9375 -0.875 12.9375 -0.5 15.375 C-1.49 15.705 -2.48 16.035 -3.5 16.375 C-3.5 17.035 -3.5 17.695 -3.5 18.375 C-1.85 19.035 -0.2 19.695 1.5 20.375 C1.17 21.035 0.84 21.695 0.5 22.375 C-3.32097239 21.84430939 -5.56171403 20.87798434 -8.5 18.375 C-7.49806563 22.16803725 -6.68975773 25.09036341 -4.5 28.375 C-6.975 29.86 -6.975 29.86 -9.5 31.375 C-10.49 28.075 -11.48 24.775 -12.5 21.375 C-12.83 21.375 -13.16 21.375 -13.5 21.375 C-13.5 18.735 -13.5 16.095 -13.5 13.375 C-14.49 13.705 -15.48 14.035 -16.5 14.375 C-17.53316488 17.16672239 -17.53316488 17.16672239 -18.1875 20.4375 C-18.43886719 21.54222656 -18.69023438 22.64695312 -18.94921875 23.78515625 C-19.13097656 24.63980469 -19.31273438 25.49445312 -19.5 26.375 C-23.46875 22.84375 -23.46875 22.84375 -23.75 18.625 C-23.6675 17.5525 -23.585 16.48 -23.5 15.375 C-22.84 15.375 -22.18 15.375 -21.5 15.375 C-21.83 14.055 -22.16 12.735 -22.5 11.375 C-20.85 10.715 -19.2 10.055 -17.5 9.375 C-17.83 8.715 -18.16 8.055 -18.5 7.375 C-16.85 7.045 -15.2 6.715 -13.5 6.375 C-13.5 5.385 -13.5 4.395 -13.5 3.375 C-12.84 3.375 -12.18 3.375 -11.5 3.375 C-11.17 4.035 -10.84 4.695 -10.5 5.375 C-7.45613276 5.45726668 -5.42824652 5.35108217 -2.5 4.375 C-2.5 3.715 -2.5 3.055 -2.5 2.375 C-10.49976044 2.17016972 -17.76134446 2.24019847 -25.5 4.375 C-20.36936574 -3.72600147 -8.10982087 -3.70734668 0 0 Z M-8.5 25.375 C-8.17 26.695 -7.84 28.015 -7.5 29.375 C-7.17 28.715 -6.84 28.055 -6.5 27.375 C-7.16 26.715 -7.82 26.055 -8.5 25.375 Z " fill="#2DA786" transform="translate(84.5,11.625)"/>
<path d="M0 0 C0 0.66 0 1.32 0 2 C-3.22791555 4.1519437 -4.28400809 4.20086443 -8 4 C-8.33 3.01 -8.66 2.02 -9 1 C-9.66 1 -10.32 1 -11 1 C-11 1.99 -11 2.98 -11 4 C-13.54399967 6.32278231 -15.90623941 8.45311971 -19 10 C-19 10.99 -19 11.98 -19 13 C-19.66 13 -20.32 13 -21 13 C-20.69201674 14.48011371 -20.378482 15.95907325 -20.0625 17.4375 C-19.88847656 18.26121094 -19.71445312 19.08492187 -19.53515625 19.93359375 C-19.19247006 21.97661204 -19.19247006 21.97661204 -18 23 C-16.02 17.555 -16.02 17.555 -14 12 C-11.88873057 16.22253885 -11.7828003 18.14001523 -11.875 22.75 C-11.89304687 23.92046875 -11.91109375 25.0909375 -11.9296875 26.296875 C-11.95289062 27.18890625 -11.97609375 28.0809375 -12 29 C-14.99332739 28.0022242 -15.94766315 27.2477975 -18 25 C-17.67 25.66 -17.34 26.32 -17 27 C-16.95977609 29.3329866 -16.95679753 31.66706666 -17 34 C-17.33 34 -17.66 34 -18 34 C-18 32.02 -18 30.04 -18 28 C-18.99 28 -19.98 28 -21 28 C-22.7890625 25.953125 -22.7890625 25.953125 -24.625 23.25 C-25.23601563 22.36828125 -25.84703125 21.4865625 -26.4765625 20.578125 C-28.86909926 16.52921664 -29.27223374 14.01431922 -28.25 9.4375 C-28.09015625 8.67308594 -27.9303125 7.90867187 -27.765625 7.12109375 C-26.65507442 4.04441535 -24.92071631 2.57147909 -22.1875 0.875 C-16.27020907 -1.49191637 -5.84913128 -2.92456564 0 0 Z " fill="#0DA076" transform="translate(82,14)"/>
<path d="M0 0 C2.875 -0.125 2.875 -0.125 6 0 C7 1 8 2 9 3 C9.66 2.01 10.32 1.02 11 0 C11.77085938 0.08378906 12.54171875 0.16757813 13.3359375 0.25390625 C14.33882812 0.35574219 15.34171875 0.45757812 16.375 0.5625 C17.37273438 0.66691406 18.37046875 0.77132812 19.3984375 0.87890625 C21.984037 1.21144708 21.984037 1.21144708 24 0 C27.0625 -0.125 27.0625 -0.125 30 0 C31 1 31 1 31.09765625 2.84765625 C31.06510417 4.8984375 31.03255208 6.94921875 31 9 C24.25 11.125 24.25 11.125 22 10 C20.18876593 9.92913795 18.37499027 9.91583677 16.5625 9.9375 C15.11037109 9.95103516 15.11037109 9.95103516 13.62890625 9.96484375 C12.76136719 9.97644531 11.89382812 9.98804687 11 10 C7.33333333 10 3.66666667 10 0 10 C0 6.7 0 3.4 0 0 Z " fill="#7ABAA8" transform="translate(45,64)"/>
<path d="M0 0 C0.92619141 -0.00128906 1.85238281 -0.00257812 2.80664062 -0.00390625 C4.2694043 0.00189453 4.2694043 0.00189453 5.76171875 0.0078125 C6.72529297 0.00394531 7.68886719 0.00007813 8.68164062 -0.00390625 C9.61169922 -0.00261719 10.54175781 -0.00132813 11.5 0 C12.77870972 0.00169189 12.77870972 0.00169189 14.08325195 0.00341797 C16.33846054 0.12675514 18.28607586 0.50370495 20.44921875 1.1328125 C19.78921875 3.1128125 19.12921875 5.0928125 18.44921875 7.1328125 C19.10921875 7.7928125 19.76921875 8.4528125 20.44921875 9.1328125 C19.44921875 10.1328125 19.44921875 10.1328125 17.62329102 10.23046875 C16.84526123 10.21886719 16.06723145 10.20726563 15.265625 10.1953125 C13.9981543 10.18371094 13.9981543 10.18371094 12.70507812 10.171875 C10.91341064 10.14588997 9.12174396 10.11984856 7.33007812 10.09375 C6.48380859 10.08601563 5.63753906 10.07828125 4.765625 10.0703125 C3.98646729 10.05871094 3.20730957 10.04710938 2.40454102 10.03515625 C0.36885023 10.00547952 0.36885023 10.00547952 -1.55078125 11.1328125 C-3.67578125 10.6953125 -3.67578125 10.6953125 -5.55078125 10.1328125 C-5.57767341 8.65374358 -5.59712746 7.17453767 -5.61328125 5.6953125 C-5.62488281 4.87160156 -5.63648437 4.04789062 -5.6484375 3.19921875 C-5.46449606 -0.69298211 -3.3787067 0.00448827 0 0 Z " fill="#80C0B0" transform="translate(83.55078125,63.8671875)"/>
<path d="M0 0 C0 2.0001085 -0.02084011 4.00032541 -0.0625 6 C-0.14717044 9.05248736 -0.14717044 9.05248736 1 12 C-0.21484375 14.04296875 -0.21484375 14.04296875 -1.9375 16.1875 C-2.50339844 16.90292969 -3.06929687 17.61835937 -3.65234375 18.35546875 C-4.31943359 19.16951172 -4.31943359 19.16951172 -5 20 C-3.35 20 -1.7 20 0 20 C-2.26377129 22.07291469 -3.43093909 22.98518524 -6.55078125 23.06640625 C-13.14043779 21.86405025 -17.6479409 20.2298892 -22 15 C-24 11.8125 -24 11.8125 -25 9 C-24.67 8.01 -24.34 7.02 -24 6 C-23.67 6.66 -23.34 7.32 -23 8 C-22.67 6.35 -22.34 4.7 -22 3 C-21.67 3 -21.34 3 -21 3 C-20.67 4.98 -20.34 6.96 -20 9 C-14.39 9 -8.78 9 -3 9 C-2.67 6.69 -2.34 4.38 -2 2 C-1.34 1.34 -0.68 0.68 0 0 Z " fill="#E2F1ED" transform="translate(85,39)"/>
<path d="M0 0 C4.50201941 -0.19544695 7.97330346 0.43342032 12.25 1.8125 C18.73740244 3.77461107 25.15555541 4.97083552 31.87011719 5.87231445 C36.1602402 6.49561267 39.52907942 7.18889799 43 10 C43 10.99 43 11.98 43 13 C33.88603951 11.90762906 24.88477864 10.30120647 15.875 8.5625 C14.7722876 8.35729736 13.6695752 8.15209473 12.53344727 7.94067383 C11.48858154 7.73466553 10.44371582 7.52865723 9.3671875 7.31640625 C8.42987793 7.13537354 7.49256836 6.95434082 6.52685547 6.76782227 C3.76324672 5.92805903 2.07726629 5.00323054 0 3 C0 2.01 0 1.02 0 0 Z " fill="#209F7B" transform="translate(4,31)"/>
<path d="M0 0 C0 0.99 0 1.98 0 3 C-8.57287075 7.0781875 -17.2857495 9.0788197 -26.5625 10.875 C-27.71669434 11.1021167 -28.87088867 11.3292334 -30.06005859 11.56323242 C-39.21862402 13.26437835 -39.21862402 13.26437835 -43 12 C-38.64658844 6.38687786 -34.19780807 5.84487823 -27.375 4.875 C-25.39393561 4.55839228 -23.41345319 4.23811984 -21.43359375 3.9140625 C-20.49112793 3.76227539 -19.54866211 3.61048828 -18.57763672 3.45410156 C-14.66605516 2.7649993 -10.90274716 1.7145303 -7.12109375 0.515625 C-4.69012566 -0.07532857 -2.49253288 -0.087611 0 0 Z " fill="#209F7C" transform="translate(141,32)"/>
<path d="M0 0 C-0.33 0.66 -0.66 1.32 -1 2 C-1.99 2 -2.98 2 -4 2 C-4.10054687 2.71285156 -4.20109375 3.42570312 -4.3046875 4.16015625 C-6.11884223 11.56965338 -11.47969069 18.12676336 -17.2265625 22.9765625 C-19.43403202 24.25047663 -21.49610794 24.6154432 -24 25 C-23.59007813 24.45472656 -23.18015625 23.90945312 -22.7578125 23.34765625 C-19.31948226 18.53563905 -17.49965708 14.74371605 -16.48046875 8.94140625 C-15.76192818 6.03803502 -14.36343414 4.75569393 -12 3 C-10.8553125 2.13375 -10.8553125 2.13375 -9.6875 1.25 C-6.31491723 -0.31864315 -3.67566852 -0.2162158 0 0 Z " fill="#0DA176" transform="translate(103,35)"/>
<path d="M0 0 C15.53846154 0 15.53846154 0 22 0.4375 C23.85625 0.55931641 23.85625 0.55931641 25.75 0.68359375 C29 1 29 1 32 2 C32 1.34 32 0.68 32 0 C36.92127034 -0.16682272 40.50343896 -0.24828052 45 2 C44.67 2.99 44.34 3.98 44 5 C43.09378906 4.98839844 42.18757813 4.97679688 41.25390625 4.96484375 C33.16457424 4.8731413 33.16457424 4.8731413 25.125 5.625 C20.68987801 6.23960492 17.27441445 5.22126127 13 4 C12.67 4.33 12.34 4.66 12 5 C10.14712498 5.07226502 8.29166122 5.0838122 6.4375 5.0625 C5.42558594 5.05347656 4.41367187 5.04445313 3.37109375 5.03515625 C2.58863281 5.02355469 1.80617187 5.01195313 1 5 C0.67 3.35 0.34 1.7 0 0 Z " fill="#CEE2DD" transform="translate(51,77)"/>
<path d="M0 0 C0 0.66 0 1.32 0 2 C-12.01052887 8.96185523 -24.46499618 9.34729677 -38 10 C-35.5574505 5.25229441 -35.5574505 5.25229441 -33.1875 4.1796875 C-32.465625 4.07914063 -31.74375 3.97859375 -31 3.875 C-30.12859375 3.7409375 -29.2571875 3.606875 -28.359375 3.46875 C-26.69648437 3.23671875 -26.69648437 3.23671875 -25 3 C-23.44209027 2.74330672 -21.88484563 2.48255877 -20.328125 2.21875 C-18.6355749 1.93654932 -16.94286462 1.65530779 -15.25 1.375 C-14.43402344 1.2394873 -13.61804688 1.10397461 -12.77734375 0.96435547 C-8.46929851 0.2813082 -4.37904357 -0.15538542 0 0 Z " fill="#1DA17D" transform="translate(132,42)"/>
<path d="M0 0 C0.13277344 0.53496094 0.26554687 1.06992187 0.40234375 1.62109375 C0.84572468 3.38592372 1.29756531 5.14863292 1.75390625 6.91015625 C2.02074219 7.95042969 2.28757812 8.99070312 2.5625 10.0625 C2.83191406 11.10535156 3.10132812 12.14820313 3.37890625 13.22265625 C4 16 4 16 4 19 C5.98 18.34 7.96 17.68 10 17 C11 18 11 18 11 25 C5.39 25 -0.22 25 -6 25 C-6.33 21.7 -6.66 18.4 -7 15 C-6.01 15.33 -5.02 15.66 -4 16 C-4 16.66 -4 17.32 -4 18 C-3.34 18 -2.68 18 -2 18 C-2.02320312 16.86820313 -2.04640625 15.73640625 -2.0703125 14.5703125 C-2.08906901 13.08854825 -2.10726934 11.60677688 -2.125 10.125 C-2.14175781 9.37863281 -2.15851563 8.63226563 -2.17578125 7.86328125 C-2.1933959 5.90805539 -2.10320189 3.95257979 -2 2 C-1.34 1.34 -0.68 0.68 0 0 Z " fill="#0F9F76" transform="translate(71,24)"/>
<path d="M0 0 C2.84206756 0.4218694 5.68132825 0.85737915 8.51953125 1.3046875 C12.05441599 1.8615586 15.59471305 2.37333481 19.13671875 2.8828125 C21.32042677 3.21278633 23.50401995 3.543521 25.6875 3.875 C27.30108398 4.09881348 27.30108398 4.09881348 28.94726562 4.32714844 C29.95853516 4.48473633 30.96980469 4.64232422 32.01171875 4.8046875 C32.92397217 4.93858887 33.83622559 5.07249023 34.77612305 5.21044922 C37 6 37 6 38.31176758 8.07470703 C38.53888428 8.71005371 38.76600098 9.34540039 39 10 C17.21547176 10.27889154 17.21547176 10.27889154 9 6 C8.67 5.34 8.34 4.68 8 4 C6.824375 3.7834375 6.824375 3.7834375 5.625 3.5625 C2.69199857 2.93399969 1.96251178 2.15187696 0 0 Z " fill="#12A078" transform="translate(12,40)"/>
<path d="M0 0 C20.92125616 -0.73407916 20.92125616 -0.73407916 28.4375 4.5625 C29.283125 5.366875 30.12875 6.17125 31 7 C31 7.33 31 7.66 31 8 C23.24506486 8.09928082 15.68931285 8.06059488 8 7 C7.67 6.01 7.34 5.02 7 4 C5.01276732 3.29618843 3.01222047 2.6288189 1 2 C0.67 1.34 0.34 0.68 0 0 Z " fill="#1BA17B" transform="translate(28,51)"/>
<path d="M0 0 C-11.17391564 5.56496192 -21.4471113 8.66718109 -34 8 C-32.33784732 6.66104368 -30.67036393 5.32869858 -29 4 C-28.07477539 3.21351074 -28.07477539 3.21351074 -27.13085938 2.41113281 C-24.66941365 0.78107366 -23.07915571 0.49546983 -20.15625 0.234375 C-19.23972656 0.14929687 -18.32320312 0.06421875 -17.37890625 -0.0234375 C-16.42886719 -0.09820312 -15.47882813 -0.17296875 -14.5 -0.25 C-13.54996094 -0.34023438 -12.59992188 -0.43046875 -11.62109375 -0.5234375 C-3.93626678 -1.19356306 -3.93626678 -1.19356306 0 0 Z " fill="#129E78" transform="translate(120,52)"/>
<path d="M0 0 C10.35261645 1.11602674 20.00547225 3.07961317 30 6 C29.360625 6.28875 28.72125 6.5775 28.0625 6.875 C25.84793921 7.82823451 25.84793921 7.82823451 25 10 C15.41812985 9.26293307 6.6128925 7.30198733 0 0 Z " fill="#279F7D" transform="translate(1,21)"/>
<path d="M0 0 C0.61875 0.680625 0.61875 0.680625 1.25 1.375 C2.92179997 3.08630251 2.92179997 3.08630251 5.0625 4 C7 5 7 5 9 8 C9.39958487 11.42017557 9.5635348 14.87293041 8 18 C6.1875 17.8125 6.1875 17.8125 4 17 C1.74983838 13.8843916 0.33397757 10.59147806 -1 7 C-1.99 7.495 -1.99 7.495 -3 8 C-4.66666667 8 -6.33333333 8 -8 8 C-7.67 6.68 -7.34 5.36 -7 4 C-5.824375 3.8453125 -5.824375 3.8453125 -4.625 3.6875 C-1.66954819 3.22404978 -1.66954819 3.22404978 0 0 Z " fill="#10A178" transform="translate(83,15)"/>
<path d="M0 0 C0.66 0.33 1.32 0.66 2 1 C1.34 3.64 0.68 6.28 0 9 C1.546875 8.7215625 1.546875 8.7215625 3.125 8.4375 C6.76148442 8.02692918 9.45437009 8.221691 13 9 C13 6.69 13 4.38 13 2 C13.33 2 13.66 2 14 2 C14 4.31 14 6.62 14 9 C14.99 9 15.98 9 17 9 C16.67 6.69 16.34 4.38 16 2 C13.03 1.505 13.03 1.505 10 1 C10 0.67 10 0.34 10 0 C11.74991334 -0.02715383 13.49994945 -0.04646551 15.25 -0.0625 C16.71179688 -0.07990234 16.71179688 -0.07990234 18.203125 -0.09765625 C20.65758678 -0.01195577 22.66168914 0.29293934 25 1 C24.34 2.98 23.68 4.96 23 7 C23.66 7.66 24.32 8.32 25 9 C24 10 24 10 22.17407227 10.09765625 C21.39604248 10.08605469 20.6180127 10.07445313 19.81640625 10.0625 C18.54893555 10.05089844 18.54893555 10.05089844 17.25585938 10.0390625 C15.46419189 10.01307747 13.67252521 9.98703606 11.88085938 9.9609375 C11.03458984 9.95320313 10.18832031 9.94546875 9.31640625 9.9375 C8.53724854 9.92589844 7.75809082 9.91429688 6.95532227 9.90234375 C4.91963148 9.87266702 4.91963148 9.87266702 3 11 C0.875 10.5625 0.875 10.5625 -1 10 C-1.02689216 8.52093108 -1.04634621 7.04172517 -1.0625 5.5625 C-1.07410156 4.73878906 -1.08570312 3.91507812 -1.09765625 3.06640625 C-1 1 -1 1 0 0 Z " fill="#C5E0D9" transform="translate(79,64)"/>
<path d="M0 0 C2.375 0.9375 2.375 0.9375 5 3 C5.72748367 5.34740369 6.12223954 7.60419554 6.4453125 10.0390625 C6.71988281 11.00972656 6.71988281 11.00972656 7 12 C7.99 12.33 8.98 12.66 10 13 C11.82421875 14.8125 11.82421875 14.8125 13.6875 17 C14.31011719 17.721875 14.93273437 18.44375 15.57421875 19.1875 C17 21 17 21 17 22 C14.69 21.67 12.38 21.34 10 21 C10 20.34 10 19.68 10 19 C9.40574219 18.73316406 8.81148437 18.46632813 8.19921875 18.19140625 C4.56311545 16.22158119 2.14027521 13.52088484 0 10 C-0.79484258 6.99026073 -1.15362367 4.11254905 -1 1 C-0.67 0.67 -0.34 0.34 0 0 Z " fill="#0CA276" transform="translate(53,39)"/>
<path d="M0 0 C0.99 1.32 1.98 2.64 3 4 C2.01 4.33 1.02 4.66 0 5 C-1.14514954 7.23428872 -1.14514954 7.23428872 -2 10 C-2.35320312 11.02738281 -2.70640625 12.05476563 -3.0703125 13.11328125 C-3.41835937 14.16902344 -3.76640625 15.22476562 -4.125 16.3125 C-4.47820312 17.38113281 -4.83140625 18.44976562 -5.1953125 19.55078125 C-5.59363281 20.76314453 -5.59363281 20.76314453 -6 22 C-9.96875 18.46875 -9.96875 18.46875 -10.25 14.25 C-10.1675 13.1775 -10.085 12.105 -10 11 C-9.34 11 -8.68 11 -8 11 C-8.33 9.68 -8.66 8.36 -9 7 C-7.35 6.34 -5.7 5.68 -4 5 C-4.33 4.34 -4.66 3.68 -5 3 C-3.35 2.67 -1.7 2.34 0 2 C0 1.34 0 0.68 0 0 Z " fill="#D8EBE7" transform="translate(71,16)"/>
<path d="M0 0 C2.875 -0.125 2.875 -0.125 6 0 C7 1 8 2 9 3 C9.66 2.01 10.32 1.02 11 0 C12.32 0.33 13.64 0.66 15 1 C14.01 1.33 13.02 1.66 12 2 C11.7497843 4.91634129 11.7497843 4.91634129 12 8 C12.99 8.66 13.98 9.32 15 10 C12.69 9.67 10.38 9.34 8 9 C8 9.33 8 9.66 8 10 C5.36 10 2.72 10 0 10 C0 6.7 0 3.4 0 0 Z " fill="#A2CFC1" transform="translate(45,64)"/>
<path d="M0 0 C10.57314272 1.95652548 20.85203207 5.50582789 31 9 C31 9.33 31 9.66 31 10 C21.27869093 10.7708527 8.84990707 9.42495353 0 5 C-2.3329866 4.95977609 -4.66706666 4.95679753 -7 5 C-7 4.34 -7 3.68 -7 3 C-3.66666667 3 -0.33333333 3 3 3 C2.01 2.01 1.02 1.02 0 0 Z M9 5 C9 5.33 9 5.66 9 6 C10.65 6 12.3 6 14 6 C14 5.67 14 5.34 14 5 C12.35 5 10.7 5 9 5 Z " fill="#E6F2EE" transform="translate(10,27)"/>
<path d="M0 0 C1.11375 0.4640625 1.11375 0.4640625 2.25 0.9375 C4.50692176 1.8094925 6.6450153 2.47667007 9 3 C9 3.66 9 4.32 9 5 C9.78375 5.144375 10.5675 5.28875 11.375 5.4375 C14 6 14 6 16 7 C17.81036822 7.22133998 19.62712099 7.39161482 21.4453125 7.53515625 C22.52167969 7.62216797 23.59804688 7.70917969 24.70703125 7.79882812 C26.39892578 7.9293457 26.39892578 7.9293457 28.125 8.0625 C29.82849609 8.19881836 29.82849609 8.19881836 31.56640625 8.33789062 C34.37733201 8.56229226 37.18850766 8.78283166 40 9 C40 9.33 40 9.66 40 10 C24.25512528 11.14806378 24.25512528 11.14806378 17 11 C18.98 11.99 20.96 12.98 23 14 C20.61118335 14.8531488 19.37691245 15.12563748 16.9375 14.3125 C14.69677572 12.79459 13.4305568 11.28889088 12 9 C12 8.34 12 7.68 12 7 C11.13375 6.938125 10.2675 6.87625 9.375 6.8125 C5.01637013 5.76320022 3.22241421 4.06896592 0 1 C0 0.67 0 0.34 0 0 Z " fill="#D4E9E4" transform="translate(12,41)"/>
<path d="M0 0 C1.05445312 -0.00257812 2.10890625 -0.00515625 3.1953125 -0.0078125 C5.875 0.125 5.875 0.125 7.875 1.125 C7.875 1.785 7.875 2.445 7.875 3.125 C4.64708445 5.2769437 3.59099191 5.32586443 -0.125 5.125 C-0.455 4.135 -0.785 3.145 -1.125 2.125 C-1.785 2.125 -2.445 2.125 -3.125 2.125 C-3.125 3.115 -3.125 4.105 -3.125 5.125 C-5.66899967 7.44778231 -8.03123941 9.57811971 -11.125 11.125 C-11.125 12.115 -11.125 13.105 -11.125 14.125 C-12.115 13.795 -13.105 13.465 -14.125 13.125 C-13.465 11.145 -12.805 9.165 -12.125 7.125 C-11.465 7.125 -10.805 7.125 -10.125 7.125 C-9.465 6.135 -8.805 5.145 -8.125 4.125 C-8.785 3.795 -9.445 3.465 -10.125 3.125 C-10.125 2.465 -10.125 1.805 -10.125 1.125 C-6.7086981 0.08525594 -3.56073988 -0.00874875 0 0 Z " fill="#10A279" transform="translate(74.125,12.875)"/>
<path d="M0 0 C0.99 0 1.98 0 3 0 C4.4296875 1.79296875 4.4296875 1.79296875 5.875 4.1875 C8.27691491 7.99453514 10.68226146 10.9750031 14 14 C8.61552161 17.58965226 2.56088502 16.21771861 -3.5625 15 C-5.04360218 14.67537487 -6.52356259 14.34522127 -8 14 C-4.39006828 12.86519473 -1.0157673 12.89984233 2.75 12.9375 C4.50570312 12.95103516 4.50570312 12.95103516 6.296875 12.96484375 C7.18890625 12.97644531 8.0809375 12.98804688 9 13 C3.96066973 9.02158136 -0.70214541 7.94592282 -7 7 C-7 6.67 -7 6.34 -7 6 C-3.66666667 6 -0.33333333 6 3 6 C2.2575 5.071875 2.2575 5.071875 1.5 4.125 C0 2 0 2 0 0 Z " fill="#E4F1EE" transform="translate(49,45)"/>
<path d="M0 0 C-3.44855464 1.89499785 -6.98800385 2.99640115 -10.75 4.125 C-11.92046875 4.47820313 -13.0909375 4.83140625 -14.296875 5.1953125 C-15.18890625 5.46085937 -16.0809375 5.72640625 -17 6 C-17 7.32 -17 8.64 -17 10 C-19.97 11.32 -22.94 12.64 -26 14 C-26 11 -26 11 -25 10 C-25.763125 10.165 -26.52625 10.33 -27.3125 10.5 C-30 11 -30 11 -33 11 C-29.69175739 6.98223765 -26.04568152 5.73870007 -21.1875 4.375 C-20.50107422 4.17132812 -19.81464844 3.96765625 -19.10742188 3.7578125 C-17.74030916 3.35427497 -16.37107678 2.95784465 -14.99975586 2.56884766 C-13.06214213 2.01767686 -11.1324298 1.43896039 -9.203125 0.859375 C-5.98598002 -0.00376146 -3.3131951 -0.16161927 0 0 Z " fill="#89CBB9" transform="translate(125,26)"/>
<path d="M0 0 C2.11126943 4.22253885 2.2171997 6.14001523 2.125 10.75 C2.10695313 11.92046875 2.08890625 13.0909375 2.0703125 14.296875 C2.03550781 15.63492188 2.03550781 15.63492188 2 17 C-0.99332739 16.0022242 -1.94766315 15.2477975 -4 13 C-3.67 13.66 -3.34 14.32 -3 15 C-2.95977609 17.3329866 -2.95679753 19.66706666 -3 22 C-3.33 22 -3.66 22 -4 22 C-4 20.02 -4 18.04 -4 16 C-4.99 16 -5.98 16 -7 16 C-8.98 12.535 -8.98 12.535 -11 9 C-10.34 9 -9.68 9 -9 9 C-8.67 9.66 -8.34 10.32 -8 11 C-6.68 11 -5.36 11 -4 11 C-2.68 7.37 -1.36 3.74 0 0 Z " fill="#4DB297" transform="translate(68,26)"/>
<path d="M0 0 C5.9129304 0.64270983 11.34244531 2.19003784 17 4 C16.34 4.66 15.68 5.32 15 6 C17.475 6.495 17.475 6.495 20 7 C20.66 8.98 21.32 10.96 22 13 C21.45214844 12.68546875 20.90429688 12.3709375 20.33984375 12.046875 C12.84488629 8.00081667 5.22432877 5.96287313 -3 4 C-2.34 3.67 -1.68 3.34 -1 3 C-0.67 2.01 -0.34 1.02 0 0 Z " fill="#22A27E" transform="translate(27,28)"/>
<path d="M0 0 C0 0.99 0 1.98 0 3 C-0.66 3.66 -1.32 4.32 -2 5 C-2.16681109 8.08347826 -2.16681109 8.08347826 -2 11 C-1.01 11 -0.02 11 1 11 C1 10.34 1 9.68 1 9 C1.66 9 2.32 9 3 9 C1.67105527 14.48189702 -2.46116062 17.9577509 -7 21 C-9.76171875 21.703125 -9.76171875 21.703125 -12 22 C-11.59007813 21.45472656 -11.18015625 20.90945312 -10.7578125 20.34765625 C-7.3262383 15.54509428 -5.47443003 11.75910392 -4.5 5.953125 C-3.78333551 3.15365434 -2.25016964 1.72513006 0 0 Z " fill="#179C78" transform="translate(91,38)"/>
<path d="M0 0 C2.12493141 -0.02693575 4.24995912 -0.04636628 6.375 -0.0625 C7.55835937 -0.07410156 8.74171875 -0.08570313 9.9609375 -0.09765625 C13 0 13 0 15 1 C14.34 2.32 13.68 3.64 13 5 C14.65 5 16.3 5 18 5 C16.14675781 6.93046061 14.77901634 7.96708382 12.05859375 8.08203125 C8.86995563 7.77080138 6.63002612 7.45283128 4 5.5625 C3 4 3 4 3 2 C2.01 1.67 1.02 1.34 0 1 C0 0.67 0 0.34 0 0 Z " fill="#88C3B5" transform="translate(67,54)"/>
<path d="M0 0 C7.80080097 0.13776249 12.06689113 1.86562612 17.8125 7 C20.51775263 11.42677704 20.76395968 15.26714541 20.875 20.375 C20.215 20.705 19.555 21.035 18.875 21.375 C18.545 19.395 18.215 17.415 17.875 15.375 C17.545 15.375 17.215 15.375 16.875 15.375 C16.813125 14.59125 16.75125 13.8075 16.6875 13 C16.419375 12.13375 16.15125 11.2675 15.875 10.375 C13.39863988 9.00033375 13.39863988 9.00033375 10.875 8.375 C10.875 7.055 10.875 5.735 10.875 4.375 C6.41165816 2.65206865 2.77298769 2.15259209 -2 2.25 C-3.15242188 2.26804687 -4.30484375 2.28609375 -5.4921875 2.3046875 C-6.36101562 2.32789063 -7.22984375 2.35109375 -8.125 2.375 C-5.4008438 -0.3491562 -3.8031266 0.0441198 0 0 Z " fill="#B0DACE" transform="translate(73.125,9.625)"/>
<path d="M0 0 C-5.82322176 5.97646444 -5.82322176 5.97646444 -10.125 6.0625 C-11.548125 6.0315625 -11.548125 6.0315625 -13 6 C-13.66 4.35 -14.32 2.7 -15 1 C-14.34 1 -13.68 1 -13 1 C-12.67 1.66 -12.34 2.32 -12 3 C-8.95613276 3.08226668 -6.92824652 2.97608217 -4 2 C-4 1.34 -4 0.68 -4 0 C-11.99976044 -0.20483028 -19.26134446 -0.13480153 -27 2 C-25.40752467 -0.7425964 -24.52908147 -1.84514689 -21.4375 -2.75 C-13.42854987 -3.3324691 -7.43444912 -3.30419961 0 0 Z " fill="#5EB39B" transform="translate(86,14)"/>
<path d="M0 0 C4.92127034 -0.16682272 8.50343896 -0.24828052 13 2 C12.67 2.99 12.34 3.98 12 5 C11.09378906 4.98839844 10.18757813 4.97679688 9.25390625 4.96484375 C0.97971666 4.89117276 0.97971666 4.89117276 -7.25 5.625 C-8.4875 5.74875 -9.725 5.8725 -11 6 C-11.66 5.34 -12.32 4.68 -13 4 C-9.7 4 -6.4 4 -3 4 C-3 3.34 -3 2.68 -3 2 C-2.01 2 -1.02 2 0 2 C0 1.34 0 0.68 0 0 Z " fill="#D0E2DE" transform="translate(83,77)"/>
<path d="M0 0 C0.99 0.66 1.98 1.32 3 2 C3 2.99 3 3.98 3 5 C3.66 5.33 4.32 5.66 5 6 C4.34 6 3.68 6 3 6 C4.00193437 9.79303725 4.81024227 12.71536341 7 16 C5.35 16.99 3.7 17.98 2 19 C1.01 15.7 0.02 12.4 -1 9 C-1.33 9 -1.66 9 -2 9 C-1.125 2.25 -1.125 2.25 0 0 Z M3 13 C3.33 14.32 3.66 15.64 4 17 C4.33 16.34 4.66 15.68 5 15 C4.34 14.34 3.68 13.68 3 13 Z " fill="#DBEDE9" transform="translate(73,24)"/>
<path d="M0 0 C0.13277344 0.53625 0.26554687 1.0725 0.40234375 1.625 C0.8433326 3.37742628 1.29554126 5.12703817 1.75390625 6.875 C2.02074219 7.90625 2.28757812 8.9375 2.5625 10 C2.83191406 11.03125 3.10132812 12.0625 3.37890625 13.125 C4 16 4 16 4 20 C4.99 20.33 5.98 20.66 7 21 C4.36 20.67 1.72 20.34 -1 20 C-1.2210949 17.04210873 -1.42740245 14.08447236 -1.625 11.125 C-1.68945312 10.28324219 -1.75390625 9.44148438 -1.8203125 8.57421875 C-1.871875 7.76855469 -1.9234375 6.96289062 -1.9765625 6.1328125 C-2.02893066 5.38918457 -2.08129883 4.64555664 -2.13525391 3.87939453 C-2 2 -2 2 0 0 Z " fill="#1BA17C" transform="translate(71,24)"/>
<path d="M0 0 C10.35261645 1.11602674 20.00547225 3.07961317 30 6 C30 6.33 30 6.66 30 7 C22.76410027 6.39700836 16.00629124 4.8849413 9 3 C9 3.99 9 4.98 9 6 C4.52553256 4.80680868 2.58129261 3.81380169 0 0 Z " fill="#D6EAE4" transform="translate(1,21)"/>
<path d="M0 0 C6.57534861 0.62031591 12.66692592 2.14897283 19 4 C19 4.66 19 5.32 19 6 C19.598125 6.103125 20.19625 6.20625 20.8125 6.3125 C23.28243264 7.08876455 24.32251235 8.07088921 26 10 C25.67 10.66 25.34 11.32 25 12 C24.401875 11.34 23.80375 10.68 23.1875 10 C21.12498166 7.6626154 21.12498166 7.6626154 18 8 C18 7.34 18 6.68 18 6 C16.02 6.66 14.04 7.32 12 8 C11.01 7.01 10.02 6.02 9 5 C9.66 4.67 10.32 4.34 11 4 C7.37 3.01 3.74 2.02 0 1 C0 0.67 0 0.34 0 0 Z " fill="#9DD4C4" transform="translate(31,28)"/>
<path d="M0 0 C12.23134595 0.62120671 12.23134595 0.62120671 16 4 C16 4.99 16 5.98 16 7 C13.36 6.67 10.72 6.34 8 6 C8 5.34 8 4.68 8 4 C5.69 3.67 3.38 3.34 1 3 C0.67 2.01 0.34 1.02 0 0 Z " fill="#1F9F7C" transform="translate(31,37)"/>
<path d="M0 0 C1.99954746 -0.04254356 4.00041636 -0.04080783 6 0 C7 1 7 1 7.09765625 2.84765625 C7.04882812 5.92382812 7.04882812 5.92382812 7 9 C4.69 9.66 2.38 10.32 0 11 C-0.33 10.34 -0.66 9.68 -1 9 C-0.01 9 0.98 9 2 9 C2 6.36 2 3.72 2 1 C1.34 0.67 0.68 0.34 0 0 Z " fill="#B6D7CF" transform="translate(69,64)"/>
<path d="M0 0 C6.11485027 -0.09706112 11.93303301 0.22959149 18 1 C18 1.33 18 1.66 18 2 C15.03 2 12.06 2 9 2 C9 2.99 9 3.98 9 5 C10.32 5.66 11.64 6.32 13 7 C11.35 7 9.7 7 8 7 C7.67 6.01 7.34 5.02 7 4 C5.01276732 3.29618843 3.01222047 2.6288189 1 2 C0.67 1.34 0.34 0.68 0 0 Z " fill="#57B19A" transform="translate(28,51)"/>
<path d="M0 0 C0 0.33 0 0.66 0 1 C-1.65 1.33 -3.3 1.66 -5 2 C-5 3.65 -5 5.3 -5 7 C-8.63 7 -12.26 7 -16 7 C-14.33784732 5.66104368 -12.67036393 4.32869858 -11 3 C-10.38125 2.4225 -9.7625 1.845 -9.125 1.25 C-6.07624727 -0.54338396 -3.46205774 -0.1997341 0 0 Z " fill="#2D9F81" transform="translate(102,53)"/>
<path d="M0 0 C5.28 0 10.56 0 16 0 C15.67 0.99 15.34 1.98 15 3 C10.38 3 5.76 3 1 3 C0.67 2.01 0.34 1.02 0 0 Z " fill="#46AA91" transform="translate(66,50)"/>
<path d="M0 0 C1.32 0 2.64 0 4 0 C5.4606285 2.64738916 6 3.89448334 6 7 C3.69 7.33 1.38 7.66 -1 8 C-1.125 2.25 -1.125 2.25 0 0 Z " fill="#82C2B1" transform="translate(80,65)"/>
<path d="M0 0 C1.32 0.33 2.64 0.66 4 1 C3.01 1.33 2.02 1.66 1 2 C0.7497843 4.91634129 0.7497843 4.91634129 1 8 C1.99 8.66 2.98 9.32 4 10 C0.31733897 9.40049704 -3.34543185 8.75241109 -7 8 C-7 7.01 -7 6.02 -7 5 C-6.21625 4.731875 -5.4325 4.46375 -4.625 4.1875 C-1.71885077 3.15185568 -1.71885077 3.15185568 0 0 Z " fill="#D5E8E3" transform="translate(56,64)"/>
<path d="M0 0 C0.99 1.32 1.98 2.64 3 4 C2.01 4.33 1.02 4.66 0 5 C-1.13545562 7.29534258 -1.13545562 7.29534258 -2 10 C-2.66666667 11.66666667 -3.33333333 13.33333333 -4 15 C-5.1875 13.4375 -5.1875 13.4375 -6 11 C-4.625 7.25 -4.625 7.25 -3 4 C-3.66 3.67 -4.32 3.34 -5 3 C-3.35 2.67 -1.7 2.34 0 2 C0 1.34 0 0.68 0 0 Z " fill="#C0DDD8" transform="translate(71,16)"/>
<path d="M0 0 C0 0.99 0 1.98 0 3 C-0.66 3.66 -1.32 4.32 -2 5 C-2.16681109 8.08347826 -2.16681109 8.08347826 -2 11 C-1.01 11 -0.02 11 1 11 C1 10.34 1 9.68 1 9 C1.66 9 2.32 9 3 9 C1.25 13.875 1.25 13.875 -1 15 C-3 13.875 -3 13.875 -5 12 C-5.49719509 8.10530509 -5.22023724 5.27192856 -3 2 C-2.01 1.34 -1.02 0.68 0 0 Z " fill="#74C2AC" transform="translate(91,38)"/>
<path d="M0 0 C0 3.77039313 -0.40937009 7.46114836 -0.78125 11.2109375 C-0.9860344 13.82193859 -1.03807313 16.38247227 -1 19 C-3.53707771 16.79384547 -4.45889098 15.31206289 -5 12 C-4.765625 9.74609375 -4.765625 9.74609375 -4.25 7.4375 C-4.09015625 6.67308594 -3.9303125 5.90867187 -3.765625 5.12109375 C-2.91212671 2.75655512 -1.88815503 1.62360583 0 0 Z " fill="#98CDBE" transform="translate(58,16)"/>
<path d="M0 0 C2.5 1.1875 2.5 1.1875 5 3 C5.3125 5.6875 5.3125 5.6875 5 8 C4.01 8.495 4.01 8.495 3 9 C2.34 9.66 1.68 10.32 1 11 C-1.42857143 3.57142857 -1.42857143 3.57142857 0 0 Z " fill="#12A279" transform="translate(53,39)"/>
<path d="M0 0 C1.65 0 3.3 0 5 0 C5.59732819 2.76264289 6 5.16032769 6 8 C4.02 8 2.04 8 0 8 C0 5.36 0 2.72 0 0 Z " fill="#49A48D" transform="translate(90,65)"/>
<path d="M0 0 C0.33 0 0.66 0 1 0 C1 1.65 1 3.3 1 5 C0.34 5 -0.32 5 -1 5 C-0.67 5.66 -0.34 6.32 0 7 C0.04022391 9.3329866 0.04320247 11.66706666 0 14 C-0.33 14 -0.66 14 -1 14 C-1 12.02 -1 10.04 -1 8 C-1.99 8 -2.98 8 -4 8 C-5.98 4.535 -5.98 4.535 -8 1 C-7.34 1 -6.68 1 -6 1 C-5.67 1.66 -5.34 2.32 -5 3 C-3.68 3 -2.36 3 -1 3 C-0.67 2.01 -0.34 1.02 0 0 Z " fill="#73BEAB" transform="translate(65,34)"/>
<path d="M0 0 C3.83953399 1.27984466 5.65316744 3.81501296 8 7 C5.69 6.67 3.38 6.34 1 6 C1 5.34 1 4.68 1 4 C0.01 3.67 -0.98 3.34 -2 3 C-2 2.34 -2 1.68 -2 1 C-1.34 0.67 -0.68 0.34 0 0 Z " fill="#61B39E" transform="translate(62,54)"/>
<path d="M0 0 C-0.33 0.66 -0.66 1.32 -1 2 C-3.70599842 2.47597366 -6.33595404 2.84093629 -9.0625 3.125 C-9.82111328 3.21136719 -10.57972656 3.29773437 -11.36132812 3.38671875 C-13.23996986 3.59939517 -15.11988636 3.80075459 -17 4 C-17.33 3.34 -17.66 2.68 -18 2 C-15.75256955 1.46818825 -13.50192898 0.94992874 -11.25 0.4375 C-9.99703125 0.14746094 -8.7440625 -0.14257812 -7.453125 -0.44140625 C-4.40526252 -0.93444283 -2.82358172 -1.07666879 0 0 Z " fill="#C6E5DD" transform="translate(116,43)"/>
<path d="M0 0 C0 2.0001085 -0.02084011 4.00032541 -0.0625 6 C-0.14717044 9.05248736 -0.14717044 9.05248736 1 12 C-0.28965176 13.37562854 -1.62689293 14.70766393 -3 16 C-3.66 16 -4.32 16 -5 16 C-4.55088303 13.70650932 -4.09042056 11.41523782 -3.625 9.125 C-3.36976562 7.84882812 -3.11453125 6.57265625 -2.8515625 5.2578125 C-2 2 -2 2 0 0 Z " fill="#EEF6F4" transform="translate(85,39)"/>
<path d="M0 0 C1.23556641 0.01740234 1.23556641 0.01740234 2.49609375 0.03515625 C3.32238281 0.04417969 4.14867188 0.05320313 5 0.0625 C5.63808594 0.07410156 6.27617188 0.08570313 6.93359375 0.09765625 C6.60359375 1.41765625 6.27359375 2.73765625 5.93359375 4.09765625 C2.96359375 4.09765625 -0.00640625 4.09765625 -3.06640625 4.09765625 C-3.06640625 0.14491523 -3.06640625 0.14491523 0 0 Z " fill="#05A474" transform="translate(73.06640625,43.90234375)"/>
<path d="M0 0 C0 0.99 0 1.98 0 3 C-2.31 3 -4.62 3 -7 3 C-7 3.66 -7 4.32 -7 5 C-5.35 5 -3.7 5 -2 5 C-5.08809695 6.76462683 -6.23312136 7 -10 7 C-9.67 5.35 -9.34 3.7 -9 2 C-2.25 0 -2.25 0 0 0 Z " fill="#2CA382" transform="translate(130,34)"/>
<path d="M0 0 C-0.33 1.32 -0.66 2.64 -1 4 C-4.375 4.625 -4.375 4.625 -8 5 C-8.66 4.34 -9.32 3.68 -10 3 C-8.0130571 -0.97388579 -3.91761109 -0.08705802 0 0 Z " fill="#189C77" transform="translate(116,30)"/>
<path d="M0 0 C-1.78953185 0.83790789 -3.58169695 1.67019396 -5.375 2.5 C-6.87160156 3.19609375 -6.87160156 3.19609375 -8.3984375 3.90625 C-11 5 -11 5 -13 5 C-12 2 -12 2 -11 0 C-6.97268577 -0.83585767 -3.93421227 -1.15507777 0 0 Z " fill="#2E9C81" transform="translate(120,52)"/>
<path d="M0 0 C2.9375 0.8125 2.9375 0.8125 6 2 C6.33 2.99 6.66 3.98 7 5 C2.38 5 -2.24 5 -7 5 C-7 4.67 -7 4.34 -7 4 C-4.36 4 -1.72 4 1 4 C0.67 2.68 0.34 1.36 0 0 Z " fill="#2AA183" transform="translate(44,45)"/>
<path d="M0 0 C2.375 2.6875 2.375 2.6875 4 5 C2.02 5.99 2.02 5.99 0 7 C-0.0825 6.21625 -0.165 5.4325 -0.25 4.625 C-0.73322067 1.94887747 -0.73322067 1.94887747 -2.625 0.75 C-5.71841899 -0.22686916 -8.78299058 -0.6288066 -12 -1 C-12 -1.33 -12 -1.66 -12 -2 C-6.93330134 -3.32699251 -4.38891368 -2.86233501 0 0 Z " fill="#D0EAE3" transform="translate(47,39)"/>
<path d="M0 0 C1.11375 0.4640625 1.11375 0.4640625 2.25 0.9375 C4.50692176 1.8094925 6.6450153 2.47667007 9 3 C9 3.66 9 4.32 9 5 C10.65 5.33 12.3 5.66 14 6 C14 6.33 14 6.66 14 7 C7.50966018 6.66429277 4.61192971 5.61192971 0 1 C0 0.67 0 0.34 0 0 Z " fill="#92CCBC" transform="translate(12,41)"/>
<path d="M0 0 C4.29 0 8.58 0 13 0 C13 0.99 13 1.98 13 3 C6.565 3.495 6.565 3.495 0 4 C0 2.68 0 1.36 0 0 Z " fill="#97C0B5" transform="translate(67,78)"/>
<path d="M0 0 C4.51013391 0.53060399 7.38378219 2.30886117 11 5 C11 5.33 11 5.66 11 6 C8.36 6 5.72 6 3 6 C2.814375 5.071875 2.814375 5.071875 2.625 4.125 C2.12802644 1.80879168 2.12802644 1.80879168 0 0 Z " fill="#259B7C" transform="translate(48,53)"/>
<path d="M0 0 C0 0.66 0 1.32 0 2 C-1.65 2.66 -3.3 3.32 -5 4 C-5.33 3.67 -5.66 3.34 -6 3 C-7.85287502 2.92773498 -9.70833878 2.9161878 -11.5625 2.9375 C-12.57441406 2.94652344 -13.58632812 2.95554688 -14.62890625 2.96484375 C-15.41136719 2.97644531 -16.19382812 2.98804688 -17 3 C-11.57546896 0.08638726 -6.0850241 -0.14841522 0 0 Z " fill="#32A085" transform="translate(132,42)"/>
<path d="M0 0 C1.77226453 0.28284018 3.542788 0.57660498 5.3125 0.875 C6.29863281 1.03742187 7.28476562 1.19984375 8.30078125 1.3671875 C11 2 11 2 14 4 C9.71 4 5.42 4 1 4 C0.67 2.68 0.34 1.36 0 0 Z " fill="#E5F2EF" transform="translate(10,37)"/>
<path d="M0 0 C2.42289685 0.41774084 3.70879065 0.69612938 5.4375 2.5 C7.48513623 4.46573078 9.23747349 4.62668561 12 5 C11.67 5.66 11.34 6.32 11 7 C7.37 6.34 3.74 5.68 0 5 C0 3.33333333 0 1.66666667 0 0 Z " fill="#2AA282" transform="translate(27,36)"/>
<path d="M0 0 C-0.99 0.33 -1.98 0.66 -3 1 C-3.33 1.99 -3.66 2.98 -4 4 C-5.32 4 -6.64 4 -8 4 C-8 3.34 -8 2.68 -8 2 C-9.65 2 -11.3 2 -13 2 C-13 1.67 -13 1.34 -13 1 C-11.39796533 0.63631108 -9.79325797 0.28438048 -8.1875 -0.0625 C-7.29417969 -0.25972656 -6.40085938 -0.45695312 -5.48046875 -0.66015625 C-3 -1 -3 -1 0 0 Z " fill="#58AC94" transform="translate(142,24)"/>
<path d="M0 0 C1.32 0.33 2.64 0.66 4 1 C0.25 4.875 0.25 4.875 -2 6 C-2 6.99 -2 7.98 -2 9 C-2.99 8.67 -3.98 8.34 -5 8 C-4.34 6.02 -3.68 4.04 -3 2 C-2.34 2 -1.68 2 -1 2 C-0.67 1.34 -0.34 0.68 0 0 Z " fill="#28A686" transform="translate(65,18)"/>
<path d="M0 0 C0.66 0.66 1.32 1.32 2 2 C-2.625 6.875 -2.625 6.875 -6 8 C-6.66 7.34 -7.32 6.68 -8 6 C-6.68 6 -5.36 6 -4 6 C-4 4.35 -4 2.7 -4 1 C-2.68 1.33 -1.36 1.66 0 2 C0 1.34 0 0.68 0 0 Z " fill="#7DC5B2" transform="translate(91,31)"/>
<path d="M0 0 C0.66 0.66 1.32 1.32 2 2 C0.20866022 2.05391993 -1.58313899 2.09275571 -3.375 2.125 C-4.37273438 2.14820313 -5.37046875 2.17140625 -6.3984375 2.1953125 C-9 2 -9 2 -11 0 C-6.88092254 -1.37302582 -4.27865333 -0.74706646 0 0 Z " fill="#EFF7F5" transform="translate(39,35)"/>
<path d="M0 0 C4 0 4 0 6 1 C6.625 3.5625 6.625 3.5625 7 6 C6.01 6 5.02 6 4 6 C3.34 5.34 2.68 4.68 2 4 C1.01 4 0.02 4 -1 4 C-0.67 2.68 -0.34 1.36 0 0 Z " fill="#50C2A2" transform="translate(77,21)"/>
<path d="M0 0 C0 0.33 0 0.66 0 1 C-1.65 1 -3.3 1 -5 1 C-5 1.66 -5 2.32 -5 3 C-7.31 2.67 -9.62 2.34 -12 2 C-8.15820154 -2.0018734 -5.05897886 -0.92747946 0 0 Z " fill="#DCEEE9" transform="translate(33,33)"/>
<path d="M0 0 C2.875 -0.125 2.875 -0.125 6 0 C6.66 0.66 7.32 1.32 8 2 C6.35 2 4.7 2 3 2 C3 2.66 3 3.32 3 4 C3.99 4.33 4.98 4.66 6 5 C5.01 5.495 5.01 5.495 4 6 C2 4.6875 2 4.6875 0 3 C0 2.01 0 1.02 0 0 Z " fill="#86C3B1" transform="translate(4,31)"/>
<path d="M0 0 C0.33 0 0.66 0 1 0 C1.9765625 6.0546875 1.9765625 6.0546875 2 8 C1.34 8.66 0.68 9.32 0 10 C-0.33 9.01 -0.66 8.02 -1 7 C-1.66 7 -2.32 7 -3 7 C-3.33 6.01 -3.66 5.02 -4 4 C-3.01 4 -2.02 4 -1 4 C-0.67 2.68 -0.34 1.36 0 0 Z " fill="#279F81" transform="translate(60,28)"/>
<path d="M0 0 C2.0625 0.4375 2.0625 0.4375 4 1 C4 1.66 4 2.32 4 3 C3.34 3 2.68 3 2 3 C1.67 3.99 1.34 4.98 1 6 C-0.32 5.67 -1.64 5.34 -3 5 C-1.125 1.125 -1.125 1.125 0 0 Z " fill="#52A48F" transform="translate(64,67)"/>
<path d="M0 0 C4.29 0.66 8.58 1.32 13 2 C7.84615385 4.57692308 7.84615385 4.57692308 4 4 C2.68 2.68 1.36 1.36 0 0 Z " fill="#319F82" transform="translate(12,40)"/>
<path d="M0 0 C0.66 0.66 1.32 1.32 2 2 C0.71064081 3.14842923 -0.58156579 4.29366227 -1.875 5.4375 C-2.59429687 6.07558594 -3.31359375 6.71367188 -4.0546875 7.37109375 C-6 9 -6 9 -8 10 C-6.44303593 6.17836093 -3.96591316 3.81381505 -1 1 C-0.67 0.67 -0.34 0.34 0 0 Z " fill="#22A07A" transform="translate(96,35)"/>
<path d="M0 0 C0.66 0 1.32 0 2 0 C2.33 0.66 2.66 1.32 3 2 C6.62528568 2.20140476 8.86501708 1.85776765 12 0 C10.25 3.875 10.25 3.875 8 5 C6.00039988 5.039992 3.99952758 5.04346799 2 5 C1.34 3.35 0.68 1.7 0 0 Z " fill="#87CEBB" transform="translate(71,15)"/>
<path d="M0 0 C0.66 0 1.32 0 2 0 C1.67 2.97 1.34 5.94 1 9 C0.01 8.34 -0.98 7.68 -2 7 C-1.34 4.69 -0.68 2.38 0 0 Z " fill="#E1EFEC" transform="translate(64,29)"/>
<path d="M0 0 C1.98 0 3.96 0 6 0 C6 0.66 6 1.32 6 2 C3.09399739 3.25664978 1.20395416 4 -2 4 C-2 3.34 -2 2.68 -2 2 C-1.34 2 -0.68 2 0 2 C0 1.34 0 0.68 0 0 Z " fill="#1E9975" transform="translate(128,26)"/>
<path d="M0 0 C0.33 1.32 0.66 2.64 1 4 C0.01 4.495 0.01 4.495 -1 5 C-1 5.99 -1 6.98 -1 8 C-2.65 8.33 -4.3 8.66 -6 9 C-4.02 6.03 -2.04 3.06 0 0 Z " fill="#2E9C81" transform="translate(85,51)"/>
<path d="M0 0 C4.75 -0.125 4.75 -0.125 7 1 C6.67 1.99 6.34 2.98 6 4 C3.03 3.505 3.03 3.505 0 3 C0 2.01 0 1.02 0 0 Z " fill="#149A75" transform="translate(22,36)"/>
<path d="M0 0 C1.98 0.99 1.98 0.99 4 2 C3.67 3.98 3.34 5.96 3 8 C1.5 6.8125 1.5 6.8125 0 5 C-0.1875 2.3125 -0.1875 2.3125 0 0 Z " fill="#2D9E84" transform="translate(76,30)"/>
<path d="M0 0 C0.33 0.66 0.66 1.32 1 2 C1.66 2 2.32 2 3 2 C2.67 3.32 2.34 4.64 2 6 C0.02 6 -1.96 6 -4 6 C-4 5.34 -4 4.68 -4 4 C-2.68 4.33 -1.36 4.66 0 5 C0 3.35 0 1.7 0 0 Z " fill="#C9E1DB" transform="translate(65,68)"/>
<path d="M0 0 C2.4375 0.8125 2.4375 0.8125 5 2 C5.33 2.99 5.66 3.98 6 5 C5.34 5 4.68 5 4 5 C4 4.34 4 3.68 4 3 C1.69 3.33 -0.62 3.66 -3 4 C-2.34 3.67 -1.68 3.34 -1 3 C-0.67 2.01 -0.34 1.02 0 0 Z " fill="#0BA277" transform="translate(46,53)"/>
<path d="M0 0 C1.9453125 -0.29296875 1.9453125 -0.29296875 4.125 -0.1875 C5.40375 -0.125625 6.6825 -0.06375 8 0 C4.99382731 3.00617269 2.17618402 2.59585316 -2 3 C-1.34 2.01 -0.68 1.02 0 0 Z " fill="#E1F1ED" transform="translate(117,41)"/>
<path d="M0 0 C5.75 0.875 5.75 0.875 8 2 C8 2.66 8 3.32 8 4 C5.6875 4.25 5.6875 4.25 3 4 C1.1875 2 1.1875 2 0 0 Z " fill="#88B3A8" transform="translate(1,21)"/>
<path d="M0 0 C1.98 0.99 1.98 0.99 4 2 C3.67 3.32 3.34 4.64 3 6 C2.01 6 1.02 6 0 6 C0 4.02 0 2.04 0 0 Z " fill="#EEF6F4" transform="translate(58,66)"/>
<path d="M0 0 C0.33 1.32 0.66 2.64 1 4 C-0.98 4.99 -2.96 5.98 -5 7 C-5.33 6.34 -5.66 5.68 -6 5 C-4.02 3.35 -2.04 1.7 0 0 Z " fill="#CEE6E0" transform="translate(90,53)"/>
<path d="M0 0 C1.32 0.33 2.64 0.66 4 1 C3.67 1.99 3.34 2.98 3 4 C2.01 4.33 1.02 4.66 0 5 C-0.66 4.01 -1.32 3.02 -2 2 C-1.34 2 -0.68 2 0 2 C0 1.34 0 0.68 0 0 Z " fill="#199F7B" transform="translate(59,51)"/>
<path d="M0 0 C2.97 0.495 2.97 0.495 6 1 C6.33 1.99 6.66 2.98 7 4 C4.03 3.505 4.03 3.505 1 3 C0.67 2.01 0.34 1.02 0 0 Z " fill="#129D79" transform="translate(31,37)"/>
<path d="M0 0 C5.75 0.75 5.75 0.75 8 3 C6.35 3.33 4.7 3.66 3 4 C2.01 2.68 1.02 1.36 0 0 Z " fill="#B3DDD2" transform="translate(78,30)"/>
<path d="M0 0 C1.67542976 0.28604898 3.34385343 0.61781233 5 1 C4.67 1.99 4.34 2.98 4 4 C4.66 4.66 5.32 5.32 6 6 C4.68 6 3.36 6 2 6 C1.67 5.01 1.34 4.02 1 3 C0.34 2.34 -0.32 1.68 -1 1 C-0.67 0.67 -0.34 0.34 0 0 Z " fill="#37A787" transform="translate(19,34)"/>
<path d="M0 0 C0.99 0 1.98 0 3 0 C3.33 1.65 3.66 3.3 4 5 C1.525 4.01 1.525 4.01 -1 3 C-0.67 2.01 -0.34 1.02 0 0 Z " fill="#17A27D" transform="translate(81,27)"/>
<path d="" fill="#FDFDFD" transform="translate(0,0)"/>
<path d="" fill="#FDFDFD" transform="translate(0,0)"/>
</svg>
