<?xml version="1.0" encoding="UTF-8"?>
<svg version="1.1" xmlns="http://www.w3.org/2000/svg" width="144" height="132">
<path d="M0 0 C8.68225982 5.68597433 13.36762305 15.74358066 16.50390625 25.30859375 C17.04727126 28.25645591 16.87883441 30.14747043 16 33 C14.25 34.875 14.25 34.875 12 36 C9.4375 36 9.4375 36 7 35 C4.56367396 31.44168171 2.93253195 27.67190291 1.3125 23.6875 C0.87550781 22.61886719 0.43851562 21.55023437 -0.01171875 20.44921875 C-0.33785156 19.64097656 -0.66398437 18.83273438 -1 18 C-4.55225704 19.71435014 -7.74021634 21.77742023 -11 24 C-9.85248796 27.06003211 -8.52451334 29.92843932 -7 32.8125 C-2.40022128 42.0292208 -1.47045668 52.13512101 -4.125 62.125 C-8.03728665 73.46153296 -14.6106108 81.38319763 -25.25 86.875 C-33.96307577 91.06504599 -44.61012931 91.4447382 -54.0234375 89.31640625 C-56.49233162 88.37791495 -58.70720634 87.30900631 -61 86 C-61.78890625 85.56429687 -62.5778125 85.12859375 -63.390625 84.6796875 C-70.89601171 80.13172138 -77.51079468 72.60063355 -80 64 C-80.01953125 61.59375 -80.01953125 61.59375 -79 59 C-76.78498116 57.02403374 -74.6714049 55.37193037 -72.25 53.6875 C-70.79585004 52.63813763 -69.34278224 51.58727453 -67.890625 50.53515625 C-67.10623047 49.97199707 -66.32183594 49.40883789 -65.51367188 48.82861328 C-60.94853097 45.50762403 -56.48071217 42.05854609 -52 38.625 C-46.02015577 34.05604947 -40.02955224 29.50321656 -34 25 C-42.98387981 20.59973234 -53.39388715 20.46880354 -62.875 23.5625 C-73.41397501 28.00078858 -81.0514402 35.91186314 -85.92578125 46.16796875 C-90.12227313 57.23144734 -90.08235289 69.27234596 -85.8125 80.25 C-80.88384529 91.03406501 -72.9988604 99.97787727 -62.21484375 105.2109375 C-49.12491964 109.87436725 -33.9788635 109.9849224 -21.1171875 104.61328125 C-6.18353774 96.88446252 1.44277555 86.20957224 7.6875 70.9375 C9.74276527 66.33762058 9.74276527 66.33762058 12 65 C15.0625 65.125 15.0625 65.125 18 66 C20.25642567 69.3846385 20.34951025 71.12103073 19.78125 75.0859375 C15.59970406 90.68310385 4.59678567 104.46095586 -9 113 C-24.76335722 121.78749901 -41.54235221 124.46431321 -59.04492188 119.90478516 C-74.50122712 115.44451578 -86.867132 105.85907098 -95 92 C-102.35271748 77.99854863 -104.80428406 62.41021746 -100.375 47 C-95.30580144 33.06411965 -86.90314096 20.2298376 -73.21484375 13.6640625 C-59.23592214 7.54938882 -46.69189032 6.07534403 -32 11 C-30.50302376 11.71379 -29.02094714 12.46046471 -27.5625 13.25 C-23.64865083 15.17259258 -22.9679864 15.33054686 -19 14 C-16.20419711 12.08276977 -16.20419711 12.08276977 -13.5 9.6875 C-12.5821875 8.90761719 -11.664375 8.12773437 -10.71875 7.32421875 C-9.8215625 6.55722656 -8.924375 5.79023438 -8 5 C-3.39206196 1.13068732 -3.39206196 1.13068732 0 0 Z M-27.46484375 35.5703125 C-28.17366699 36.13065186 -28.88249023 36.69099121 -29.61279297 37.26831055 C-30.37994629 37.88101807 -31.14709961 38.49372559 -31.9375 39.125 C-40.84261078 46.15195846 -49.92298943 52.9126072 -59.08740234 59.59643555 C-61.06882284 61.05050581 -63.03627053 62.52215018 -65 64 C-64.27701049 68.63324265 -61.72467129 70.49709712 -58.23828125 73.3828125 C-52.02724149 77.87037002 -45.55499094 78.98058879 -38 78 C-29.37639962 76.00445611 -23.69037208 72.42834547 -18.72265625 65.12109375 C-14.72266247 58.07484136 -14.28280388 50.97373029 -16.1875 43.1875 C-17.44914396 39.10162551 -18.81381699 35.98062282 -22 33 C-24.65559281 33 -25.40106088 33.92174277 -27.46484375 35.5703125 Z " fill="#C868F4" transform="translate(113,7)"/>
<path d="M0 0 C0.99 0 1.98 0 3 0 C4.26425409 3.88306613 4.14735994 7.77653154 4.125 11.8125 C4.13080078 12.84213867 4.13080078 12.84213867 4.13671875 13.89257812 C4.12826847 18.35855357 3.72583566 22.59314064 3 27 C2.34 27 1.68 27 1 27 C1 28.32 1 29.64 1 31 C0.34 31 -0.32 31 -1 31 C-1 31.66 -1 32.32 -1 33 C-1.99 33.495 -1.99 33.495 -3 34 C-3 34.99 -3 35.98 -3 37 C-4.32 37 -5.64 37 -7 37 C-7 38.32 -7 39.64 -7 41 C-7.99 41 -8.98 41 -10 41 C-10 41.66 -10 42.32 -10 43 C-10.99 43.33 -11.98 43.66 -13 44 C-13 44.66 -13 45.32 -13 46 C-13.87640137 46.215354 -13.87640137 46.215354 -14.77050781 46.43505859 C-16.74654491 46.93577583 -18.71040723 47.48400885 -20.671875 48.0390625 C-25.21393005 49.16931438 -29.58506444 49.36722511 -34.25 49.375 C-35.03890625 49.39949219 -35.8278125 49.42398438 -36.640625 49.44921875 C-42.37215592 49.47826367 -42.37215592 49.47826367 -45.4921875 47.1015625 C-47.05470002 44.92376007 -47.83300535 43.67191436 -48 41 C-47.0625 38.75 -47.0625 38.75 -46 37 C-44.88625 37.165 -43.7725 37.33 -42.625 37.5 C-32.56488023 38.68458352 -23.00346531 38.71559321 -14.6328125 32.140625 C-13.27255832 30.89497099 -11.94262816 29.61477681 -10.65625 28.29296875 C-10.1096875 27.86628906 -9.563125 27.43960938 -9 27 C-6 28 -6 28 -5 29 C-4.34 27.68 -3.68 26.36 -3 25 C-2.34 25 -1.68 25 -1 25 C-0.67 22.36 -0.34 19.72 0 17 C-0.99 17.33 -1.98 17.66 -3 18 C-3.05416188 16.39620659 -3.09286638 14.79188594 -3.125 13.1875 C-3.14820313 12.29417969 -3.17140625 11.40085937 -3.1953125 10.48046875 C-3 8 -3 8 -1 5 C-0.61500109 3.34450469 -0.27206865 1.6777567 0 0 Z " fill="#C55CF7" transform="translate(103,46)"/>
<path d="M0 0 C-2.80380358 0.93460119 -4.20803085 1.08008804 -7.0703125 0.95703125 C-15.86350486 0.69528204 -24.09724418 0.80318868 -32.6875 2.875 C-33.77345459 3.13567261 -33.77345459 3.13567261 -34.88134766 3.40161133 C-36.60989097 3.85679019 -38.30963374 4.41887032 -40 5 C-40.33 5.66 -40.66 6.32 -41 7 C-38.525 7.99 -38.525 7.99 -36 9 C-36 10.32 -36 11.64 -36 13 C-36.969375 13.4125 -37.93875 13.825 -38.9375 14.25 C-39.948125 14.8275 -40.95875 15.405 -42 16 C-42.33993963 17.33166435 -42.67237988 18.66525136 -43 20 C-44.59375 22.0703125 -44.59375 22.0703125 -46.5 24.125 C-49.05461886 26.85237239 -49.05461886 26.85237239 -51 30 C-52.32 30 -53.64 30 -55 30 C-55.12375 30.804375 -55.2475 31.60875 -55.375 32.4375 C-55.58125 33.283125 -55.7875 34.12875 -56 35 C-56.99 35.495 -56.99 35.495 -58 36 C-59 33 -59 33 -59 30 C-59.97631329 30.98245363 -60.93010653 31.98729121 -61.875 33 C-62.40867187 33.556875 -62.94234375 34.11375 -63.4921875 34.6875 C-67.58867594 40.97019729 -67.38493907 48.74815928 -67.625 56 C-67.66367188 56.96550781 -67.70234375 57.93101563 -67.7421875 58.92578125 C-67.83556941 61.2836744 -67.92134329 63.64157756 -68 66 C-72.20296143 58.51118218 -70.81237465 47.43575025 -69.3125 39.24609375 C-65.45104734 25.87581392 -57.88346435 12.85864141 -46.00390625 5.0859375 C-30.56621821 -3.27990514 -16.81698428 -4.93063414 0 0 Z " fill="#C65EF7" transform="translate(81,18)"/>
<path d="M0 0 C3.12290635 0.48578543 5.99580359 0.9986012 9 2 C9 2.66 9 3.32 9 4 C8.01 4 7.02 4 6 4 C6 4.99 6 5.98 6 7 C4.68 7 3.36 7 2 7 C1.67 7.99 1.34 8.98 1 10 C0.505 9.505 0.505 9.505 0 9 C-0.33 9.99 -0.66 10.98 -1 12 C-6.37142857 16 -6.37142857 16 -9 16 C-9 16.66 -9 17.32 -9 18 C-10.98 18.66 -12.96 19.32 -15 20 C-15 20.99 -15 21.98 -15 23 C-18.96 24.98 -18.96 24.98 -23 27 C-21.72375881 30.63473078 -21.72375881 30.63473078 -19.375 33.625 C-18.694375 34.305625 -18.694375 34.305625 -18 35 C-18 35.99 -18 36.98 -18 38 C-17.34 38.33 -16.68 38.66 -16 39 C-16.33 40.32 -16.66 41.64 -17 43 C-19.97 43.495 -19.97 43.495 -23 44 C-23.33 42.68 -23.66 41.36 -24 40 C-24.639375 39.87625 -25.27875 39.7525 -25.9375 39.625 C-26.618125 39.41875 -27.29875 39.2125 -28 39 C-28.33 38.34 -28.66 37.68 -29 37 C-29.66 37 -30.32 37 -31 37 C-31 35.02 -31 33.04 -31 31 C-31.66 30.67 -32.32 30.34 -33 30 C-32.34 29.54625 -31.68 29.0925 -31 28.625 C-30.34 28.08875 -29.68 27.5525 -29 27 C-29 26.34 -29 25.68 -29 25 C-27.68 24.34 -26.36 23.68 -25 23 C-25.33 21.68 -25.66 20.36 -26 19 C-25.030625 18.731875 -24.06125 18.46375 -23.0625 18.1875 C-22.051875 17.795625 -21.04125 17.40375 -20 17 C-19.67 16.01 -19.34 15.02 -19 14 C-18.030625 13.690625 -17.06125 13.38125 -16.0625 13.0625 C-12.91850804 12.3448211 -12.91850804 12.3448211 -11.875 10.0625 C-11.58625 9.381875 -11.2975 8.70125 -11 8 C-8.98342294 6.18508064 -7.60350851 5.12801696 -4.9375 4.5625 C-2.26590612 3.78687597 -1.47127025 2.28046889 0 0 Z " fill="#C75CF8" transform="translate(69,43)"/>
<path d="M0 0 C0.84473877 -0.00153076 1.68947754 -0.00306152 2.55981445 -0.00463867 C6.84771591 0.07264804 10.3967893 0.2859988 14.25 2.375 C15.178125 3.3959375 15.178125 3.3959375 16.125 4.4375 C19.00120068 7.05991827 21.44940343 7.08264642 25.25 7.375 C23.25 10.375 23.25 10.375 20.9375 10.9375 C20.050625 11.081875 19.16375 11.22625 18.25 11.375 C17.445625 11.766875 16.64125 12.15875 15.8125 12.5625 C12.38233292 13.65011395 10.49809695 12.73466849 7.25 11.375 C7.25 10.715 7.25 10.055 7.25 9.375 C-1 9.375 -9.25 9.375 -17.75 9.375 C-18.08 8.385 -18.41 7.395 -18.75 6.375 C-19.74 7.035 -20.73 7.695 -21.75 8.375 C-21.75 9.035 -21.75 9.695 -21.75 10.375 C-26.5 8.5 -26.5 8.5 -28.75 7.375 C-28.42 6.385 -28.09 5.395 -27.75 4.375 C-25.27041558 3.44476695 -23.00378636 2.77282343 -20.4375 2.1875 C-19.69145508 2.01460449 -18.94541016 1.84170898 -18.17675781 1.66357422 C-12.11201393 0.39435462 -6.18770052 0.00627614 0 0 Z " fill="#C55DF7" transform="translate(68.75,17.625)"/>
<path d="M0 0 C0.99 0.99 1.98 1.98 3 3 C2.34 3.66 1.68 4.32 1 5 C1.32198966 8.09926819 1.32198966 8.09926819 2 11 C1.34 11 0.68 11 0 11 C0.14063283 14.64605302 0.28846818 18.29178139 0.4375 21.9375 C0.47681641 22.95908203 0.51613281 23.98066406 0.55664062 25.03320312 C0.80720001 31.06590209 1.25643055 37.007705 2 43 C0.35 43.66 -1.3 44.32 -3 45 C-3 44.34 -3 43.68 -3 43 C-3.99 42.67 -4.98 42.34 -6 42 C-6.33 40.35 -6.66 38.7 -7 37 C-7.66 37 -8.32 37 -9 37 C-9.05874776 33.66674246 -9.09384467 30.33362062 -9.125 27 C-9.14175781 26.06542969 -9.15851562 25.13085938 -9.17578125 24.16796875 C-9.22456815 17.19144236 -8.98006383 10.97009575 -5 5 C-4.34 5 -3.68 5 -3 5 C-2.690625 4.360625 -2.38125 3.72125 -2.0625 3.0625 C-1 1 -1 1 0 0 Z " fill="#C55DF7" transform="translate(22,47)"/>
<path d="M0 0 C1.65 0 3.3 0 5 0 C1.2123709 4.15516184 -3.28546137 7.2747567 -7.8125 10.5625 C-9.066073 11.47926514 -9.066073 11.47926514 -10.3449707 12.41455078 C-12.0587147 13.66757239 -13.77347941 14.91919916 -15.48925781 16.16943359 C-18.56179253 18.40959941 -21.62725373 20.65929821 -24.69213867 22.90991211 C-27.45984964 24.94209534 -30.22989866 26.97107675 -33 29 C-32.44123161 32.53631503 -31.34027339 33.91895128 -28.5625 36.125 C-26.60435026 37.70296618 -24.78150132 39.21849868 -23 41 C-23.66 41 -24.32 41 -25 41 C-25 42.32 -25 43.64 -25 45 C-25.66 45 -26.32 45 -27 45 C-26.505 45.78375 -26.01 46.5675 -25.5 47.375 C-24 50 -24 50 -24 52 C-20.81257885 52.05865035 -17.62529882 52.09381259 -14.4375 52.125 C-13.54224609 52.14175781 -12.64699219 52.15851563 -11.72460938 52.17578125 C-5.63634457 52.22038392 -0.52812297 51.76406148 5 49 C5.99 49.66 6.98 50.32 8 51 C-1.75703358 55.72046549 -12.43335821 56.75601335 -22.99609375 54.3046875 C-25.48626319 53.38010041 -27.69521376 52.31760346 -30 51 C-30.80050781 50.55269531 -31.60101563 50.10539062 -32.42578125 49.64453125 C-37.63976156 46.46152854 -40.7877432 43.18105936 -44 38 C-42.515 37.505 -42.515 37.505 -41 37 C-40.67 37.99 -40.34 38.98 -40 40 C-38.35 40 -36.7 40 -35 40 C-35 41.32 -35 42.64 -35 44 C-33.515 43.505 -33.515 43.505 -32 43 C-31.34 43.33 -30.68 43.66 -30 44 C-30.57055768 40.00609621 -31.81003643 37.36917472 -34 34 C-35 32.33333333 -36 30.66666667 -37 29 C-34.16569547 25.7457985 -32.31392226 24.4793247 -28 24 C-28 23.01 -28 22.02 -28 21 C-26.02 20.34 -24.04 19.68 -22 19 C-22 18.34 -22 17.68 -22 17 C-17.64705882 13 -17.64705882 13 -14 13 C-13.67 11.68 -13.34 10.36 -13 9 C-12.67 9.33 -12.34 9.66 -12 10 C-11.67 9.34 -11.34 8.68 -11 8 C-9.68 8 -8.36 8 -7 8 C-7 7.01 -7 6.02 -7 5 C-5.5459375 4.5978125 -5.5459375 4.5978125 -4.0625 4.1875 C-3.051875 3.795625 -2.04125 3.40375 -1 3 C-0.67 2.01 -0.34 1.02 0 0 Z " fill="#C878EE" transform="translate(82,42)"/>
<path d="M0 0 C-2.80380358 0.93460119 -4.20803085 1.08008804 -7.0703125 0.95703125 C-15.74216141 0.69705776 -23.95473768 0.7586485 -32.4375 2.75 C-33.47318115 2.98553589 -33.47318115 2.98553589 -34.52978516 3.22583008 C-38.87320698 4.34916602 -41.63474234 6.09280826 -45 9 C-45.66 9 -46.32 9 -47 9 C-47 9.66 -47 10.32 -47 11 C-48.64453125 12.65625 -48.64453125 12.65625 -50.8125 14.5 C-51.52019531 15.1084375 -52.22789063 15.716875 -52.95703125 16.34375 C-55 18 -55 18 -58 20 C-60.09037553 23.61795765 -61.3920502 26.86594138 -62 31 C-62.66 31 -63.32 31 -64 31 C-67.1093925 42.63577697 -67.6894943 54.01550933 -68 66 C-72.20296143 58.51118218 -70.81237465 47.43575025 -69.3125 39.24609375 C-65.45104734 25.87581392 -57.88346435 12.85864141 -46.00390625 5.0859375 C-30.56621821 -3.27990514 -16.81698428 -4.93063414 0 0 Z " fill="#D39FED" transform="translate(81,18)"/>
<path d="M0 0 C0.33 0.99 0.66 1.98 1 3 C0.01 3 -0.98 3 -2 3 C-2 3.99 -2 4.98 -2 6 C-1.38125 5.814375 -0.7625 5.62875 -0.125 5.4375 C2 5 2 5 4 6 C4 6.66 4 7.32 4 8 C4.66 7.67 5.32 7.34 6 7 C6 6.34 6 5.68 6 5 C7.65 4.67 9.3 4.34 11 4 C11.33 3.01 11.66 2.02 12 1 C12.99 1 13.98 1 15 1 C11.60937148 8.35702414 5.7171092 12.43517162 -1.125 16.375 C-1.72280273 16.72079102 -2.32060547 17.06658203 -2.93652344 17.42285156 C-6.26164845 19.26727127 -9.22290994 20.50113905 -13 21 C-12.67 20.01 -12.34 19.02 -12 18 C-9.95339181 17.29427304 -7.94407466 16.9904128 -5.8125 16.625 C-5.214375 16.41875 -4.61625 16.2125 -4 16 C-3.67 15.01 -3.34 14.02 -3 13 C-5.97859946 11.75891689 -8.85301239 10.71061011 -12 10 C-13.33376567 9.6684008 -14.6671571 9.33528896 -16 9 C-15.02160156 8.52820313 -15.02160156 8.52820313 -14.0234375 8.046875 C-9.10344145 5.6376734 -4.4667826 3.17376659 0 0 Z " fill="#C65DF7" transform="translate(104,104)"/>
<path d="M0 0 C0.66 0.33 1.32 0.66 2 1 C-0.36094675 6.71597633 -0.36094675 6.71597633 -3.25 8 C-4.1575 8.33 -5.065 8.66 -6 9 C-7.82929346 10.44699168 -9.54097505 11.98011552 -11.25390625 13.5625 C-13.07554731 15.06219555 -14.8844811 15.97522681 -17 17 C-17.495 17.515625 -17.99 18.03125 -18.5 18.5625 C-20.27460185 20.26316011 -21.61006256 20.58794182 -24 21 C-24 21.99 -24 22.98 -24 24 C-23.01 24.33 -22.02 24.66 -21 25 C-22.98 25.66 -24.96 26.32 -27 27 C-26.67 27.99 -26.34 28.98 -26 30 C-27.98 30.99 -27.98 30.99 -30 32 C-29.67 32.33 -29.34 32.66 -29 33 C-28.95936168 34.66617115 -28.957279 36.33388095 -29 38 C-32.69306869 34.06866882 -33.40784692 31.29197856 -34 26 C-22.76209629 17.20273041 -11.45107423 8.51810154 0 0 Z " fill="#CE95EA" transform="translate(67,41)"/>
<path d="M0 0 C0.99 0 1.98 0 3 0 C4.27328905 3.90071089 4.14732046 7.82011576 4.125 11.875 C4.12886719 12.56980469 4.13273437 13.26460937 4.13671875 13.98046875 C4.12897598 18.09187906 3.79640249 21.9674223 3 26 C0.36 26.66 -2.28 27.32 -5 28 C-4.01 26.515 -4.01 26.515 -3 25 C-2.34 25 -1.68 25 -1 25 C-0.67 22.36 -0.34 19.72 0 17 C-0.99 17.33 -1.98 17.66 -3 18 C-3.05416188 16.39620659 -3.09286638 14.79188594 -3.125 13.1875 C-3.14820312 12.29417969 -3.17140625 11.40085937 -3.1953125 10.48046875 C-3 8 -3 8 -1 5 C-0.61500109 3.34450469 -0.27206865 1.6777567 0 0 Z " fill="#C85CFA" transform="translate(103,46)"/>
<path d="M0 0 C4.43476564 0.70022615 5.85246408 1.85246408 9 5 C10.31747324 5.69748583 11.64914193 6.36959957 13 7 C12.67 8.98 12.34 10.96 12 13 C9.36 13 6.72 13 4 13 C4 12.34 4 11.68 4 11 C3.01 10.67 2.02 10.34 1 10 C1 9.34 1 8.68 1 8 C-0.32 8 -1.64 8 -3 8 C-4.75 6 -4.75 6 -6 4 C-4.35 3.67 -2.7 3.34 -1 3 C-0.67 2.01 -0.34 1.02 0 0 Z " fill="#C65DF8" transform="translate(40,109)"/>
<path d="M0 0 C2.875 0.9375 2.875 0.9375 4.875 3.9375 C4.921875 6.09375 4.921875 6.09375 4.625 8.4375 C4.53734375 9.2109375 4.4496875 9.984375 4.359375 10.78125 C3.875 12.9375 3.875 12.9375 1.875 15.9375 C1.545 12.3075 1.215 8.6775 0.875 4.9375 C0.215 4.9375 -0.445 4.9375 -1.125 4.9375 C-1.785 6.2575 -2.445 7.5775 -3.125 8.9375 C-4.115 8.9375 -5.105 8.9375 -6.125 8.9375 C-6.310625 9.741875 -6.310625 9.741875 -6.5 10.5625 C-8.84631148 19.47848361 -8.84631148 19.47848361 -12.125 21.9375 C-12.785 21.9375 -13.445 21.9375 -14.125 21.9375 C-13.84398438 21.24785156 -13.56296875 20.55820313 -13.2734375 19.84765625 C-12.47570107 17.82618129 -11.71239756 15.79091432 -10.9765625 13.74609375 C-10.57179688 12.63363281 -10.16703125 11.52117187 -9.75 10.375 C-9.35039063 9.25996094 -8.95078125 8.14492187 -8.5390625 6.99609375 C-6.53319474 2.65743504 -5.00113773 -0.10002275 0 0 Z " fill="#C061F0" transform="translate(128.125,72.0625)"/>
<path d="M0 0 C1.65 0 3.3 0 5 0 C1.2123709 4.15516184 -3.28546137 7.2747567 -7.8125 10.5625 C-9.066073 11.47926514 -9.066073 11.47926514 -10.3449707 12.41455078 C-12.0587147 13.66757239 -13.77347941 14.91919916 -15.48925781 16.16943359 C-18.56179253 18.40959941 -21.62725373 20.65929821 -24.69213867 22.90991211 C-27.45984964 24.94209534 -30.22989866 26.97107675 -33 29 C-32.21616433 32.86142204 -30.57189568 35.01328244 -28 38 C-31.3734229 36.55424733 -33.61595146 34.7950914 -36 32 C-36.75 29.75 -36.75 29.75 -37 28 C-31.375 24 -31.375 24 -28 24 C-28 23.01 -28 22.02 -28 21 C-26.02 20.34 -24.04 19.68 -22 19 C-22 18.34 -22 17.68 -22 17 C-17.64705882 13 -17.64705882 13 -14 13 C-13.67 11.68 -13.34 10.36 -13 9 C-12.67 9.33 -12.34 9.66 -12 10 C-11.67 9.34 -11.34 8.68 -11 8 C-9.68 8 -8.36 8 -7 8 C-7 7.01 -7 6.02 -7 5 C-5.5459375 4.5978125 -5.5459375 4.5978125 -4.0625 4.1875 C-3.051875 3.795625 -2.04125 3.40375 -1 3 C-0.67 2.01 -0.34 1.02 0 0 Z " fill="#CB94E6" transform="translate(82,42)"/>
<path d="M0 0 C1.0625 1.875 1.0625 1.875 2 4 C1.67 4.66 1.34 5.32 1 6 C1.66 6 2.32 6 3 6 C2.67 6.66 2.34 7.32 2 8 C1.01 7.67 0.02 7.34 -1 7 C-1.66 9.31 -2.32 11.62 -3 14 C-3.99 13.67 -4.98 13.34 -6 13 C-6 12.34 -6 11.68 -6 11 C-9.29075996 11.37904208 -9.29075996 11.37904208 -12 13 C-13.76586914 13.02172852 -13.76586914 13.02172852 -16.03515625 12.87890625 C-16.84404297 12.83056641 -17.65292969 12.78222656 -18.48632812 12.73242188 C-19.7615332 12.64831055 -19.7615332 12.64831055 -21.0625 12.5625 C-21.91650391 12.51029297 -22.77050781 12.45808594 -23.65039062 12.40429688 C-25.76721995 12.27421239 -27.88365244 12.13770029 -30 12 C-30 11.34 -30 10.68 -30 10 C-28.78376953 10.06960937 -28.78376953 10.06960937 -27.54296875 10.140625 C-18.99859705 10.4191377 -10.92222855 9.91107307 -3.984375 4.3984375 C-2.13792274 2.62904771 -2.13792274 2.62904771 0 0 Z " fill="#D08DF0" transform="translate(92,74)"/>
<path d="M0 0 C4.29961475 6.44942212 3.83104224 15.21798576 2.5390625 22.65234375 C-0.14407932 32.64310122 -5.46381858 41.04833406 -14 47 C-15.485 47.495 -15.485 47.495 -17 48 C-17.495 46.515 -17.495 46.515 -18 45 C-16.68 45 -15.36 45 -14 45 C-14 44.34 -14 43.68 -14 43 C-13.01 43 -12.02 43 -11 43 C-11 41.68 -11 40.36 -11 39 C-9.515 38.505 -9.515 38.505 -8 38 C-7.67 37.01 -7.34 36.02 -7 35 C-6.34 35 -5.68 35 -5 35 C-5 34.34 -5 33.68 -5 33 C-4.34 33 -3.68 33 -3 33 C-3 31.68 -3 30.36 -3 29 C-2.34 29 -1.68 29 -1 29 C-1 27.35 -1 25.7 -1 24 C-0.34 24 0.32 24 1 24 C0.505 12.12 0.505 12.12 0 0 Z " fill="#CE9BE6" transform="translate(107,44)"/>
<path d="M0 0 C2.475 0.99 2.475 0.99 5 2 C5 3.32 5 4.64 5 6 C5.99 6.33 6.98 6.66 8 7 C8 9.31 8 11.62 8 14 C8.66 14 9.32 14 10 14 C10.33 14.66 10.66 15.32 11 16 C12.65 16.33 14.3 16.66 16 17 C15.67 13.37 15.34 9.74 15 6 C15.66 5.67 16.32 5.34 17 5 C18.01467908 8.3284059 18.81944635 11.51637656 19 15 C16.9375 18.1875 16.9375 18.1875 14 20 C11.375 20.125 11.375 20.125 9 19 C6.59989488 15.46931904 4.97353412 11.75980052 3.375 7.8125 C1.78763772 3.8608192 1.78763772 3.8608192 0 0 Z " fill="#CE9AE8" transform="translate(111,23)"/>
<path d="M0 0 C0.33 0.66 0.66 1.32 1 2 C9.25 2.33 17.5 2.66 26 3 C26 3.66 26 4.32 26 5 C27.32 5.33 28.64 5.66 30 6 C28 7 28 7 24.828125 6.0859375 C14.81028709 3.24414266 4.25102873 4.23914356 -5 9 C-5.71800781 9.54011719 -6.43601562 10.08023438 -7.17578125 10.63671875 C-9 12 -9 12 -11 12 C-11.33 11.01 -11.66 10.02 -12 9 C-9 7 -9 7 -5 7 C-5 6.01 -5 5.02 -5 4 C-4.34 4 -3.68 4 -3 4 C-3 3.34 -3 2.68 -3 2 C-3.66 1.67 -4.32 1.34 -5 1 C-3 0 -3 0 0 0 Z " fill="#CC8FEC" transform="translate(50,24)"/>
<path d="M0 0 C2 1.3125 2 1.3125 4 4 C4.36089448 7.68855385 4.22933459 11.3051649 4 15 C2.35 15 0.7 15 -1 15 C-1.33 14.01 -1.66 13.02 -2 12 C-2.66 12 -3.32 12 -4 12 C-4.25 5.375 -4.25 5.375 -2 2 C-1.34 2 -0.68 2 0 2 C0 1.34 0 0.68 0 0 Z " fill="#C65CF8" transform="translate(123,25)"/>
<path d="M0 0 C0.33 0.99 0.66 1.98 1 3 C1.99 3.33 2.98 3.66 4 4 C2.02 4.66 0.04 5.32 -2 6 C-1.67 6.99 -1.34 7.98 -1 9 C-2.98 9.99 -2.98 9.99 -5 11 C-4.67 11.33 -4.34 11.66 -4 12 C-3.95936168 13.66617115 -3.957279 15.33388095 -4 17 C-7.5897529 13.17865014 -9.09657655 10.31171046 -9 5 C-6.33518233 2.10676939 -3.90301031 0.57822375 0 0 Z " fill="#C35DF2" transform="translate(42,62)"/>
<path d="M0 0 C0.99 0 1.98 0 3 0 C2.5978125 1.11375 2.5978125 1.11375 2.1875 2.25 C-1.6751515 14.44784685 -2.79601949 23.48934347 0 36 C0.33690718 37.66594791 0.67122474 39.3324282 1 41 C0.01 40.67 -0.98 40.34 -2 40 C-4.57648465 33.84885618 -4.23111932 27.63781617 -4.125 21.0625 C-4.11597656 19.99708984 -4.10695313 18.93167969 -4.09765625 17.83398438 C-4.07423414 15.22241966 -4.04143452 12.61133063 -4 10 C-3.34 10 -2.68 10 -2 10 C-2.04125 9.278125 -2.0825 8.55625 -2.125 7.8125 C-1.99078695 4.79270631 -1.24829381 2.73064271 0 0 Z " fill="#D2A6E8" transform="translate(26,48)"/>
<path d="M0 0 C0.99 0 1.98 0 3 0 C-0.39062852 7.35702414 -6.2828908 11.43517162 -13.125 15.375 C-13.72280273 15.72079102 -14.32060547 16.06658203 -14.93652344 16.42285156 C-18.26164845 18.26727127 -21.22290994 19.50113905 -25 20 C-24.505 18.515 -24.505 18.515 -24 17 C-22.15234375 16.26953125 -22.15234375 16.26953125 -19.9375 15.8125 C-19.20402344 15.65394531 -18.47054687 15.49539062 -17.71484375 15.33203125 C-17.14894531 15.22246094 -16.58304688 15.11289063 -16 15 C-16 14.34 -16 13.68 -16 13 C-14.68 13 -13.36 13 -12 13 C-11.67 12.01 -11.34 11.02 -11 10 C-9.68 10 -8.36 10 -7 10 C-7.33 9.01 -7.66 8.02 -8 7 C-7.34 6.67 -6.68 6.34 -6 6 C-6 5.34 -6 4.68 -6 4 C-4.35 3.67 -2.7 3.34 -1 3 C-0.67 2.01 -0.34 1.02 0 0 Z " fill="#C98EE4" transform="translate(116,105)"/>
<path d="M0 0 C0.66 0 1.32 0 2 0 C3.35439668 2.70879335 3.06501451 5.00933268 3 8 C3.66 8.33 4.32 8.66 5 9 C5.625 11.5625 5.625 11.5625 6 14 C6.99 13.67 7.98 13.34 9 13 C10.23921302 15.97411124 11.30058404 18.85262818 12 22 C12.99 22 13.98 22 15 22 C15.33 23.98 15.66 25.96 16 28 C8.71719646 21.14559666 3.33729905 13.50982561 0 4 C0 2.68 0 1.36 0 0 Z " fill="#D4AAEA" transform="translate(13,84)"/>
<path d="M0 0 C1.02875891 3.19494843 0.90192951 5.19674609 0.125 8.4375 C-1.70473161 17.48725366 -1.68476098 26.79783992 -2 36 C-4.44403498 31.64522944 -4.38269444 27.96241367 -4.375 23.0625 C-4.37628906 22.22162842 -4.37757812 21.38075684 -4.37890625 20.5144043 C-4.25489594 13.12240311 -2.76869062 6.88464586 0 0 Z " fill="#D5A9EA" transform="translate(15,48)"/>
<path d="M0 0 C0.66 1.32 1.32 2.64 2 4 C2.66 4 3.32 4 4 4 C4 4.66 4 5.32 4 6 C2.35 6.33 0.7 6.66 -1 7 C-0.67 8.32 -0.34 9.64 0 11 C-0.99 10.67 -1.98 10.34 -3 10 C-3 9.34 -3 8.68 -3 8 C-3.61875 8.185625 -4.2375 8.37125 -4.875 8.5625 C-7 9 -7 9 -9 8 C-9 7.01 -9 6.02 -9 5 C-8.01 5 -7.02 5 -6 5 C-6 4.01 -6 3.02 -6 2 C-3 0 -3 0 0 0 Z " fill="#C45DF6" transform="translate(111,102)"/>
<path d="M0 0 C2 3 2 3 2.5 5.625 C2.665 6.40875 2.83 7.1925 3 8 C3.66 8.33 4.32 8.66 5 9 C5 9.66 5 10.32 5 11 C3.35 11.66 1.7 12.32 0 13 C-0.66 12.34 -1.32 11.68 -2 11 C-2 10.01 -2 9.02 -2 8 C-3.98 8.66 -5.96 9.32 -8 10 C-7.04367001 8.70684939 -6.08486149 7.41553147 -5.125 6.125 C-4.59132813 5.40570313 -4.05765625 4.68640625 -3.5078125 3.9453125 C-2 2 -2 2 0 0 Z " fill="#C85DF6" transform="translate(113,94)"/>
<path d="M0 0 C3 0.1875 3 0.1875 6 1 C8.18719033 4.28078549 8.21791927 4.80590051 7.75 8.5 C7.61851562 9.66015625 7.61851562 9.66015625 7.484375 10.84375 C7 13 7 13 5 16 C5 11.71 5 7.42 5 3 C4.01 2.67 3.02 2.34 2 2 C2 2.66 2 3.32 2 4 C1.38125 4.061875 0.7625 4.12375 0.125 4.1875 C-2.27761141 4.828919 -2.27761141 4.828919 -3.25 7.5625 C-3.4975 8.366875 -3.745 9.17125 -4 10 C-4.33 9.01 -4.66 8.02 -5 7 C-3.58511552 4.23760649 -2.19636905 2.19636905 0 0 Z " fill="#D4ACE9" transform="translate(125,72)"/>
<path d="M0 0 C4.62 0 9.24 0 14 0 C14.33 0.66 14.66 1.32 15 2 C14.34 2 13.68 2 13 2 C13 2.66 13 3.32 13 4 C8.545 4.495 8.545 4.495 4 5 C4 4.34 4 3.68 4 3 C2.68 3 1.36 3 0 3 C0 2.01 0 1.02 0 0 Z " fill="#C75CFB" transform="translate(87,116)"/>
<path d="M0 0 C0.81038091 8.23887262 -1.65325878 13.07884955 -6 20 C-6.66 18.68 -7.32 17.36 -8 16 C-7.01 15.67 -6.02 15.34 -5 15 C-4.93941406 14.32453125 -4.87882812 13.6490625 -4.81640625 12.953125 C-4.73261719 12.06109375 -4.64882812 11.1690625 -4.5625 10.25 C-4.48128906 9.36828125 -4.40007812 8.4865625 -4.31640625 7.578125 C-4.03486592 5.28409266 -3.74405173 3.18780774 -3 1 C-1 0 -1 0 0 0 Z " fill="#C26EED" transform="translate(130,81)"/>
<path d="M0 0 C2.475 0.495 2.475 0.495 5 1 C0.16993432 5.83006568 -6.24411093 6.16461316 -12.70874023 6.20654297 C-16.14131668 6.17877189 -19.5688996 6.10636017 -23 6 C-23 5.67 -23 5.34 -23 5 C-21.38931641 4.81824219 -21.38931641 4.81824219 -19.74609375 4.6328125 C-18.30986025 4.46384385 -16.87366428 4.29455596 -15.4375 4.125 C-14.73302734 4.04636719 -14.02855469 3.96773438 -13.30273438 3.88671875 C-8.6868291 3.33366097 -4.43823397 2.38804164 0 1 C0 0.67 0 0.34 0 0 Z " fill="#CA96E4" transform="translate(85,91)"/>
<path d="M0 0 C1.65 0 3.3 0 5 0 C5 0.99 5 1.98 5 3 C8.96 3 12.92 3 17 3 C17 3.33 17 3.66 17 4 C9.08 4.495 9.08 4.495 1 5 C0.67 6.32 0.34 7.64 0 9 C-1.125 6.75 -1.125 6.75 -2 4 C-1.125 1.6875 -1.125 1.6875 0 0 Z " fill="#C469F1" transform="translate(57,83)"/>
<path d="M0 0 C0.66 0.66 1.32 1.32 2 2 C-2.38512875 5.31558515 -5.37458159 6.54996653 -11 7 C-10.34 6.67 -9.68 6.34 -9 6 C-8.67 5.01 -8.34 4.02 -8 3 C-7.67 2.01 -7.34 1.02 -7 0 C-4.29393021 -1.35303489 -2.8671629 -0.7884698 0 0 Z " fill="#C65DF9" transform="translate(84,35)"/>
<path d="M0 0 C2.125 0.375 2.125 0.375 4 1 C4.25 3.25 4.25 3.25 4 6 C2 8.3125 2 8.3125 0 10 C-0.33 9.01 -0.66 8.02 -1 7 C-1.99 6.67 -2.98 6.34 -4 6 C-2.84826645 3.53199953 -1.95216435 1.95216435 0 0 Z " fill="#C86BF4" transform="translate(119,96)"/>
<path d="M0 0 C0.66 0.33 1.32 0.66 2 1 C1.67 1.928125 1.34 2.85625 1 3.8125 C-0.14967004 6.92029291 -0.14967004 6.92029291 0 10 C-0.94875 9.814375 -1.8975 9.62875 -2.875 9.4375 C-5.89868793 8.71313368 -5.89868793 8.71313368 -8 10 C-6.5682479 4.98886765 -4.01554307 3.05530451 0 0 Z " fill="#C15DEC" transform="translate(75,35)"/>
<path d="M0 0 C0 0.99 0 1.98 0 3 C-1.32 3.33 -2.64 3.66 -4 4 C-3.72459296 7.81813447 -3.72459296 7.81813447 -2 11 C-1.95936168 12.66617115 -1.957279 14.33388095 -2 16 C-5.5897529 12.17865014 -7.09657655 9.31171046 -7 4 C-3.20512821 0 -3.20512821 0 0 0 Z " fill="#D3A7EA" transform="translate(40,63)"/>
<path d="M0 0 C3.4375 0.8125 3.4375 0.8125 7 2 C7.33 2.99 7.66 3.98 8 5 C9.32 5 10.64 5 12 5 C13.75 6.375 13.75 6.375 15 8 C15 8.66 15 9.32 15 10 C8.93941903 8.60140439 4.57201885 5.05385671 0 1 C0 0.67 0 0.34 0 0 Z " fill="#C791E5" transform="translate(29,112)"/>
<path d="M0 0 C0.99 0 1.98 0 3 0 C4.03307771 1.76371818 5.05112049 3.53625033 6.0625 5.3125 C6.63097656 6.29863281 7.19945313 7.28476562 7.78515625 8.30078125 C9 11 9 11 8 14 C7.34 13.34 6.68 12.68 6 12 C6 10.68 6 9.36 6 8 C5.01 7.67 4.02 7.34 3 7 C2.3125 4.9375 2.3125 4.9375 2 3 C1.34 3 0.68 3 0 3 C0 2.01 0 1.02 0 0 Z " fill="#CB90E6" transform="translate(98,31)"/>
<path d="M0 0 C0.28875 0.639375 0.5775 1.27875 0.875 1.9375 C1.82823451 4.15206079 1.82823451 4.15206079 4 5 C4 6.32 4 7.64 4 9 C4.99 9 5.98 9 7 9 C7.33 10.98 7.66 12.96 8 15 C6.33333333 13.33333333 4.66666667 11.66666667 3 10 C2.401875 9.54625 1.80375 9.0925 1.1875 8.625 C-0.76866678 5.94814019 -0.18066268 3.19170739 0 0 Z " fill="#CD93EB" transform="translate(21,97)"/>
<path d="M0 0 C5.28 0 10.56 0 16 0 C12 3 12 3 9.74609375 3.14453125 C8.98425781 3.03496094 8.22242187 2.92539063 7.4375 2.8125 C6.67308594 2.71582031 5.90867187 2.61914062 5.12109375 2.51953125 C3 2 3 2 0 0 Z " fill="#BF70E7" transform="translate(63,117)"/>
<path d="M0 0 C0.33 0.66 0.66 1.32 1 2 C0.01789629 4.0088485 -0.98440599 6.00787329 -2 8 C-2.69907414 10.73572585 -2.69907414 10.73572585 -3 13 C-3.66 13 -4.32 13 -5 13 C-5.33 13.66 -5.66 14.32 -6 15 C-5.61471495 8.83543922 -3.52913975 5.01372252 0 0 Z " fill="#CE9BE5" transform="translate(22,36)"/>
<path d="M0 0 C0.33 0.99 0.66 1.98 1 3 C-0.60397277 3.16852247 -2.2081869 3.33474886 -3.8125 3.5 C-4.70582031 3.5928125 -5.59914063 3.685625 -6.51953125 3.78125 C-9 4 -9 4 -12 4 C-8.47224824 -0.05691453 -5.19281521 -0.14424487 0 0 Z " fill="#C160EB" transform="translate(97,113)"/>
<path d="M0 0 C0.78375 0.268125 1.5675 0.53625 2.375 0.8125 C6.89239169 2.29233521 11.44270338 3.64902274 16 5 C16 5.33 16 5.66 16 6 C9.45504337 6.22186294 5.5540573 5.70270486 0 2 C0 1.34 0 0.68 0 0 Z " fill="#D1A2E7" transform="translate(45,110)"/>
<path d="M0 0 C0.99 0 1.98 0 3 0 C1.4169423 4.2742558 -1.50568404 6.26531794 -5 9 C-5.33 7.35 -5.66 5.7 -6 4 C-4.35 3.67 -2.7 3.34 -1 3 C-0.67 2.01 -0.34 1.02 0 0 Z " fill="#C37EE5" transform="translate(116,105)"/>
<path d="M0 0 C0.33 0 0.66 0 1 0 C1.48979592 7.34693878 1.48979592 7.34693878 -0.875 10.5 C-3 12 -3 12 -5 12 C-3.41037341 7.96479403 -1.71767682 3.98188718 0 0 Z " fill="#D19BED" transform="translate(119,82)"/>
<path d="M0 0 C0.99 0 1.98 0 3 0 C3 1.32 3 2.64 3 4 C3.66 4 4.32 4 5 4 C5 9.28 5 14.56 5 20 C4.67 20 4.34 20 4 20 C3.87882812 18.97519531 3.75765625 17.95039062 3.6328125 16.89453125 C3.46389541 15.53381021 3.2946048 14.1731355 3.125 12.8125 C3.00705078 11.80219727 3.00705078 11.80219727 2.88671875 10.77148438 C2.39528587 6.89672516 1.64019099 3.54915277 0 0 Z " fill="#C171E5" transform="translate(95,45)"/>
<path d="M0 0 C3.37462715 0.54723683 5.08235 1.0549 8 3 C10.62531524 3.16713569 10.62531524 3.16713569 13 3 C12.67 3.99 12.34 4.98 12 6 C8.63295715 6.2295711 6.58629732 6.33943529 3.625 4.625 C3.08875 4.08875 2.5525 3.5525 2 3 C2 2.34 2 1.68 2 1 C1.34 0.67 0.68 0.34 0 0 Z " fill="#D3A2EA" transform="translate(81,19)"/>
<path d="M0 0 C1.32 0 2.64 0 4 0 C2.09014115 4.29718241 -0.6891507 7.6891507 -4 11 C-4 9.02 -4 7.04 -4 5 C-3.01 5 -2.02 5 -1 5 C-0.67 3.35 -0.34 1.7 0 0 Z " fill="#CE98E7" transform="translate(33,37)"/>
<path d="M0 0 C7.26 0 14.52 0 22 0 C21.67 0.99 21.34 1.98 21 3 C20.34 3 19.68 3 19 3 C19 2.34 19 1.68 19 1 C12.73 1 6.46 1 0 1 C0 0.67 0 0.34 0 0 Z " fill="#BE63E9" transform="translate(57,26)"/>
<path d="M0 0 C0.99 0.33 1.98 0.66 3 1 C3 1.99 3 2.98 3 4 C1.68 4.33 0.36 4.66 -1 5 C-1 5.66 -1 6.32 -1 7 C-1.99 7 -2.98 7 -4 7 C-4.33 5.68 -4.66 4.36 -5 3 C-3.35 2.67 -1.7 2.34 0 2 C0 1.34 0 0.68 0 0 Z " fill="#C05EF8" transform="translate(102,19)"/>
<path d="M0 0 C0.66 0.99 1.32 1.98 2 3 C4.58380177 3.25030977 4.58380177 3.25030977 7 3 C6.67 4.65 6.34 6.3 6 8 C5.01 8 4.02 8 3 8 C1.61328125 6.46875 1.61328125 6.46875 0.3125 4.5 C-0.12449219 3.8503125 -0.56148437 3.200625 -1.01171875 2.53125 C-1.50091797 1.77328125 -1.50091797 1.77328125 -2 1 C-1.34 0.67 -0.68 0.34 0 0 Z " fill="#CA8AED" transform="translate(40,79)"/>
<path d="M0 0 C2.05078125 0.03255208 4.1015625 0.06510417 6.15234375 0.09765625 C5.15234375 2.09765625 5.15234375 2.09765625 2.8671875 2.94921875 C1.95066406 3.20445313 1.03414062 3.4596875 0.08984375 3.72265625 C-1.28880859 4.11324219 -1.28880859 4.11324219 -2.6953125 4.51171875 C-3.40558594 4.70507812 -4.11585937 4.8984375 -4.84765625 5.09765625 C-2.44354091 0.12915121 -2.44354091 0.12915121 0 0 Z " fill="#C88AE4" transform="translate(50.84765625,26.90234375)"/>
<path d="M0 0 C0.33 0.66 0.66 1.32 1 2 C-0.0625 5 -0.0625 5 -2 8 C-5.1875 9.375 -5.1875 9.375 -8 10 C-7.04367001 8.70684939 -6.08486149 7.41553147 -5.125 6.125 C-4.59132813 5.40570313 -4.05765625 4.68640625 -3.5078125 3.9453125 C-2 2 -2 2 0 0 Z " fill="#D2A5E7" transform="translate(113,94)"/>
<path d="M0 0 C2.33944736 0.28730055 4.6739143 0.61936779 7 1 C5.37660195 2.70884005 3.70680947 4.37446717 2 6 C1.34 6 0.68 6 0 6 C-0.38218767 4.34385343 -0.71395102 2.67542976 -1 1 C-0.67 0.67 -0.34 0.34 0 0 Z " fill="#C97FEC" transform="translate(106,21)"/>
<path d="M0 0 C-1.40751221 0.86916887 -2.8264521 1.71985149 -4.25 2.5625 C-5.03890625 3.03816406 -5.8278125 3.51382812 -6.640625 4.00390625 C-9.30844625 5.13022151 -10.34501768 5.0169313 -13 4 C-11.40233897 3.13372601 -9.79660056 2.28233535 -8.1875 1.4375 C-7.29417969 0.96183594 -6.40085937 0.48617188 -5.48046875 -0.00390625 C-3 -1 -3 -1 0 0 Z " fill="#DBBCED" transform="translate(49,19)"/>
<path d="M0 0 C2.32472205 2.85306797 3.7508258 5.54074837 5 9 C4.01 8.67 3.02 8.34 2 8 C2 7.34 2 6.68 2 6 C0.68 5.34 -0.64 4.68 -2 4 C-1.34 2.68 -0.68 1.36 0 0 Z " fill="#D19EEA" transform="translate(27,89)"/>
<path d="M0 0 C0.99 0.33 1.98 0.66 3 1 C3.33 2.98 3.66 4.96 4 7 C2.35 7 0.7 7 -1 7 C-1.04254356 5.00045254 -1.04080783 2.99958364 -1 1 C-0.67 0.67 -0.34 0.34 0 0 Z " fill="#C15FED" transform="translate(94,73)"/>
<path d="M0 0 C0 1.65 0 3.3 0 5 C0.66 5.33 1.32 5.66 2 6 C1.34 6 0.68 6 0 6 C0 6.66 0 7.32 0 8 C-0.66 7.67 -1.32 7.34 -2 7 C-1.67 6.34 -1.34 5.68 -1 5 C-2.32 5 -3.64 5 -5 5 C-3.33333333 0 -3.33333333 0 0 0 Z " fill="#C877F1" transform="translate(98,69)"/>
<path d="M0 0 C1.65 0 3.3 0 5 0 C2.24479785 2.95929119 -0.46627288 5.03681826 -4 7 C-3.67 5.68 -3.34 4.36 -3 3 C-2.34 3 -1.68 3 -1 3 C-0.67 2.01 -0.34 1.02 0 0 Z " fill="#D1A0E8" transform="translate(82,42)"/>
<path d="M0 0 C0 1.98 0 3.96 0 6 C-0.5775 5.319375 -1.155 4.63875 -1.75 3.9375 C-2.86375 2.9784375 -2.86375 2.9784375 -4 2 C-6.21858253 2.13641377 -6.21858253 2.13641377 -8 3 C-8 2.01 -8 1.02 -8 0 C-4.71023192 -1.09658936 -3.28696233 -0.79953138 0 0 Z " fill="#D3A7EA" transform="translate(95,39)"/>
<path d="M0 0 C2.6875 1.9375 2.6875 1.9375 5 4 C4.67 4.66 4.34 5.32 4 6 C3.34 5.34 2.68 4.68 2 4 C-0.4582293 3.83328148 -0.4582293 3.83328148 -3 4 C-3.99 4 -4.98 4 -6 4 C-3.94766315 1.7522025 -2.99332739 0.9977758 0 0 Z " fill="#DFC7EC" transform="translate(113,7)"/>
<path d="M0 0 C2.475 0.99 2.475 0.99 5 2 C3.8125 3.5 3.8125 3.5 2 5 C-0.6875 5.1875 -0.6875 5.1875 -3 5 C-2.01 3.35 -1.02 1.7 0 0 Z " fill="#CA82ED" transform="translate(80,30)"/>
<path d="M0 0 C0.33 0.66 0.66 1.32 1 2 C0.34 2 -0.32 2 -1 2 C-1 2.99 -1 3.98 -1 5 C-3.31 5.66 -5.62 6.32 -8 7 C-5.42215154 4.35247996 -3.08351902 2.05567935 0 0 Z " fill="#D9AAEA" transform="translate(102,15)"/>
<path d="M0 0 C2.0625 0.1875 2.0625 0.1875 4 1 C4.33 1.99 4.66 2.98 5 4 C3.35 4.33 1.7 4.66 0 5 C0 4.34 0 3.68 0 3 C-0.66 2.67 -1.32 2.34 -2 2 C-1.34 1.34 -0.68 0.68 0 0 Z " fill="#CD82EF" transform="translate(105,12)"/>
<path d="M0 0 C0.66 0 1.32 0 2 0 C0.90931332 3.77545388 0.0916909 6.47043472 -3 9 C-3.33 7.35 -3.66 5.7 -4 4 C-3.01 4 -2.02 4 -1 4 C-0.67 2.68 -0.34 1.36 0 0 Z " fill="#CE99E6" transform="translate(126,92)"/>
<path d="M0 0 C-1 3 -1 3 -4 5 C-7.1875 5.125 -7.1875 5.125 -10 5 C-9.360625 4.71125 -8.72125 4.4225 -8.0625 4.125 C-5.84793921 3.17176549 -5.84793921 3.17176549 -5 1 C-2 0 -2 0 0 0 Z " fill="#CC89EB" transform="translate(84,82)"/>
<path d="M0 0 C1.46911544 3.81970016 0.52561108 6.30641529 -1 10 C-1.66 10.66 -2.32 11.32 -3 12 C-2.49202991 7.6822542 -1.80317221 3.96697886 0 0 Z " fill="#DFC0EE" transform="translate(15,48)"/>
<path d="M0 0 C0.66 0.33 1.32 0.66 2 1 C1.34 2.65 0.68 4.3 0 6 C-0.99 5.67 -1.98 5.34 -3 5 C-3.99 5 -4.98 5 -6 5 C-4.02 3.35 -2.04 1.7 0 0 Z " fill="#D59DEE" transform="translate(75,35)"/>
<path d="M0 0 C0.66 0.33 1.32 0.66 2 1 C1.67 1.99 1.34 2.98 1 4 C-3.455 4.495 -3.455 4.495 -8 5 C-5.56159764 2.56159764 -3.14759102 1.37707107 0 0 Z " fill="#DCB8EC" transform="translate(96,109)"/>
<path d="M0 0 C2.97 0.33 5.94 0.66 9 1 C9 1.99 9 2.98 9 4 C6.03 3.01 3.06 2.02 0 1 C0 0.67 0 0.34 0 0 Z " fill="#CD97E6" transform="translate(44,122)"/>
<path d="M0 0 C2.31 0.66 4.62 1.32 7 2 C7.33 3.32 7.66 4.64 8 6 C4.63408134 4.55746343 2.48952921 2.66735273 0 0 Z " fill="#D0A1EA" transform="translate(29,112)"/>
<path d="M0 0 C0.33 0.99 0.66 1.98 1 3 C0.01 3 -0.98 3 -2 3 C-2.33 4.32 -2.66 5.64 -3 7 C-3.66 6.67 -4.32 6.34 -5 6 C-5 5.01 -5 4.02 -5 3 C-2.5 1.3125 -2.5 1.3125 0 0 Z " fill="#D6ABEA" transform="translate(104,104)"/>
</svg>
