<?xml version="1.0" encoding="UTF-8"?>
<svg version="1.1" xmlns="http://www.w3.org/2000/svg" width="186" height="169">
<path d="M0 0 C4.03251406 2.70178442 7.60376966 5.67510952 11.171875 8.953125 C13.49234598 10.88975868 15.9090321 12.38291926 18.5 13.9375 C35.99430561 24.77425042 49.77133357 42.77868484 55.25 62.6875 C55.53493005 64.45611987 55.80619529 66.22700556 56.0625 68 C56.88153026 72.77009293 58.81767652 74.7608487 62.69140625 77.53125 C64.25 78.6875 64.25 78.6875 65.25 80.6875 C65.50869471 85.03928028 65.52106692 89.39492451 65.54516602 93.75341797 C65.56232692 95.91569182 65.60620542 98.07641507 65.65039062 100.23828125 C65.66052276 101.62238462 65.66903723 103.00650097 65.67578125 104.390625 C65.69765503 106.27249512 65.69765503 106.27249512 65.7199707 108.19238281 C65.16181914 112.34329072 63.86724859 114.45489785 61.25 117.6875 C58.04619983 119.82336678 57.23060033 119.91882175 53.5625 119.8125 C52.75425781 119.79445313 51.94601563 119.77640625 51.11328125 119.7578125 C50.49839844 119.73460937 49.88351563 119.71140625 49.25 119.6875 C48.9096875 121.04875 48.9096875 121.04875 48.5625 122.4375 C47.04899036 126.18523815 45.58741871 127.48968768 42.25 129.6875 C39.08800849 130.74149717 36.63539814 130.92195913 33.3125 131 C32.27222656 131.03738281 31.23195312 131.07476562 30.16015625 131.11328125 C26.46886561 130.57321322 25.53926388 129.58646239 23.25 126.6875 C22.74879456 123.95556641 22.74879456 123.95556641 22.74829102 120.7890625 C22.73891006 119.60103027 22.72952911 118.41299805 22.71986389 117.18896484 C22.73671486 115.27011475 22.73671486 115.27011475 22.75390625 113.3125 C22.75245102 111.99588379 22.75099579 110.67926758 22.74949646 109.32275391 C22.74811342 106.53853323 22.76065336 103.7548283 22.78344727 100.97070312 C22.81183258 97.40615852 22.80909379 93.84247055 22.79635715 90.27786255 C22.78772034 86.87265228 22.80284912 83.46769583 22.81640625 80.0625 C22.81347061 78.7832666 22.81053497 77.5040332 22.80751038 76.18603516 C22.82019455 74.99800293 22.83287872 73.8099707 22.84594727 72.5859375 C22.85135025 71.54099121 22.85675323 70.49604492 22.86231995 69.41943359 C23.30673578 66.28768993 24.00971877 64.90065643 26.25 62.6875 C29.61328125 62.15625 29.61328125 62.15625 33.5625 62.1875 C34.85800781 62.1771875 36.15351563 62.166875 37.48828125 62.15625 C41.94236628 62.78527966 43.76582765 63.96498393 47.25 66.6875 C47.25 52.71582202 36.0456887 38.8842595 26.80078125 29.18359375 C24.70116554 27.12899277 22.65549044 25.36063972 20.25 23.6875 C20.47816406 24.78707031 20.70632812 25.88664062 20.94140625 27.01953125 C24.65480194 45.72859851 21.56712451 58.50837293 11.25 74.6875 C9.9902644 76.55279981 8.71655173 78.4080554 7.44189453 80.26318359 C-0.09129243 91.27107749 -4.31556533 101.29388325 -5.75 114.6875 C-5.86085938 115.69167969 -5.97171875 116.69585937 -6.0859375 117.73046875 C-6.32785392 120.04828963 -6.55083685 122.36567699 -6.75 124.6875 C-5.76 125.0175 -4.77 125.3475 -3.75 125.6875 C-4.08 127.3375 -4.41 128.9875 -4.75 130.6875 C-19.27 130.6875 -33.79 130.6875 -48.75 130.6875 C-49.245 128.2125 -49.245 128.2125 -49.75 125.6875 C-48.76 125.3575 -47.77 125.0275 -46.75 124.6875 C-48.36309802 105.58502349 -53.36933839 92.50008208 -64.41796875 76.921875 C-74.06336428 63.19097561 -77.37826692 50.47058217 -75.75 33.6875 C-75.05438557 30.18955315 -74.16367329 26.96082684 -72.75 23.6875 C-86.5843953 32.4982322 -96.7462868 47.81498834 -100.75 63.625 C-101.10480705 65.30811595 -101.44729393 66.99423794 -101.75 68.6875 C-100.96625 67.883125 -100.1825 67.07875 -99.375 66.25 C-95.41583217 62.38509807 -92.61648836 62.47741713 -87.3125 62.4375 C-86.63123047 62.416875 -85.94996094 62.39625 -85.24804688 62.375 C-80.26630325 62.33596577 -80.26630325 62.33596577 -78.05625916 63.8407135 C-76.20619632 66.45632852 -76.36212206 68.37614742 -76.34594727 71.56420898 C-76.33326309 72.77233749 -76.32057892 73.980466 -76.30751038 75.22520447 C-76.31044601 76.53147293 -76.31338165 77.83774139 -76.31640625 79.18359375 C-76.31184504 80.53736127 -76.30653965 81.89112647 -76.30052185 83.24488831 C-76.2915869 86.08205573 -76.29401762 88.91894174 -76.30395508 91.75610352 C-76.31544116 95.38916038 -76.29524252 99.02124476 -76.26603794 102.65417385 C-76.24767609 105.45007991 -76.24796831 108.24575295 -76.25367546 111.04170418 C-76.25390314 113.03145103 -76.23700174 115.02117594 -76.21986389 117.010849 C-76.23393532 118.82777 -76.23393532 118.82777 -76.24829102 120.68139648 C-76.24845718 121.74712387 -76.24862335 122.81285126 -76.24879456 123.91087341 C-76.87451591 127.3773053 -77.99316806 128.5585755 -80.75 130.6875 C-86.03078373 131.6215662 -91.18875735 131.21720733 -96.25 129.5 C-99.03028659 127.48429222 -100.87857285 125.56661869 -102.75 122.6875 C-102.75 121.6975 -102.75 120.7075 -102.75 119.6875 C-104.5753125 119.7803125 -104.5753125 119.7803125 -106.4375 119.875 C-110.39853329 120.07640847 -112.70583708 119.27602966 -115.75 116.6875 C-116.51760786 113.72168175 -116.42645928 110.79888412 -116.37890625 107.75 C-116.38131821 106.87351807 -116.38373016 105.99703613 -116.38621521 105.09399414 C-116.38523593 103.24132766 -116.37182301 101.38863222 -116.34692383 99.53613281 C-116.31262155 96.69755834 -116.32625688 93.86209687 -116.34570312 91.0234375 C-116.33880464 89.22394506 -116.32913224 87.42446067 -116.31640625 85.625 C-116.32136612 84.77494385 -116.32632599 83.9248877 -116.33143616 83.04907227 C-116.21407331 77.18757235 -116.21407331 77.18757235 -113.83959961 74.62890625 C-111.75 73.6875 -111.75 73.6875 -109.75 73.6875 C-109.73582031 73.11644531 -109.72164063 72.54539062 -109.70703125 71.95703125 C-108.58034675 52.80339468 -96.6297215 34.91799841 -83.0625 22.0625 C-78.62084052 18.18123681 -73.86386867 15.08030764 -68.85717773 11.99829102 C-65.27511583 9.76701074 -62.17447992 7.41111877 -59.125 4.5 C-42.76595422 -10.7908245 -18.48131302 -11.22531188 0 0 Z M-52.75 7.6875 C-53.636875 8.265 -54.52375 8.8425 -55.4375 9.4375 C-64.60350914 18.35577916 -69.76004664 29.95262182 -70.0625 42.6875 C-69.92304052 56.4010152 -64.02122426 66.69077902 -56.3125 77.5625 C-48.1391907 89.10661978 -42.75762997 99.46712533 -41.625 113.625 C-41.47991833 115.30107512 -41.33163909 116.97687749 -41.1796875 118.65234375 C-41.12022949 119.3805835 -41.06077148 120.10882324 -40.99951172 120.85913086 C-40.83715058 122.78167208 -40.83715058 122.78167208 -39.75 124.6875 C-38.43 124.6875 -37.11 124.6875 -35.75 124.6875 C-35.75 112.4775 -35.75 100.2675 -35.75 87.6875 C-36.74 87.3575 -37.73 87.0275 -38.75 86.6875 C-38.75 85.3675 -38.75 84.0475 -38.75 82.6875 C-30.83 82.6875 -22.91 82.6875 -14.75 82.6875 C-14.75 84.0075 -14.75 85.3275 -14.75 86.6875 C-15.74 87.0175 -16.73 87.3475 -17.75 87.6875 C-17.75 99.8975 -17.75 112.1075 -17.75 124.6875 C-16.1 124.6875 -14.45 124.6875 -12.75 124.6875 C-12.71036133 124.10895264 -12.67072266 123.53040527 -12.62988281 122.93432617 C-11.08092836 101.43081618 -11.08092836 101.43081618 -6.75 92.6875 C-6.26660156 91.69234375 -5.78320312 90.6971875 -5.28515625 89.671875 C-1.76213113 82.80819312 2.32953267 76.51400659 6.67797852 70.15795898 C14.24870028 58.93573548 17.25643634 49.2389527 16.25 35.6875 C13.64262761 23.3509038 7.47662037 13.09355249 -2.75 5.6875 C-19.38737853 -4.59314428 -36.80277672 -3.14731655 -52.75 7.6875 Z M-95.34399414 70.02929688 C-97.59987579 74.29428028 -97.29974147 78.46774023 -97.24609375 83.21875 C-97.24754898 84.24681763 -97.24900421 85.27488525 -97.25050354 86.33410645 C-97.2488447 88.50613236 -97.23728521 90.67817005 -97.21655273 92.85009766 C-97.1876061 96.17531243 -97.19594307 99.49893228 -97.20898438 102.82421875 C-97.20274668 104.93490359 -97.19435549 107.04558338 -97.18359375 109.15625 C-97.18652939 110.15112427 -97.18946503 111.14599854 -97.19248962 112.17102051 C-97.17980545 113.09878296 -97.16712128 114.02654541 -97.15405273 114.98242188 C-97.14864975 115.79642456 -97.14324677 116.61042725 -97.13768005 117.44909668 C-96.83496082 120.20571215 -96.83496082 120.20571215 -93.75 123.6875 C-90.12 123.6875 -86.49 123.6875 -82.75 123.6875 C-82.75 105.5375 -82.75 87.3875 -82.75 68.6875 C-91.75640217 67.92176102 -91.75640217 67.92176102 -95.34399414 70.02929688 Z M30.25 68.6875 C30.25 86.8375 30.25 104.9875 30.25 123.6875 C33.55 123.6875 36.85 123.6875 40.25 123.6875 C43.50330423 120.43419577 43.62656977 120.24633731 43.65405273 116.00415039 C43.67307899 114.58236229 43.67307899 114.58236229 43.69248962 113.1318512 C43.68955399 112.10994186 43.68661835 111.08803253 43.68359375 110.03515625 C43.69145653 108.45763832 43.69145653 108.45763832 43.69947815 106.84825134 C43.70590411 104.62320845 43.70455397 102.39813161 43.69604492 100.1730957 C43.68754112 96.76647465 43.71627989 93.36153316 43.74804688 89.95507812 C43.74965908 87.79427134 43.74908099 85.63346157 43.74609375 83.47265625 C43.75732773 82.45277115 43.76856171 81.43288605 43.78013611 80.38209534 C43.73076516 74.96819424 43.73076516 74.96819424 41.78149414 70.01342773 C38.39751881 67.99152782 38.39751881 67.99152782 30.25 68.6875 Z M-111.75 81.6875 C-113.91865006 86.02480012 -113.02428576 91.79845765 -113.0625 96.5625 C-113.09150391 97.76003906 -113.12050781 98.95757812 -113.15039062 100.19140625 C-113.15876953 101.34253906 -113.16714844 102.49367188 -113.17578125 103.6796875 C-113.19036377 104.73526855 -113.20494629 105.79084961 -113.2199707 106.87841797 C-112.94720078 109.78409712 -112.94720078 109.78409712 -111.03588867 112.06298828 C-108.53811904 114.17023731 -108.53811904 114.17023731 -103.75 113.6875 C-103.75 102.1375 -103.75 90.5875 -103.75 78.6875 C-107.35777515 78.6875 -108.81295544 79.6779432 -111.75 81.6875 Z M50.25 78.6875 C50.25 90.2375 50.25 101.7875 50.25 113.6875 C53.715 113.1925 53.715 113.1925 57.25 112.6875 C60.56348312 107.71727531 59.57756183 102.02546407 59.5625 96.1875 C59.57861328 94.93839844 59.59472656 93.68929687 59.61132812 92.40234375 C59.61197266 91.20738281 59.61261719 90.01242188 59.61328125 88.78125 C59.61626221 87.68490234 59.61924316 86.58855469 59.62231445 85.45898438 C59.45104607 82.72643552 59.45104607 82.72643552 58.10229492 80.86914062 C55.75651131 79.20246474 55.75651131 79.20246474 50.25 78.6875 Z " fill="#0E1A2A" transform="translate(115.75,12.3125)"/>
<path d="M0 0 C1.32 0.33 2.64 0.66 4 1 C4 1.99 4 2.98 4 4 C7.69541586 4.95024979 10.30458414 4.95024979 14 4 C14.66666667 7.33333333 15.33333333 10.66666667 16 14 C17.32 14.33 18.64 14.66 20 15 C19.625 17.4375 19.625 17.4375 19 20 C18.01 20.495 18.01 20.495 17 21 C16.16666667 22.91666667 16.16666667 22.91666667 16 25 C18.1385485 27.1385485 19.13275314 27.42655063 22 28 C22 28.66 22 29.32 22 30 C25.62885324 30.15149298 25.62885324 30.15149298 29 29 C29.66 29.33 30.32 29.66 31 30 C30.979375 30.763125 30.95875 31.52625 30.9375 32.3125 C30.87057159 35.10185786 30.87057159 35.10185786 32 38 C32.99 38 33.98 38 35 38 C35.33 38.99 35.66 39.98 36 41 C35.505 41.350625 35.01 41.70125 34.5 42.0625 C32.26936034 44.94374289 32.80019379 47.47009026 33 51 C26.25 53 26.25 53 24 53 C24 53.99 24 54.98 24 56 C22.35 55.67 20.7 55.34 19 55 C19 54.34 19 53.68 19 53 C15.535 53.495 15.535 53.495 12 54 C10.89661095 51.94034043 10.03572387 50.17351595 9.5625 47.875 C9.09878979 45.60539429 9.09878979 45.60539429 6 44 C6.33 42.68 6.66 41.36 7 40 C7.66 40 8.32 40 9 40 C9 37.36 9 34.72 9 32 C7.68 33.32 6.36 34.64 5 36 C3.68 35.34 2.36 34.68 1 34 C1 33.34 1 32.68 1 32 C-2.3 32 -5.6 32 -9 32 C-10 28 -10 28 -10.3125 25.375 C-10.76563526 22.82985584 -10.76563526 22.82985584 -13.0625 21.6875 C-13.701875 21.460625 -14.34125 21.23375 -15 21 C-14.67 19.35 -14.34 17.7 -14 16 C-13.01 16 -12.02 16 -11 16 C-10.67 14.02 -10.34 12.04 -10 10 C-10.66 10 -11.32 10 -12 10 C-11.6875 8.0625 -11.6875 8.0625 -11 6 C-8 5 -8 5 -5.5 4.6875 C-2.41706288 3.83969229 -1.63768188 2.67200728 0 0 Z M-3.5 13.125 C-5.25177508 15.92149994 -5.25177508 15.92149994 -4.9375 19.125 C-3.81910282 22.74885167 -3.81910282 22.74885167 -1 25 C2.45749949 25.66676878 2.45749949 25.66676878 6 25 C8.65884601 23.00979883 8.65884601 23.00979883 10 20 C9.936318 16.81590023 9.51040601 14.85067668 7.875 12.125 C3.74317392 9.64590435 0.07813714 10.08358343 -3.5 13.125 Z M15 38 C14.40412423 42.08600528 14.68432616 43.52648925 17 47 C18.8064655 48.0146239 18.8064655 48.0146239 21 48 C24.18650344 46.66611484 25.63819248 45.80874622 27.0625 42.625 C26.97487488 38.94474504 25.59148238 37.51949676 23 35 C19.3139451 35 17.85074644 35.68858396 15 38 Z " fill="#242D3E" transform="translate(74,26)"/>
<path d="M0 0 C1.25025719 -0.0049926 1.25025719 -0.0049926 2.52577209 -0.01008606 C4.29020637 -0.01515286 6.05465025 -0.01749446 7.8190918 -0.01733398 C10.52083094 -0.01951966 13.22216131 -0.03767551 15.92382812 -0.05664062 C17.63671735 -0.05957473 19.34960852 -0.06155941 21.0625 -0.0625 C21.87194565 -0.06968552 22.6813913 -0.07687103 23.5153656 -0.08427429 C27.40011198 -0.06842517 29.29035723 -0.03689726 32.59765625 2.16796875 C31.72265625 6.04296875 31.72265625 6.04296875 30.59765625 7.16796875 C27.66399879 7.28149891 24.75477163 7.33215583 21.8203125 7.3359375 C20.938629 7.3392659 20.0569455 7.3425943 19.14854431 7.34602356 C17.27978031 7.35109658 15.41100721 7.35343177 13.54223633 7.35327148 C10.67579281 7.35545683 7.80973465 7.3736053 4.94335938 7.39257812 C3.13151174 7.39551214 1.31966227 7.39749688 -0.4921875 7.3984375 C-1.78442482 7.40921577 -1.78442482 7.40921577 -3.10276794 7.42021179 C-9.17352215 7.39679035 -9.17352215 7.39679035 -11.40234375 5.16796875 C-11.15234375 3.10546875 -11.15234375 3.10546875 -10.40234375 1.16796875 C-7.15052065 -0.4579428 -3.57324337 0.00490023 0 0 Z " fill="#212C3B" transform="translate(78.40234375,147.83203125)"/>
<path d="M0 0 C0.33 0.66 0.66 1.32 1 2 C4.62885324 2.15149298 4.62885324 2.15149298 8 1 C8.66 1.33 9.32 1.66 10 2 C9.979375 2.763125 9.95875 3.52625 9.9375 4.3125 C9.87057159 7.10185786 9.87057159 7.10185786 11 10 C11.99 10 12.98 10 14 10 C14.33 10.99 14.66 11.98 15 13 C14.505 13.350625 14.01 13.70125 13.5 14.0625 C11.26936034 16.94374289 11.80019379 19.47009026 12 23 C5.25 25 5.25 25 3 25 C3 25.99 3 26.98 3 28 C1.35 27.67 -0.3 27.34 -2 27 C-2 26.34 -2 25.68 -2 25 C-4.31 25.33 -6.62 25.66 -9 26 C-9.66 24.68 -10.32 23.36 -11 22 C-10.34 21.34 -9.68 20.68 -9 20 C-9 21.32 -9 22.64 -9 24 C-5.27385847 22.88145414 -5.27385847 22.88145414 -3 20 C-1.845 19.566875 -0.69 19.13375 0.5 18.6875 C4.13165265 17.39367068 4.13165265 17.39367068 5.125 14.5625 C5.15785364 11.96489441 5.15785364 11.96489441 3.9375 9.6875 C2.02507792 7.68349716 2.02507792 7.68349716 -1.1875 7.75 C-2.115625 7.8325 -3.04375 7.915 -4 8 C-1.8614515 5.8614515 -0.86724686 5.57344937 2 5 C2 4.34 2 3.68 2 3 C1.34 3 0.68 3 0 3 C0 2.01 0 1.02 0 0 Z " fill="#3E4653" transform="translate(95,54)"/>
<path d="M0 0 C1.32 0 2.64 0 4 0 C4 0.66 4 1.32 4 2 C5.98 1.67 7.96 1.34 10 1 C10.268125 1.763125 10.53625 2.52625 10.8125 3.3125 C11.94424112 5.87380884 12.91223401 7.19692938 15 9 C14.67 9.763125 14.34 10.52625 14 11.3125 C12.82563314 13.99069135 12.82563314 13.99069135 13 17 C12.38125 17.103125 11.7625 17.20625 11.125 17.3125 C8.63473516 17.87525373 8.63473516 17.87525373 7 21 C6.01 21 5.02 21 4 21 C4 20.34 4 19.68 4 19 C1.69 19.33 -0.62 19.66 -3 20 C-3.33 18.02 -3.66 16.04 -4 14 C-4.99 14 -5.98 14 -7 14 C-6.67 10.7 -6.34 7.4 -6 4 C-4.02 3.67 -2.04 3.34 0 3 C0 2.01 0 1.02 0 0 Z M0 7 C-0.93391003 8.81656815 -0.93391003 8.81656815 -1 11 C0.3516367 13.24755753 0.3516367 13.24755753 2 15 C5.29075996 14.62095792 5.29075996 14.62095792 8 13 C8.2500773 10.54190002 8.2500773 10.54190002 8 8 C7.34 7.34 6.68 6.68 6 6 C2.2236068 5.7018576 2.2236068 5.7018576 0 7 Z " fill="#5D626C" transform="translate(101,35)"/>
<path d="M0 0 C1.65 0 3.3 0 5 0 C5 12.21 5 24.42 5 37 C3.35 37 1.7 37 0 37 C0 24.79 0 12.58 0 0 Z " fill="#F6F8F8" transform="translate(87,100)"/>
<path d="M0 0 C0.99 0 1.98 0 3 0 C3 1.32 3 2.64 3 4 C3.66 4 4.32 4 5 4 C5.33 4.99 5.66 5.98 6 7 C3.69 7.33 1.38 7.66 -1 8 C-1.19491452 9.45736087 -1.38069358 10.91594593 -1.5625 12.375 C-1.66691406 13.18710938 -1.77132812 13.99921875 -1.87890625 14.8359375 C-2.18237328 17.04899186 -2.18237328 17.04899186 -1 19 C-0.01 19.66 0.98 20.32 2 21 C1.34 21 0.68 21 0 21 C-0.33 21.99 -0.66 22.98 -1 24 C-2.65 24.33 -4.3 24.66 -6 25 C-6 23.68 -6 22.36 -6 21 C-6.66 21 -7.32 21 -8 21 C-10.1875 19.25 -10.1875 19.25 -12 17 C-11.75 14.75 -11.75 14.75 -11 13 C-10.34 13 -9.68 13 -9 13 C-9 10.36 -9 7.72 -9 5 C-6.36 4.67 -3.72 4.34 -1 4 C-0.67 2.68 -0.34 1.36 0 0 Z " fill="#343C4A" transform="translate(92,53)"/>
<path d="M0 0 C1.00023193 0.00523682 2.00046387 0.01047363 3.03100586 0.01586914 C4.1105957 0.0190918 5.19018555 0.02231445 6.30249023 0.02563477 C8.00695312 0.03820312 8.00695312 0.03820312 9.74584961 0.05102539 C11.45611328 0.05779297 11.45611328 0.05779297 13.20092773 0.06469727 C16.02845312 0.07652792 18.85587601 0.09301129 21.68334961 0.11352539 C22.06553728 1.76967196 22.39730063 3.43809563 22.68334961 5.11352539 C21.68334961 6.11352539 21.68334961 6.11352539 19.36669922 6.22705078 C18.36646729 6.22181396 17.36623535 6.21657715 16.33569336 6.21118164 C15.25610352 6.20795898 14.17651367 6.20473633 13.06420898 6.20141602 C11.92790039 6.19303711 10.7915918 6.1846582 9.62084961 6.17602539 C8.48067383 6.17151367 7.34049805 6.16700195 6.16577148 6.16235352 C3.3382461 6.15052287 0.51082321 6.13403949 -2.31665039 6.11352539 C-2.69883806 4.45737882 -3.03060141 2.78895515 -3.31665039 1.11352539 C-2.31665039 0.11352539 -2.31665039 0.11352539 0 0 Z " fill="#081525" transform="translate(79.316650390625,159.886474609375)"/>
<path d="M0 0 C1.70884005 1.62339805 3.37446717 3.29319053 5 5 C5 5.66 5 6.32 5 7 C6.32 7.33 7.64 7.66 9 8 C8.625 10.4375 8.625 10.4375 8 13 C7.01 13.495 7.01 13.495 6 14 C5.53348793 16.12576782 5.53348793 16.12576782 5.375 18.5625 C5.30023438 19.38878906 5.22546875 20.21507813 5.1484375 21.06640625 C5.09945312 21.70449219 5.05046875 22.34257813 5 23 C2.625 22.8125 2.625 22.8125 0 22 C-1.1875 19.5 -1.1875 19.5 -2 17 C-2.66 16.67 -3.32 16.34 -4 16 C-3.34 15.01 -2.68 14.02 -2 13 C-1.55296766 10.78415454 -1.18536758 8.55158039 -0.875 6.3125 C-0.70742187 5.13300781 -0.53984375 3.95351563 -0.3671875 2.73828125 C-0.24601562 1.83464844 -0.12484375 0.93101563 0 0 Z " fill="#2D3545" transform="translate(85,33)"/>
<path d="M0 0 C1 2 2 4 3 6 C5.02463255 6.65213292 5.02463255 6.65213292 7 7 C7.33 6.01 7.66 5.02 8 4 C8.33 4.66 8.66 5.32 9 6 C7.9375 7.5 7.9375 7.5 6 9 C4.845 8.979375 3.69 8.95875 2.5 8.9375 C-1.05807805 8.58924587 -1.05807805 8.58924587 -2.9375 11 C-3.288125 11.66 -3.63875 12.32 -4 13 C-5.32 12.34 -6.64 11.68 -8 11 C-7.34 8.69 -6.68 6.38 -6 4 C-6.99 3.34 -7.98 2.68 -9 2 C-6.03 1.34 -3.06 0.68 0 0 Z " fill="#575E6B" transform="translate(83,49)"/>
<path d="M0 0 C1.32 0.33 2.64 0.66 4 1 C4 1.99 4 2.98 4 4 C7.69541586 4.95024979 10.30458414 4.95024979 14 4 C14.79953138 7.28696233 15.09658936 8.71023192 14 12 C13.34 11.01 12.68 10.02 12 9 C11.34 11.31 10.68 13.62 10 16 C9.505 15.34 9.01 14.68 8.5 14 C4.89659788 11.1172783 2.53014958 11.69799003 -2 12 C-2 11.34 -2 10.68 -2 10 C0.97 10 3.94 10 7 10 C6.67 8.68 6.34 7.36 6 6 C5.01 5.67 4.02 5.34 3 5 C3 4.01 3 3.02 3 2 C1.68 2.99 0.36 3.98 -1 5 C-1.66 4.67 -2.32 4.34 -3 4 C-2.01 2.68 -1.02 1.36 0 0 Z " fill="#4B5261" transform="translate(74,26)"/>
<path d="M0 0 C0.99 0 1.98 0 3 0 C3 1.32 3 2.64 3 4 C3.66 4 4.32 4 5 4 C5.33 4.99 5.66 5.98 6 7 C3.69 7.33 1.38 7.66 -1 8 C-1 8.66 -1 9.32 -1 10 C-3.31 10.33 -5.62 10.66 -8 11 C-8.33 9.02 -8.66 7.04 -9 5 C-6.36 4.67 -3.72 4.34 -1 4 C-0.67 2.68 -0.34 1.36 0 0 Z " fill="#161F30" transform="translate(92,53)"/>
<path d="M0 0 C2.97 1.65 5.94 3.3 9 5 C9 6.32 9 7.64 9 9 C8.01 9 7.02 9 6 9 C6 8.34 6 7.68 6 7 C3.69 7.33 1.38 7.66 -1 8 C-1.04241723 5.66705225 -1.04092937 3.33297433 -1 1 C-0.67 0.67 -0.34 0.34 0 0 Z " fill="#373D4A" transform="translate(99,47)"/>
<path d="M0 0 C1.32 1.32 2.64 2.64 4 4 C4.33 3.34 4.66 2.68 5 2 C5 4.31 5 6.62 5 9 C4.38125 9.12375 3.7625 9.2475 3.125 9.375 C0.80879168 9.87197356 0.80879168 9.87197356 -1 12 C-1.33 11.01 -1.66 10.02 -2 9 C-2.99 8.34 -3.98 7.68 -5 7 C-4.0409375 6.6596875 -4.0409375 6.6596875 -3.0625 6.3125 C-0.72806339 5.14749104 -0.72806339 5.14749104 -0.25 2.375 C-0.1675 1.59125 -0.085 0.8075 0 0 Z " fill="#545A64" transform="translate(109,43)"/>
<path d="M0 0 C-1.32 0.33 -2.64 0.66 -4 1 C-3.34 2.32 -2.68 3.64 -2 5 C-1.67 4.01 -1.34 3.02 -1 2 C-0.01 2.33 0.98 2.66 2 3 C1.34 3 0.68 3 0 3 C0 4.98 0 6.96 0 9 C-0.66 9 -1.32 9 -2 9 C-2.99 10.485 -2.99 10.485 -4 12 C-4 11.34 -4 10.68 -4 10 C-4.99 10 -5.98 10 -7 10 C-6.67 6.7 -6.34 3.4 -6 0 C-2 -1 -2 -1 0 0 Z " fill="#6F737E" transform="translate(101,39)"/>
<path d="M0 0 C0.33 0 0.66 0 1 0 C1 5.61 1 11.22 1 17 C-0.65 17 -2.3 17 -4 17 C-4 15.68 -4 14.36 -4 13 C-3.01 12.67 -2.02 12.34 -1 12 C-0.67 8.04 -0.34 4.08 0 0 Z " fill="#D2D6DC" transform="translate(91,120)"/>
<path d="M0 0 C0.226875 0.61875 0.45375 1.2375 0.6875 1.875 C2.37929835 4.61410209 3.99244161 5.05024472 7 6 C6.67 6.66 6.34 7.32 6 8 C5.34 8 4.68 8 4 8 C4 8.66 4 9.32 4 10 C3.01 9.67 2.02 9.34 1 9 C-0.6875 5.4375 -0.6875 5.4375 -2 2 C-1.34 1.34 -0.68 0.68 0 0 Z " fill="#1F2636" transform="translate(109,37)"/>
<path d="M0 0 C1.67542976 0.28604898 3.34385343 0.61781233 5 1 C3.86695008 4.39914975 2.87481525 5.05254451 0 7 C0 6.34 0 5.68 0 5 C-0.66 5 -1.32 5 -2 5 C-1.125 1.125 -1.125 1.125 0 0 Z " fill="#505661" transform="translate(64,31)"/>
<path d="M0 0 C4 4.75 4 4.75 4 7 C3.01 7 2.02 7 1 7 C1 7.66 1 8.32 1 9 C0.34 9 -0.32 9 -1 9 C-0.67 6.03 -0.34 3.06 0 0 Z " fill="#071223" transform="translate(85,33)"/>
<path d="M0 0 C1.32 0.33 2.64 0.66 4 1 C4 1.99 4 2.98 4 4 C5.65 4.33 7.3 4.66 9 5 C6 6 6 6 3 5 C3 4.01 3 3.02 3 2 C1.68 2.99 0.36 3.98 -1 5 C-1.66 4.67 -2.32 4.34 -3 4 C-2.01 2.68 -1.02 1.36 0 0 Z " fill="#757A81" transform="translate(74,26)"/>
<path d="M0 0 C2.475 0.495 2.475 0.495 5 1 C5 3.31 5 5.62 5 8 C3.33333333 6.33333333 1.66666667 4.66666667 0 3 C0 2.01 0 1.02 0 0 Z " fill="#5D626B" transform="translate(84,30)"/>
<path d="M0 0 C0 0.66 0 1.32 0 2 C-0.66 2 -1.32 2 -2 2 C-2.33 3.32 -2.66 4.64 -3 6 C-3.66 5.67 -4.32 5.34 -5 5 C-5 3.68 -5 2.36 -5 1 C-2 0 -2 0 0 0 Z " fill="#030C1D" transform="translate(102,39)"/>
</svg>
