<?xml version="1.0" encoding="UTF-8"?>
<svg version="1.1" xmlns="http://www.w3.org/2000/svg" width="1014" height="686">
<path d="M0 0 C0.96226501 -0.00570007 1.92453003 -0.01140015 2.91595459 -0.01727295 C4.94981809 -0.02668119 6.98369655 -0.03324023 9.01757812 -0.03710938 C12.05888279 -0.04671552 15.09948135 -0.07773761 18.140625 -0.109375 C34.7272336 -0.2003896 50.93068364 1.18476321 66.859375 6.078125 C67.7369043 6.33932129 68.61443359 6.60051758 69.51855469 6.86962891 C76.17224009 8.89332478 82.54975045 11.27013546 88.859375 14.203125 C90.17147741 14.78345187 91.48400955 15.36280769 92.796875 15.94140625 C103.05472595 20.53586041 112.50271753 25.99030444 121.859375 32.203125 C122.92285156 32.90308594 123.98632812 33.60304687 125.08203125 34.32421875 C130.12659439 37.73692602 130.12659439 37.73692602 131.859375 39.203125 C131.859375 39.863125 131.859375 40.523125 131.859375 41.203125 C132.40078125 41.4403125 132.9421875 41.6775 133.5 41.921875 C136.49187637 43.54660257 138.97096899 45.5533127 141.609375 47.703125 C142.59421875 48.4971875 143.5790625 49.29125 144.59375 50.109375 C145.34140625 50.8003125 146.0890625 51.49125 146.859375 52.203125 C146.859375 52.863125 146.859375 53.523125 146.859375 54.203125 C147.519375 54.203125 148.179375 54.203125 148.859375 54.203125 C148.859375 54.863125 148.859375 55.523125 148.859375 56.203125 C149.519375 56.203125 150.179375 56.203125 150.859375 56.203125 C152.375 57.70703125 152.375 57.70703125 154.109375 59.765625 C155.03169922 60.85423828 155.03169922 60.85423828 155.97265625 61.96484375 C156.90658203 63.07279297 156.90658203 63.07279297 157.859375 64.203125 C158.45105469 64.86957031 159.04273438 65.53601563 159.65234375 66.22265625 C160.19503906 66.83496094 160.73773438 67.44726562 161.296875 68.078125 C161.79058594 68.63242188 162.28429687 69.18671875 162.79296875 69.7578125 C163.859375 71.203125 163.859375 71.203125 163.859375 73.203125 C164.519375 73.203125 165.179375 73.203125 165.859375 73.203125 C166.0553125 72.66171875 166.25125 72.1203125 166.453125 71.5625 C168.48849343 68.14760407 171.31780009 65.9668778 174.359375 63.453125 C174.95363281 62.94652344 175.54789062 62.43992188 176.16015625 61.91796875 C180.59594003 58.203125 180.59594003 58.203125 182.859375 58.203125 C182.859375 57.543125 182.859375 56.883125 182.859375 56.203125 C184.94140625 54.4765625 184.94140625 54.4765625 187.671875 52.578125 C189.01185547 51.63066406 189.01185547 51.63066406 190.37890625 50.6640625 C192.859375 49.203125 192.859375 49.203125 195.859375 49.203125 C195.859375 48.543125 195.859375 47.883125 195.859375 47.203125 C219.73200944 28.78541686 253.5811594 22.08123084 282.859375 20.203125 C284.51066406 20.09291016 284.51066406 20.09291016 286.1953125 19.98046875 C303.03278156 19.46135107 320.7642073 22.3382946 336.859375 27.203125 C337.91898438 27.51805908 337.91898438 27.51805908 339 27.83935547 C360.95229192 34.44519156 382.51753913 44.96332984 399.859375 60.203125 C399.859375 60.863125 399.859375 61.523125 399.859375 62.203125 C400.39949219 62.42742188 400.93960938 62.65171875 401.49609375 62.8828125 C404.60675439 64.62066919 407.08259386 66.91293031 409.671875 69.328125 C410.2073999 69.82602539 410.7429248 70.32392578 411.29467773 70.83691406 C422.26379054 81.14631807 432.43261995 94.07312346 439.859375 107.203125 C439.859375 107.863125 439.859375 108.523125 439.859375 109.203125 C440.39715576 109.01202148 440.93493652 108.82091797 441.48901367 108.62402344 C447.60289355 106.45582364 453.7267968 104.3178486 459.859375 102.203125 C461.02082031 101.80222656 462.18226563 101.40132813 463.37890625 100.98828125 C512.77866387 84.86699731 570.60328356 89.42966037 617.16796875 112.26171875 C624.49522742 116.06307851 631.68670753 120.11971637 638.859375 124.203125 C638.859375 124.863125 638.859375 125.523125 638.859375 126.203125 C639.7875 126.4196875 639.7875 126.4196875 640.734375 126.640625 C642.859375 127.203125 642.859375 127.203125 644.859375 128.203125 C644.859375 128.863125 644.859375 129.523125 644.859375 130.203125 C645.93251953 130.58984375 645.93251953 130.58984375 647.02734375 130.984375 C650.03097611 132.27697265 652.49442872 133.8308959 655.171875 135.703125 C656.05488281 136.3115625 656.93789063 136.92 657.84765625 137.546875 C658.51152344 138.0934375 659.17539062 138.64 659.859375 139.203125 C659.859375 139.863125 659.859375 140.523125 659.859375 141.203125 C660.39433594 141.42226562 660.92929687 141.64140625 661.48046875 141.8671875 C664.69494217 143.67235976 667.24746828 146.07396913 669.921875 148.578125 C670.48608154 149.10325684 671.05028809 149.62838867 671.6315918 150.16943359 C675.61855379 153.92692613 679.45062725 157.80772174 683.171875 161.828125 C683.64568604 162.33649902 684.11949707 162.84487305 684.60766602 163.36865234 C687.859375 166.95376054 687.859375 166.95376054 687.859375 169.203125 C688.519375 169.203125 689.179375 169.203125 689.859375 169.203125 C691.15283203 170.64916992 691.15283203 170.64916992 692.6171875 172.68359375 C693.42603394 173.80145264 693.42603394 173.80145264 694.2512207 174.94189453 C695.10913208 176.15401611 695.10913208 176.15401611 695.984375 177.390625 C696.57114014 178.2141748 697.15790527 179.03772461 697.76245117 179.88623047 C731.11468399 227.07819301 744.91338593 285.34713626 735.46875 342.56982422 C729.94306449 373.7349463 718.10862508 405.01580672 698.953125 430.390625 C696.82086876 433.14033474 696.82086876 433.14033474 695.203125 436.078125 C694.7596875 436.779375 694.31625 437.480625 693.859375 438.203125 C693.199375 438.203125 692.539375 438.203125 691.859375 438.203125 C691.199375 439.853125 690.539375 441.503125 689.859375 443.203125 C689.199375 443.203125 688.539375 443.203125 687.859375 443.203125 C687.55 443.821875 687.240625 444.440625 686.921875 445.078125 C686.234375 446.453125 685.546875 447.828125 684.859375 449.203125 C684.199375 449.203125 683.539375 449.203125 682.859375 449.203125 C682.859375 449.863125 682.859375 450.523125 682.859375 451.203125 C682.199375 451.203125 681.539375 451.203125 680.859375 451.203125 C680.6221875 451.76515625 680.385 452.3271875 680.140625 452.90625 C678.56989803 455.72206542 676.64466036 457.68267916 674.359375 459.953125 C673.5653125 460.75234375 672.77125 461.5515625 671.953125 462.375 C669.859375 464.203125 669.859375 464.203125 667.859375 464.203125 C667.859375 464.863125 667.859375 465.523125 667.859375 466.203125 C667.199375 466.203125 666.539375 466.203125 665.859375 466.203125 C665.859375 466.863125 665.859375 467.523125 665.859375 468.203125 C663.93582217 469.85231528 662.01278202 471.37992973 659.984375 472.890625 C659.38939209 473.33978271 658.79440918 473.78894043 658.18139648 474.25170898 C653.1566712 478.02548212 648.06917162 481.68845623 642.859375 485.203125 C641.37824219 486.23179687 641.37824219 486.23179687 639.8671875 487.28125 C617.23251267 502.67623259 590.25135052 512.58085581 563.421875 517.515625 C562.55957275 517.67490479 561.69727051 517.83418457 560.80883789 517.99829102 C549.23440555 519.99350373 537.64608396 520.37490247 525.921875 520.328125 C524.69202881 520.32474121 523.46218262 520.32135742 522.19506836 520.31787109 C509.53862771 520.24564935 497.35214736 519.3405927 484.859375 517.203125 C484.13492188 518.2653125 483.41046875 519.3275 482.6640625 520.421875 C471.644601 536.5443853 471.644601 536.5443853 467.859375 541.203125 C467.199375 541.203125 466.539375 541.203125 465.859375 541.203125 C465.59060547 541.79641602 465.32183594 542.38970703 465.04492188 543.00097656 C463.85646768 545.20852533 462.65195111 546.66855382 460.890625 548.4375 C460.31957031 549.01113281 459.74851562 549.58476563 459.16015625 550.17578125 C458.26876953 551.05556641 458.26876953 551.05556641 457.359375 551.953125 C456.76511719 552.55511719 456.17085937 553.15710938 455.55859375 553.77734375 C454.70201172 554.63005859 454.70201172 554.63005859 453.828125 555.5 C453.30669922 556.01916992 452.78527344 556.53833984 452.24804688 557.07324219 C450.859375 558.203125 450.859375 558.203125 448.859375 558.203125 C448.859375 558.863125 448.859375 559.523125 448.859375 560.203125 C447.48925781 561.4206543 447.48925781 561.4206543 445.5625 562.77734375 C444.85778564 563.27645264 444.15307129 563.77556152 443.42700195 564.28979492 C442.66218506 564.81806885 441.89736816 565.34634277 441.109375 565.890625 C440.3258667 566.43372314 439.5423584 566.97682129 438.73510742 567.53637695 C421.68419899 579.25526847 403.15396622 587.80718466 382.859375 592.203125 C381.42271484 592.52023437 381.42271484 592.52023437 379.95703125 592.84375 C367.45678802 595.35455926 354.76757249 595.4575444 342.06787109 595.24023438 C340.18215042 595.2085486 338.29612377 595.19604345 336.41015625 595.1875 C320.9516921 594.65510517 304.61106466 590.30709515 290.41015625 584.28125 C287.60359958 583.09501778 284.75854282 582.13697115 281.859375 581.203125 C281.32828125 582.34910156 280.7971875 583.49507812 280.25 584.67578125 C279.53661581 586.2058026 278.82306527 587.7357464 278.109375 589.265625 C277.58730469 590.39387695 277.58730469 590.39387695 277.0546875 591.54492188 C274.86041352 596.23823011 272.49107797 600.73989902 269.859375 605.203125 C269.199375 605.203125 268.539375 605.203125 267.859375 605.203125 C267.199375 607.183125 266.539375 609.163125 265.859375 611.203125 C265.199375 611.203125 264.539375 611.203125 263.859375 611.203125 C263.53453125 612.23566406 263.53453125 612.23566406 263.203125 613.2890625 C261.47460458 617.03753993 259.07623051 619.75323427 256.359375 622.828125 C252.40533826 627.35369825 252.40533826 627.35369825 248.859375 632.203125 C248.199375 632.203125 247.539375 632.203125 246.859375 632.203125 C246.859375 632.863125 246.859375 633.523125 246.859375 634.203125 C245.484375 635.828125 245.484375 635.828125 243.859375 637.203125 C243.199375 637.203125 242.539375 637.203125 241.859375 637.203125 C241.859375 637.863125 241.859375 638.523125 241.859375 639.203125 C238.3690992 642.41109908 234.58809231 645.27796832 230.859375 648.203125 C230.05371094 648.83863281 229.24804688 649.47414063 228.41796875 650.12890625 C223.13801462 654.203125 223.13801462 654.203125 220.859375 654.203125 C220.859375 654.863125 220.859375 655.523125 220.859375 656.203125 C218.879375 656.863125 216.899375 657.523125 214.859375 658.203125 C214.859375 658.863125 214.859375 659.523125 214.859375 660.203125 C200.70660676 668.93264759 185.61993092 675.65597364 169.734375 680.578125 C169.0213623 680.8045166 168.30834961 681.0309082 167.57373047 681.26416016 C152.71295925 685.61038879 137.50104732 686.70152766 122.09814453 686.59423828 C119.36049624 686.5781316 116.6243234 686.59421238 113.88671875 686.61328125 C98.67763167 686.6321868 83.5492986 685.20441724 68.984375 680.578125 C68.17250732 680.32579102 67.36063965 680.07345703 66.52416992 679.81347656 C46.26668958 673.29293653 27.10312611 664.06632638 10.859375 650.203125 C9.13291966 648.8455033 7.40372207 647.49136201 5.671875 646.140625 C1.4308842 642.75049129 -2.3929847 639.12373331 -6.140625 635.203125 C-7.0275 634.31625 -7.914375 633.429375 -8.828125 632.515625 C-9.59125 631.7525 -10.354375 630.989375 -11.140625 630.203125 C-11.90375 629.48125 -12.666875 628.759375 -13.453125 628.015625 C-15.140625 626.203125 -15.140625 626.203125 -15.140625 624.203125 C-15.800625 624.203125 -16.460625 624.203125 -17.140625 624.203125 C-17.800625 622.553125 -18.460625 620.903125 -19.140625 619.203125 C-19.800625 619.203125 -20.460625 619.203125 -21.140625 619.203125 C-22.76230874 617.06949195 -24.24435067 614.94547903 -25.703125 612.703125 C-26.36586426 611.69403076 -26.36586426 611.69403076 -27.04199219 610.66455078 C-46.140625 581.21230511 -46.140625 581.21230511 -46.140625 572.203125 C-47.83638672 572.52796875 -47.83638672 572.52796875 -49.56640625 572.859375 C-90.70355571 580.18993074 -134.91282323 572.58006929 -169.734375 548.7890625 C-173.25317347 546.32674651 -176.70331135 543.77741761 -180.140625 541.203125 C-181.09195313 540.501875 -182.04328125 539.800625 -183.0234375 539.078125 C-187.6158661 535.62300631 -187.6158661 535.62300631 -189.140625 534.203125 C-189.140625 533.543125 -189.140625 532.883125 -189.140625 532.203125 C-189.72328125 531.9453125 -190.3059375 531.6875 -190.90625 531.421875 C-193.3209153 530.10478483 -194.95802677 528.65224116 -196.890625 526.703125 C-197.50421875 526.0946875 -198.1178125 525.48625 -198.75 524.859375 C-200.140625 523.203125 -200.140625 523.203125 -200.140625 521.203125 C-200.800625 521.203125 -201.460625 521.203125 -202.140625 521.203125 C-203.43408203 519.84887695 -203.43408203 519.84887695 -204.8984375 517.94140625 C-205.70728394 516.89134399 -205.70728394 516.89134399 -206.5324707 515.82006836 C-207.39038208 514.6793689 -207.39038208 514.6793689 -208.265625 513.515625 C-208.85239014 512.73904541 -209.43915527 511.96246582 -210.04370117 511.16235352 C-223.23892789 493.49663269 -233.08723501 474.01102496 -238.828125 452.703125 C-239.13206177 451.58296997 -239.13206177 451.58296997 -239.44213867 450.44018555 C-242.76032062 437.57859671 -243.48725224 425.05670749 -243.45629883 411.83959961 C-243.45314998 409.03784819 -243.47663801 406.2371678 -243.50195312 403.43554688 C-243.56036664 387.45953769 -241.81258071 372.41059157 -236.515625 357.265625 C-236.17152588 356.26055908 -235.82742676 355.25549316 -235.47290039 354.2199707 C-230.63567506 340.47155211 -224.60135626 327.12172034 -216.140625 315.203125 C-215.46515625 314.2440625 -214.7896875 313.285 -214.09375 312.296875 C-208.61122965 304.75354913 -202.56514796 297.93669936 -196.140625 291.203125 C-195.03074219 290.01396484 -195.03074219 290.01396484 -193.8984375 288.80078125 C-184.85867858 279.38022663 -174.27421869 271.94129192 -163.140625 265.203125 C-163.59953125 264.07777344 -164.0584375 262.95242188 -164.53125 261.79296875 C-183.62633683 214.32595628 -182.61252281 161.74712013 -163.05712891 114.59033203 C-156.49801122 99.41960373 -148.04286109 85.62119851 -137.953125 72.55859375 C-136.61678683 70.82193014 -135.35614011 69.02639767 -134.140625 67.203125 C-133.480625 67.203125 -132.820625 67.203125 -132.140625 67.203125 C-131.893125 66.64625 -131.645625 66.089375 -131.390625 65.515625 C-129.91137682 62.77901587 -128.20595061 60.52661631 -126.140625 58.203125 C-125.480625 58.203125 -124.820625 58.203125 -124.140625 58.203125 C-124.140625 57.543125 -124.140625 56.883125 -124.140625 56.203125 C-122.765625 54.578125 -122.765625 54.578125 -121.140625 53.203125 C-120.480625 53.203125 -119.820625 53.203125 -119.140625 53.203125 C-119.140625 52.543125 -119.140625 51.883125 -119.140625 51.203125 C-117.6796875 49.6953125 -117.6796875 49.6953125 -115.765625 48.078125 C-115.13914063 47.53929687 -114.51265625 47.00046875 -113.8671875 46.4453125 C-112.140625 45.203125 -112.140625 45.203125 -110.140625 45.203125 C-110.140625 44.543125 -110.140625 43.883125 -110.140625 43.203125 C-108.75805664 41.94140625 -108.75805664 41.94140625 -106.80078125 40.515625 C-106.07648926 39.98678711 -105.35219727 39.45794922 -104.60595703 38.91308594 C-103.81302246 38.34879883 -103.02008789 37.78451172 -102.203125 37.203125 C-101.3869873 36.62079102 -100.57084961 36.03845703 -99.72998047 35.43847656 C-70.65051977 14.95998311 -36.01211639 0.16964472 0 0 Z " fill="#00A1E0" transform="translate(243.140625,-0.203125)"/>
<path d="M0 0 C0.78987305 0.00161133 1.57974609 0.00322266 2.39355469 0.00488281 C11.48697167 0.19456145 19.00779177 2.77874819 26.25 8.375 C26.82363281 8.79394531 27.39726563 9.21289062 27.98828125 9.64453125 C35.70798433 15.64507133 39.19508825 23.9975422 41.25 33.375 C41.67415814 37.48885589 41.72781855 41.55421848 41.6875 45.6875 C41.67847656 46.79109863 41.66945313 47.89469727 41.66015625 49.03173828 C41.3793427 62.24362567 38.48528205 72.43809759 29.25 82.375 C18.20357203 91.65627711 6.3409448 93.15212807 -7.75 92.375 C-17.4474651 90.92503608 -25.41993841 85.53768081 -31.625 78.0625 C-40.54040751 65.68581663 -42.18716283 50.57037771 -40.28515625 35.75390625 C-38.21546012 24.57264848 -33.89667723 14.50978082 -24.75 7.375 C-16.94296925 2.17493512 -9.340841 -0.01989953 0 0 Z " fill="#F9FDFE" transform="translate(614.75,275.625)"/>
<path d="M0 0 C0.92675537 -0.00153076 1.85351074 -0.00306152 2.80834961 -0.00463867 C12.10283916 0.14496241 21.36040883 1.74301754 28.54296875 8.0625 C37.14850845 17.16345456 38.20788361 26.76528754 38.015625 38.9140625 C38.00814678 40.28981699 38.00246134 41.66558228 37.99847412 43.04135132 C37.98334166 46.62870699 37.94417107 50.21539492 37.8996582 53.80249023 C37.85843439 57.4763079 37.84040581 61.15023551 37.8203125 64.82421875 C37.77766115 72.00811398 37.70956522 79.19146275 37.625 86.375 C24.78287038 90.71563981 12.47640112 92.42419433 -1 92.5625 C-2.20003662 92.58219849 -2.20003662 92.58219849 -3.42431641 92.60229492 C-12.40570467 92.61434923 -21.52880474 90.82380725 -28.328125 84.58203125 C-35.50889049 76.78275444 -37.03117839 70.65452952 -36.78125 60.10546875 C-35.97924054 52.74086266 -32.98263026 47.5910583 -27.6875 42.5 C-18.1863972 34.89911776 -7.40551198 34.20100483 4.3125 34.25 C5.24900391 34.24613281 6.18550781 34.24226563 7.15039062 34.23828125 C8.50487305 34.24021484 8.50487305 34.24021484 9.88671875 34.2421875 C10.70100342 34.24331543 11.51528809 34.24444336 12.35424805 34.24560547 C14.56934203 34.37182844 16.49814871 34.7612332 18.625 35.375 C18.5729079 27.87094422 18.5729079 27.87094422 15.375 21.3125 C9.84191245 17.41418831 5.1545435 16.98894498 -1.4375 17 C-2.70025757 16.99915405 -2.70025757 16.99915405 -3.98852539 16.99829102 C-11.03402567 17.12170698 -16.8709378 18.68030535 -23.375 21.375 C-24.70135311 21.73510599 -26.0328483 22.0791661 -27.375 22.375 C-28.07588156 20.63031628 -28.76024009 18.87898839 -29.4375 17.125 C-29.82035156 16.15046875 -30.20320312 15.1759375 -30.59765625 14.171875 C-31.74249213 10.05276701 -31.74249213 10.05276701 -30.375 7.375 C-21.53689404 0.86851558 -10.58779843 0.00972574 0 0 Z " fill="#F8FCFE" transform="translate(256.375,275.625)"/>
<path d="M0 0 C8.37252694 5.04224066 13.03607895 11.62166049 16.7578125 20.66015625 C18.24056076 26.72594459 18.60460645 32.64045044 18.5703125 38.84765625 C18.57417969 39.57082031 18.57804688 40.29398437 18.58203125 41.0390625 C18.57207472 46.34589403 18.57207472 46.34589403 17.4453125 47.47265625 C15.63476225 47.56641678 13.82054049 47.59009735 12.00756836 47.58618164 C10.84644028 47.58610611 9.68531219 47.58603058 8.48899841 47.58595276 C6.59372154 47.57821083 6.59372154 47.57821083 4.66015625 47.5703125 C3.37420059 47.56889755 2.08824493 47.5674826 0.76332092 47.56602478 C-2.66112193 47.56220043 -6.08552259 47.55237087 -9.50994873 47.5413208 C-13.00206939 47.53110489 -16.49419684 47.52652678 -19.98632812 47.52148438 C-26.84246528 47.51074852 -33.69857437 47.49367309 -40.5546875 47.47265625 C-40.09067093 49.39145804 -39.62240005 51.30923135 -39.15234375 53.2265625 C-38.89203369 54.29463135 -38.63172363 55.3627002 -38.36352539 56.46313477 C-36.80523756 62.26120722 -34.77770546 66.10561062 -29.5546875 69.41015625 C-20.32514547 73.57169083 -7.12684944 72.98470861 2.3828125 69.91015625 C3.07246094 69.62011719 3.76210938 69.33007812 4.47265625 69.03125 C7.15736324 68.27102604 8.82503274 68.55729362 11.4453125 69.47265625 C13.61295635 72.63904385 14.28124689 76.5497872 14.9453125 80.28515625 C14.4453125 82.47265625 14.4453125 82.47265625 12.2265625 84.00390625 C4.1845317 88.25082139 -4.24866165 88.75130275 -13.1796875 88.78515625 C-14.48486328 88.79325317 -14.48486328 88.79325317 -15.81640625 88.80151367 C-28.51453771 88.66385482 -40.32958402 85.69775973 -49.5546875 76.47265625 C-59.38043516 64.05468873 -61.69967787 50.90974718 -60.5546875 35.47265625 C-58.89173781 23.04514927 -54.57110371 11.99813695 -44.6328125 3.9375 C-41.44629897 1.69136734 -38.17059904 -0.07685452 -34.5546875 -1.52734375 C-33.23210938 -2.06101562 -33.23210938 -2.06101562 -31.8828125 -2.60546875 C-21.65216336 -5.43931053 -9.47530643 -4.73765322 0 0 Z " fill="#F9FCFE" transform="translate(861.5546875,279.52734375)"/>
<path d="M0 0 C8.31835168 4.99659379 12.9947652 14.19366016 15.68359375 23.3203125 C16.17268252 27.46247171 16.14374166 31.5831048 16.125 35.75 C16.12886719 36.62527344 16.13273437 37.50054687 16.13671875 38.40234375 C16.13542969 39.23378906 16.13414062 40.06523437 16.1328125 40.921875 C16.13168457 41.68081055 16.13055664 42.43974609 16.12939453 43.22167969 C16 45 16 45 15 46 C13.18944975 46.09376053 11.37522799 46.1174411 9.56225586 46.11352539 C8.40112778 46.11344986 7.23999969 46.11337433 6.04368591 46.11329651 C4.14840904 46.10555458 4.14840904 46.10555458 2.21484375 46.09765625 C0.92888809 46.0962413 -0.35706757 46.09482635 -1.68199158 46.09336853 C-5.10643443 46.08954418 -8.53083509 46.07971462 -11.95526123 46.06866455 C-15.44738189 46.05844864 -18.93950934 46.05387053 -22.43164062 46.04882812 C-29.28777778 46.03809227 -36.14388687 46.02101684 -43 46 C-42.70480048 47.41366085 -42.40426186 48.82620729 -42.1015625 50.23828125 C-41.93479004 51.02501221 -41.76801758 51.81174316 -41.59619141 52.62231445 C-39.8322885 59.65697885 -36.80989431 63.70972896 -30.90234375 67.87109375 C-26.0022099 70.77897605 -20.82815382 70.22121642 -15.3125 70.25 C-14.34376953 70.270625 -13.37503906 70.29125 -12.37695312 70.3125 C-6.15086641 70.34617728 -1.70904875 69.46234873 4 67 C6.8125 66.8125 6.8125 66.8125 9 68 C11.34758378 72.07987343 12.44170245 76.28850725 12 81 C-1.10456811 87.8170228 -19.57202559 89.76199683 -33.984375 85.76171875 C-44.81576559 81.66846068 -52.2768354 76.1956614 -58 66 C-63.81909424 50.93675906 -65.03853826 35.52655939 -60 20 C-54.48728196 7.67659591 -46.5987652 0.82288484 -34.29296875 -4.078125 C-22.910879 -7.26457005 -10.26867184 -5.65647178 0 0 Z " fill="#F9FDFE" transform="translate(409,281)"/>
<path d="M0 0 C-0.54138026 5.30552651 -1.85254116 9.20420049 -4 14 C-5.08539062 13.95359375 -6.17078125 13.9071875 -7.2890625 13.859375 C-8.73434731 13.82183513 -10.17966211 13.78543736 -11.625 13.75 C-12.33785156 13.71648437 -13.05070313 13.68296875 -13.78515625 13.6484375 C-18.97863225 13.55314436 -21.9476529 14.46780492 -26 18 C-27.46703992 20.24512024 -27.46703992 20.24512024 -28.25 22.75 C-28.54390625 23.54921875 -28.8378125 24.3484375 -29.140625 25.171875 C-30.22598979 28.74371184 -31.09459027 32.37836109 -32 36 C-25.4 36 -18.8 36 -12 36 C-12.45758156 41.71976954 -12.84672916 45.6168229 -15 51 C-21.6 51 -28.2 51 -35 51 C-35.33 53.97 -35.66 56.94 -36 60 C-36.27037797 61.83488184 -36.55675784 63.66756181 -36.8671875 65.49609375 C-37.02888428 66.45700928 -37.19058105 67.4179248 -37.35717773 68.40795898 C-37.61349976 69.90758179 -37.61349976 69.90758179 -37.875 71.4375 C-38.2384332 73.5833076 -38.60171337 75.72914113 -38.96484375 77.875 C-39.14257324 78.92171875 -39.32030273 79.9684375 -39.50341797 81.046875 C-39.93141876 83.59215402 -40.34755089 86.13869608 -40.75390625 88.6875 C-42.15731204 97.45331188 -43.77230549 106.16708533 -45.5 114.875 C-45.70165771 115.897146 -45.90331543 116.91929199 -46.11108398 117.97241211 C-52.63009243 150.36840063 -52.63009243 150.36840063 -63 159 C-72.80316857 165.13656875 -82.89901102 166.51449755 -94.1875 164 C-95.445625 163.67 -96.70375 163.34 -98 163 C-99.43410153 159.21180727 -98.51009497 156.93478721 -97.0625 153.25 C-96.68222656 152.26515625 -96.30195313 151.2803125 -95.91015625 150.265625 C-95.60980469 149.51796875 -95.30945313 148.7703125 -95 148 C-93.98679687 148.02320313 -92.97359375 148.04640625 -91.9296875 148.0703125 C-90.57813242 148.0890841 -89.22656931 148.1072828 -87.875 148.125 C-87.20984375 148.14175781 -86.5446875 148.15851563 -85.859375 148.17578125 C-81.51867588 148.21833712 -77.91419979 147.93967764 -74 146 C-72.64443611 143.78331366 -72.64443611 143.78331366 -72 141 C-71.63261719 139.96230469 -71.26523437 138.92460937 -70.88671875 137.85546875 C-65.59031052 121.65570548 -62.4005651 104.99243368 -60.16796875 88.11499023 C-59.15757842 80.6512993 -57.80356889 73.26916677 -56.375 65.875 C-56.15650391 64.74143066 -55.93800781 63.60786133 -55.71289062 62.43994141 C-54.14120724 54.42362173 -54.14120724 54.42362173 -53 51 C-57.62 51 -62.24 51 -67 51 C-67.20818303 45.06678378 -66.73620116 42.07670404 -65 36 C-60.05 36 -55.1 36 -50 36 C-50 33.69 -50 31.38 -50 29 C-47.71359962 17.45438814 -42.67918462 7.82785681 -32.84375 1.11328125 C-22.87619264 -4.90526504 -10.46104074 -4.33939468 0 0 Z " fill="#F9FDFE" transform="translate(585,242)"/>
<path d="M0 0 C-0.49658297 5.66104589 -1.54510684 9.87674471 -4 15 C-7.67985263 14.44244657 -10.73876794 13.24995469 -14.13671875 11.765625 C-21.72623359 8.64708222 -31.15992842 7.213751 -39.1328125 9.65234375 C-42.22897637 11.39487076 -43.04130313 13.11956169 -44.1875 16.4375 C-44.34369395 20.07644379 -44.34369395 20.07644379 -41.96875 22.53125 C-38.62995547 25.30772124 -35.36704461 26.70252219 -31.3125 28.0625 C-29.88131221 28.57236065 -28.45032211 29.08277653 -27.01953125 29.59375 C-26.32939941 29.83480469 -25.63926758 30.07585937 -24.92822266 30.32421875 C-13.93686676 34.17634247 -4.99054466 38.31454972 2 48 C4.29737963 54.89213889 4.02624925 62.76396557 1 69.375 C-3.86181842 77.76402001 -10.83055867 82.27872543 -20 85 C-23.62641312 85.52095798 -27.15368305 85.57384058 -30.8125 85.5 C-31.77373779 85.48864014 -32.73497559 85.47728027 -33.7253418 85.46557617 C-44.3074829 85.1777904 -57.15590891 82.84409109 -65 75 C-64.55453659 69.54307317 -63.04495269 65.06792623 -61 60 C-56.34978085 60.83495207 -52.3506211 63.29163912 -48.22070312 65.47265625 C-42.33661483 68.50673846 -37.63676578 69.16434181 -31.0625 69.25 C-29.87785156 69.27578125 -28.69320312 69.3015625 -27.47265625 69.328125 C-23.64547412 68.96650149 -21.27278261 67.97720545 -18 66 C-16.19996226 63.62722298 -15.99464464 61.96327752 -15.5625 59 C-15.71187241 55.89403983 -15.71187241 55.89403983 -17.984375 54 C-21.73391878 51.51325594 -25.41076189 50.30527856 -29.6875 49 C-31.30396448 48.48096665 -32.91985595 47.96014519 -34.53515625 47.4375 C-35.30746582 47.19 -36.07977539 46.9425 -36.87548828 46.6875 C-47.23285655 43.33581659 -55.4494755 39.52581668 -61.08984375 29.83203125 C-63.63639169 24.7061472 -63.65115471 19.59700399 -63 14 C-60.04909713 5.31871314 -54.85353066 -0.35199206 -47 -5 C-32.28685444 -11.29269918 -13.60016089 -7.09862056 0 0 Z " fill="#F9FCFE" transform="translate(207,283)"/>
<path d="M0 0 C-0.53484401 5.34844008 -2.46690767 9.35796103 -5 14 C-6.2375 13.566875 -7.475 13.13375 -8.75 12.6875 C-24.71967915 7.02496799 -24.71967915 7.02496799 -40.78515625 9.3984375 C-43.09827307 10.81092886 -43.09827307 10.81092886 -44 13 C-44.53421488 17.85064684 -44.53421488 17.85064684 -42.4453125 22.04296875 C-39.39565776 24.48366687 -36.20852004 25.6835045 -32.5625 26.9375 C-31.85528809 27.19418457 -31.14807617 27.45086914 -30.41943359 27.71533203 C-27.09549588 28.92138896 -23.75963969 30.08134065 -20.41015625 31.21484375 C-11.99198427 34.18772969 -4.08933572 37.99624372 0.74609375 45.828125 C3.47398423 52.72858316 3.17189156 61.15373321 0.3125 68 C-3.8829462 75.83924204 -8.87098549 79.68230465 -17 83 C-30.20304401 86.87990977 -46.40245356 84.39200585 -58.5625 78.6875 C-59.18366699 78.40382568 -59.80483398 78.12015137 -60.44482422 77.82788086 C-63.23247088 76.42548495 -64.77937661 75.51703344 -66.0234375 72.6015625 C-65.9957387 69.52699599 -65.29824047 67.49600106 -64.0625 64.6875 C-63.49208984 63.36298828 -63.49208984 63.36298828 -62.91015625 62.01171875 C-62.60980469 61.34785156 -62.30945313 60.68398438 -62 60 C-57.38056466 60.55157437 -53.97197777 61.82053357 -49.875 64 C-43.71145227 67.26213213 -39.63365192 68.16606405 -32.625 68.25 C-31.33851563 68.27578125 -30.05203125 68.3015625 -28.7265625 68.328125 C-24.75532248 67.97845607 -22.37863563 67.06865565 -19 65 C-17.19996226 62.62722298 -16.99464464 60.96327752 -16.5625 58 C-16.72872307 54.89912292 -16.72872307 54.89912292 -18.9375 52.875 C-24.65974581 49.3715842 -30.39694515 47.13997847 -36.83935547 45.24438477 C-47.30230358 42.15566015 -56.31854414 38.89672957 -62 29 C-64.16228695 22.51313916 -63.74453123 14.67155325 -61.9375 8.1875 C-57.35605637 0.65028628 -52.61166237 -4.42087269 -44 -7 C-28.48922812 -10.28069564 -13.5039925 -8.49605432 0 0 Z " fill="#F9FDFE" transform="translate(502,284)"/>
<path d="M0 0 C1.44632813 -0.01740234 1.44632813 -0.01740234 2.921875 -0.03515625 C9.89073406 -0.00713135 16.00171414 1.24279089 22.625 3.375 C23.80529454 7.30196128 23.19386395 9.29061903 21.6875 13.125 C21.30722656 14.10984375 20.92695312 15.0946875 20.53515625 16.109375 C20.08462891 17.23085938 20.08462891 17.23085938 19.625 18.375 C19.0165625 18.3028125 18.408125 18.230625 17.78125 18.15625 C1.49884872 15.89004376 1.49884872 15.89004376 -13.76953125 19.9921875 C-20.75998626 26.01316335 -23.75884087 33.3959744 -24.69140625 42.4453125 C-25.06643152 52.48631176 -23.36915544 62.78833784 -16.375 70.375 C-8.48155027 76.68041842 1.0633653 76.27258429 10.625 75.375 C12.63601834 74.7423471 14.63873656 74.08154228 16.625 73.375 C17.945 73.375 19.265 73.375 20.625 73.375 C21.32588156 75.11968372 22.01024009 76.87101161 22.6875 78.625 C23.07035156 79.59953125 23.45320312 80.5740625 23.84765625 81.578125 C24.63613787 84.41507395 24.64937812 85.66909552 23.625 88.375 C21.91774992 88.85801203 20.20914026 89.33621958 18.5 89.8125 C17.54867187 90.07933594 16.59734375 90.34617187 15.6171875 90.62109375 C1.90713873 94.0754533 -13.28255887 93.62978025 -25.8125 86.625 C-35.17940053 80.42075247 -41.07676969 70.65000244 -43.75 59.75 C-45.95804066 45.46673701 -45.36425983 30.84889338 -37.4375 18.375 C-27.85448341 5.287746 -15.95665867 -0.1904641 0 0 Z " fill="#F9FDFE" transform="translate(771.375,275.625)"/>
<path d="M0 0 C5.61 0 11.22 0 17 0 C17 41.25 17 82.5 17 125 C11.06 125 5.12 125 -1 125 C-1.02311899 108.84968026 -1.04097922 92.69936731 -1.05181217 76.54903507 C-1.05697511 69.05066936 -1.06401776 61.55231409 -1.07543945 54.05395508 C-1.08538637 47.52069496 -1.09185344 40.98744241 -1.09408849 34.45417494 C-1.09539559 30.99278193 -1.09848136 27.53141058 -1.10573006 24.07002449 C-1.11374407 20.21212473 -1.11399113 16.35424643 -1.11352539 12.49633789 C-1.11712067 11.34044159 -1.12071594 10.18454529 -1.12442017 8.99362183 C-1.1230455 7.94889206 -1.12167084 6.90416229 -1.12025452 5.82777405 C-1.12117631 4.9142772 -1.1220981 4.00078035 -1.12304783 3.05960178 C-1 1 -1 1 0 0 Z " fill="#FBFDFE" transform="translate(313,241)"/>
<path d="M0 0 C6.71333645 5.07593732 10.33524449 10.54790087 11.5625 18.9375 C12.58851331 30.41761908 12.77613204 41.81985934 6.5625 51.9375 C2.36658357 56.84796853 -1.29487528 59.50773791 -7.734375 60.17578125 C-13.78575466 60.35886439 -18.59009942 59.78945224 -23.4375 55.9375 C-30.00313271 48.20920317 -31.94113366 39.42441396 -31.8125 29.5625 C-31.82410156 28.68078125 -31.83570313 27.7990625 -31.84765625 26.890625 C-31.80897652 18.09743316 -30.05005844 9.91067867 -24.4375 2.9375 C-18.12056188 -2.78722517 -7.75053109 -2.3956187 0 0 Z " fill="#03A2E0" transform="translate(625.4375,293.0625)"/>
<path d="M0 0 C1.175625 0.00644531 2.35125 0.01289063 3.5625 0.01953125 C6.78705469 0.17709472 9.83179074 0.58380159 13 1.1875 C12.39891424 6.83770618 10.92471317 11.84914461 9 17.1875 C7.99839844 17.22488281 6.99679687 17.26226562 5.96484375 17.30078125 C-5.10094303 17.41065546 -5.10094303 17.41065546 -14.44921875 22.58984375 C-20.75887865 30.27352701 -20.31153595 40.87687537 -20.4140625 50.3203125 C-20.43342865 51.43816132 -20.4527948 52.55601013 -20.4727478 53.70773315 C-20.53204289 57.24258028 -20.57872733 60.77746087 -20.625 64.3125 C-20.66322591 66.72397174 -20.70228025 69.1354305 -20.7421875 71.546875 C-20.83770284 77.42697664 -20.92191687 83.30714209 -21 89.1875 C-26.94 89.1875 -32.88 89.1875 -39 89.1875 C-39 60.1475 -39 31.1075 -39 1.1875 C-33.06 1.1875 -27.12 1.1875 -21 1.1875 C-20.67 3.1675 -20.34 5.1475 -20 7.1875 C-18.96875 6.40375 -17.9375 5.62 -16.875 4.8125 C-11.61550728 0.81528553 -6.5180078 -0.07861632 0 0 Z " fill="#FCFDFE" transform="translate(711,276.8125)"/>
<path d="M0 0 C0.78117187 -0.00128906 1.56234375 -0.00257813 2.3671875 -0.00390625 C3.17414063 -0.00003906 3.98109375 0.00382812 4.8125 0.0078125 C5.61945313 0.00394531 6.42640625 0.00007813 7.2578125 -0.00390625 C8.03898437 -0.00261719 8.82015625 -0.00132812 9.625 0 C10.68654297 0.00169189 10.68654297 0.00169189 11.76953125 0.00341797 C13.8125 0.1328125 13.8125 0.1328125 17.8125 1.1328125 C17.8125 9.7128125 17.8125 18.2928125 17.8125 27.1328125 C11.50530581 28.70961105 7.00479299 29.49720216 0.75 29.5078125 C-0.01376953 29.53230469 -0.77753906 29.55679687 -1.56445312 29.58203125 C-8.1059557 29.61560611 -12.33594981 27.93771156 -17.09765625 23.25390625 C-19.34673956 18.87665808 -18.76880404 13.90081193 -18.1875 9.1328125 C-15.82697453 4.68412989 -12.77258167 3.04326319 -8.1875 1.1328125 C-5.39522403 0.306599 -2.90788707 0.00463461 0 0 Z " fill="#04A2E0" transform="translate(257.1875,323.8671875)"/>
<path d="M0 0 C5.04924527 3.48638364 8.37146998 7.06599845 10.625 12.8125 C11.12 16.7725 11.12 16.7725 11.625 20.8125 C-1.905 20.8125 -15.435 20.8125 -29.375 20.8125 C-28.32726446 13.47835125 -27.11173281 7.87544723 -21.375 2.9375 C-14.61355831 -1.85185453 -7.96436088 -2.80227512 0 0 Z " fill="#0CA5E1" transform="translate(395.375,292.1875)"/>
<path d="M0 0 C4.59594156 2.77490811 9.03843668 6.67168853 11.0078125 11.81640625 C11.43109067 14.84989982 11.3125 17.93711776 11.3125 21 C-1.8875 21 -15.0875 21 -28.6875 21 C-27.37915298 13.14991791 -25.2929301 7.73578894 -19.6875 2 C-13.57790841 -2.26250576 -6.942481 -1.88270671 0 0 Z " fill="#0AA4E1" transform="translate(849.6875,292)"/>
<path d="M0 0 C0.66 0.33 1.32 0.66 2 1 C-0.64 3.64 -3.28 6.28 -6 9 C-6 6 -6 6 -3.5625 3.375 C-2.716875 2.59125 -1.87125 1.8075 -1 1 C-0.67 0.67 -0.34 0.34 0 0 Z " fill="#2DB1E5" transform="translate(605,293)"/>
</svg>
